<?xml version='1.0' encoding='utf-8'?>
<svg xmlns="http://www.w3.org/2000/svg" version="1.1" viewBox="492.87 229.16 514.67 1042.21">
<path d="M0 0 C495 0 990 0 1500 0 C1500 495 1500 990 1500 1500 C1005 1500 510 1500 0 1500 C0 1005 0 510 0 0 Z " fill="none" transform="translate(0,0)" />
<path d="M0 0 C15.943125 -0.0825 31.88625 -0.165 48.3125 -0.25 C53.26677002 -0.28641602 58.22104004 -0.32283203 63.32543945 -0.36035156 C87.84052008 -0.46427303 111.74705937 0.24485481 136 4 C137.06648773 4.165 138.13297546 4.33 139.23178101 4.5 C160.85700458 7.9304103 181.39282695 14.25602849 201 24 C201.7645752 24.37415039 202.52915039 24.74830078 203.31689453 25.13378906 C217.16304606 31.95756145 228.76723913 40.3494249 240 51 C240.474375 51.44182617 240.94875 51.88365234 241.4375 52.33886719 C249.46186372 59.84603559 255.95412571 67.83823553 262 77 C263.03060547 78.52173828 263.03060547 78.52173828 264.08203125 80.07421875 C279.31842604 103.54487819 286.77681418 130.75194599 291.34375 158.07421875 C291.7417349 160.45502128 292.15431959 162.83352886 292.59375 165.20703125 C295.3105587 180.12950256 295.15074373 195.20484496 295.1328125 210.31640625 C295.13348814 212.34651196 295.13446032 214.37661759 295.13571167 216.40672302 C295.13717609 220.63663513 295.1350746 224.86652594 295.13037109 229.09643555 C295.12467092 234.48106103 295.1279627 239.86563668 295.13394356 245.25026035 C295.13758014 249.43446723 295.1363965 253.61866255 295.13381577 257.8028698 C295.13315523 259.7869257 295.13394385 261.77098269 295.13629532 263.75503731 C295.15930501 288.61356858 292.84488698 312.55844604 286.59228516 336.67089844 C286.06193534 338.75644554 285.57402058 340.84520593 285.10546875 342.9453125 C279.93366454 364.81330656 268.3380346 385.816588 254 403 C252.83017578 404.41732422 252.83017578 404.41732422 251.63671875 405.86328125 C237.96887623 421.67860803 219.99217892 432.7274963 201 441 C201 441.99 201 442.98 201 444 C202.06476563 444.42410156 203.12953125 444.84820313 204.2265625 445.28515625 C236.48352803 458.25599356 260.93889374 476.67114987 280 506 C280.65097656 506.99902344 281.30195312 507.99804688 281.97265625 509.02734375 C292.69321721 526.43909765 300.06532249 547.20716448 303.359375 567.3515625 C303.92450977 570.57007395 304.68613277 573.67751504 305.50048828 576.83935547 C306.44708824 580.93388608 306.98692342 585.09001265 307.5625 589.25 C307.68818359 590.11496094 307.81386719 590.97992187 307.94335938 591.87109375 C309.50784338 602.96172905 310.14898938 613.93708821 310.12939453 625.13378906 C310.13202301 627.01444313 310.13202301 627.01444313 310.13470459 628.93309021 C310.13832347 632.33625968 310.13751443 635.73936744 310.1343255 639.1425333 C310.13176764 642.73180274 310.13414909 646.3210698 310.13571167 649.91033936 C310.13752439 655.93876612 310.13515167 661.96718058 310.13037109 667.99560547 C310.12494012 674.92332965 310.12668629 681.85102434 310.1321975 688.7787478 C310.13676618 694.76560472 310.13736067 700.75245287 310.13475883 706.73931098 C310.13321528 710.297691 310.13294841 713.85605726 310.13629532 717.41443634 C310.15106237 735.63513894 310.13427674 753.59008045 307.25 771.625 C307.075896 772.7289209 306.90179199 773.8328418 306.72241211 774.97021484 C301.25118154 808.56853344 291.19246036 841.16615154 271 869 C270.61150879 869.53657227 270.22301758 870.07314453 269.82275391 870.62597656 C259.20815281 885.12131926 246.64320834 897.59612688 232 908 C231.14277344 908.61746094 230.28554688 909.23492188 229.40234375 909.87109375 C225.39473914 912.66102885 221.79184165 914.77132265 217 916 C217 916.66 217 917.32 217 918 C212.51319241 921.29032557 207.15072536 923.01214193 202 925 C201.13375 925.36996094 200.2675 925.73992188 199.375 926.12109375 C197 927 197 927 194 927 C194 927.66 194 928.32 194 929 C188.54873741 931.23891142 183.86809507 932.47606294 178 933 C178 933.66 178 934.32 178 935 C174.15198167 935.84670171 170.29928058 936.6696864 166.44384766 937.48193359 C164.72912499 937.84543424 163.01533096 938.21333011 161.30224609 938.58447266 C158.28731341 939.23523263 155.2689944 939.86837233 152.25 940.5 C151.33162354 940.70133545 150.41324707 940.9026709 149.46704102 941.11010742 C128.46749968 945.44064399 107.33925812 946.43890821 85.9609375 946.29296875 C83.48703269 946.28735212 81.01312447 946.28309185 78.53921509 946.28010559 C72.12463664 946.26881921 65.71027208 946.23949786 59.29577637 946.20599365 C52.71153657 946.17493688 46.12726116 946.1615253 39.54296875 946.14648438 C26.69522287 946.11460751 13.84762297 946.06421772 1 946 C0.9766715 928.67622648 0.95902107 911.35245784 0.94818783 894.02867222 C0.94302477 885.98549946 0.93598188 877.94233643 0.92456055 869.89916992 C0.91461402 862.8912704 0.90814665 855.88337792 0.90591151 848.87547153 C0.90460434 845.16256808 0.90151816 841.4496848 0.89426994 837.7367878 C0.88625668 833.59868589 0.88600884 829.46061939 0.88647461 825.32250977 C0.88287933 824.08245682 0.87928406 822.84240387 0.87557983 821.56477356 C0.8769545 820.44431641 0.87832916 819.32385925 0.87974548 818.16944885 C0.87882369 817.18958291 0.8779019 816.20971697 0.87695217 815.20015812 C1 813 1 813 2 812 C5.00020523 811.89057348 7.97822821 811.84576025 10.97924805 811.84228516 C12.39414017 811.83466408 12.39414017 811.83466408 13.83761597 811.82688904 C15.89580532 811.81615523 17.95400657 811.80754697 20.01221275 811.80076981 C23.2800799 811.78899635 26.54781394 811.76954156 29.81562805 811.74765015 C39.11084483 811.68602395 48.40605247 811.63221527 57.70141602 811.59863281 C63.3826137 811.57755338 69.06357616 811.54213066 74.74463844 811.49787521 C76.90171325 811.48380359 79.05882976 811.47501297 81.2159481 811.47182083 C95.95766513 811.44772338 109.32762553 810.91012434 123.01171875 804.76953125 C125 804 125 804 128 804 C128 803.34 128 802.68 128 802 C129.6875 800.7734375 129.6875 800.7734375 132 799.375 C148.11645528 788.80724607 153.77245003 773.00623135 158 755 C158.17821289 754.32420898 158.35642578 753.64841797 158.54003906 752.95214844 C162.37945918 737.62982174 161.1633686 721.04457074 161.16796875 705.3828125 C161.17118841 702.79556256 161.174553 700.2083128 161.17805481 697.62106323 C161.18401745 692.21660868 161.18594084 686.81217202 161.18530273 681.40771484 C161.18470236 675.20360209 161.19525877 668.99957637 161.2110464 662.79548562 C161.22581098 656.77377286 161.2292878 650.75210661 161.22869301 644.73037338 C161.22986428 642.19254068 161.23423748 639.65470716 161.24202538 637.11688614 C161.27876693 623.91180695 161.14387404 611.05160503 159 598 C158.74988076 596.28406074 158.50083409 594.56796392 158.25390625 592.8515625 C154.57828504 569.79182057 146.34187781 550.16995136 127.33203125 535.63671875 C124.05250879 533.33501036 120.66529466 531.59595856 117 530 C115.96101562 529.51273438 114.92203125 529.02546875 113.8515625 528.5234375 C109.53122961 526.67991158 105.09312354 525.78201492 100.5 524.875 C99.68402344 524.70613281 98.86804688 524.53726563 98.02734375 524.36328125 C90.49467283 522.82772875 83.18213462 521.85291198 75.49438477 521.79467773 C74.66091743 521.78464501 73.82745008 521.77461229 72.96872616 521.76427555 C70.29298034 521.73310109 67.61721959 521.70820701 64.94140625 521.68359375 C63.28055359 521.66517085 61.61970549 521.64633315 59.9588623 521.6270752 C53.82679531 521.55886423 47.69464137 521.49866023 41.5625 521.4375 C27.846875 521.293125 14.13125 521.14875 0 521 C0 476.45 0 431.9 0 386 C21.45 385.67 42.9 385.34 65 385 C89.05894702 382.5941053 110.96499514 378.3687197 127.1875 359.375 C144.03603291 337.09145648 146.49531424 309.09805035 146.3984375 282.1171875 C146.40046713 280.08138933 146.40338586 278.04559187 146.40713501 276.00979614 C146.41151465 271.77940835 146.40526869 267.54921279 146.39111328 263.31884766 C146.3740021 257.9491951 146.3839031 252.57999202 146.40183067 247.21035576 C146.41276883 243.01824674 146.40917703 238.82624102 146.4014473 234.63412857 C146.39947402 232.65616932 146.40180095 230.67820008 146.40888596 228.70025253 C146.47756334 204.15930477 143.65841086 173.37921439 125.7421875 154.54296875 C110.56543079 141.10167076 93.38084443 135.9509663 73.45092773 135.79467773 C72.23010168 135.77962865 72.23010168 135.77962865 70.98461246 135.76427555 C68.38430056 135.73322194 65.78397323 135.70825816 63.18359375 135.68359375 C61.56448915 135.66515963 59.9453891 135.64632139 58.32629395 135.6270752 C52.36341639 135.5589997 46.40045199 135.49870953 40.4375 135.4375 C27.093125 135.293125 13.74875 135.14875 0 135 C0 90.45 0 45.9 0 0 Z " fill="#4C4FA1" transform="translate(674,277)" />
<path d="M0 0 C42.9 0 85.8 0 130 0 C130 104.94 130 209.88 130 318 C87.1 318 44.2 318 0 318 C0 213.06 0 108.12 0 0 Z " fill="#3D4099" transform="translate(523,277)" />
<path d="M0 0 C2.31227981 0.02383794 4.62341717 0.0205012 6.93579102 0.01391602 C14.29785616 0.02724325 21.39612731 0.12532578 28.48461914 2.33618164 C29.68086914 2.69196289 30.87711914 3.04774414 32.10961914 3.41430664 C45.02186453 7.89772518 56.733154 14.71216057 63.35961914 27.21118164 C68.68798858 39.19540357 71.07068239 52.68830195 66.48461914 65.33618164 C66.17782227 66.25915039 65.87102539 67.18211914 65.55493164 68.13305664 C61.26407875 79.79233967 53.30930426 88.30022635 42.48461914 94.33618164 C38.22410022 96.24554411 33.91936219 97.87975311 29.48461914 99.33618164 C28.45304688 99.68076416 27.42147461 100.02534668 26.35864258 100.38037109 C21.90902299 101.47819443 17.88481569 101.65969257 13.32446289 101.67211914 C12.45753311 101.67877594 11.59060333 101.68543274 10.69740295 101.69229126 C8.86778874 101.7023754 7.03813807 101.7071096 5.20849609 101.70678711 C2.45419093 101.71113106 -0.29847098 101.74741392 -3.05249023 101.78540039 C-20.60325372 101.89899372 -37.70474754 98.42416744 -51.03100586 85.98852539 C-61.12596374 74.75124333 -65.24637196 61.31302734 -64.82397461 46.43774414 C-64.17028024 34.81229159 -59.22651645 24.12041976 -51.07397461 15.86352539 C-36.22431582 2.9160063 -19.0773559 -0.21013449 0 0 Z " fill="#FDFEFE" transform="translate(581.515380859375,914.663818359375)" />
<path d="M0 0 C9.46955676 4.78602478 15.17926296 11.17732051 19.15698242 20.90063477 C23.21215744 41.17650987 21.15698242 62.22321821 21.15698242 82.90063477 C-21.41301758 82.90063477 -63.98301758 82.90063477 -107.84301758 82.90063477 C-107.84301758 20.90338807 -107.84301758 20.90338807 -97.46801758 10.02563477 C-89.30086281 2.51880315 -79.33775902 2.32920873 -68.72973633 2.56469727 C-61.17237765 3.21789611 -56.91021102 6.49882662 -51.90551758 11.96313477 C-49.79584984 14.48176883 -48.21878756 16.91647669 -46.84301758 19.90063477 C-46.31514648 18.93963867 -46.31514648 18.93963867 -45.77661133 17.95922852 C-36.29240635 1.34329759 -18.94377313 -8.35600681 0 0 Z " fill="#4CB1D1" transform="translate(626.843017578125,1141.099365234375)" />
<path d="M0 0 C42.57 0 85.14 0 129 0 C129 11 129 11 126.359375 13.98046875 C125.18094829 14.7550919 123.97549146 15.48971693 122.75 16.1875 C122.11465332 16.59274902 121.47930664 16.99799805 120.82470703 17.41552734 C119.52280817 18.24329991 118.21097932 19.05566345 116.88964844 19.85205078 C114.15320111 21.51442485 111.52176572 23.32421643 108.875 25.125 C106.91738042 26.41774817 104.95897333 27.70930417 103 29 C94.35473367 34.73187459 85.76649077 40.54443793 77.1875 46.375 C58.51663364 59.00329506 39.75484713 71.49676858 21 84 C56.64 84.33 92.28 84.66 129 85 C129 88.96 129 92.92 129 97 C86.43 97 43.86 97 0 97 C0 85 0 85 3.43115234 81.47436523 C4.99834279 80.48090153 6.59429667 79.53187829 8.2109375 78.62109375 C9.97030151 77.52810592 11.72907105 76.43416073 13.48730469 75.33935547 C14.40120972 74.79059753 15.31511475 74.2418396 16.25671387 73.67645264 C20.6453634 70.99450014 24.86132773 68.06877246 29.1015625 65.16015625 C30.82881846 63.99219129 32.55718743 62.82587077 34.28662109 61.66113281 C35.1582489 61.07352173 36.02987671 60.48591064 36.92791748 59.88049316 C37.81795471 59.28055542 38.70799194 58.68061768 39.625 58.0625 C40.5467804 57.44080933 41.46856079 56.81911865 42.41827393 56.17858887 C56.34892544 46.78403478 70.30573682 37.42969776 84.30712891 28.14086914 C84.93637268 27.72279495 85.56561646 27.30472076 86.21392822 26.87397766 C87.86770191 25.77533408 89.52242494 24.67811989 91.17724609 23.58105469 C96.81947758 19.77152146 102.40260882 15.87511697 108 12 C72.36 11.67 36.72 11.34 0 11 C0 7.37 0 3.74 0 0 Z " fill="#50B2D2" transform="translate(519,791)" />
<path d="M0 0 C2.21603668 0.01612374 4.4302574 0.00003714 6.64624023 -0.01904297 C18.31997854 -0.03839903 28.86936229 1.6404139 39.33959961 7.01611328 C40.01885498 7.36383789 40.69811035 7.7115625 41.39794922 8.06982422 C53.22409999 14.40612008 61.03100753 24.99014583 65.02709961 37.76611328 C69.80548534 55.36750881 67.15209961 72.69008012 67.15209961 91.39111328 C24.58209961 91.39111328 -17.98790039 91.39111328 -61.84790039 91.39111328 C-61.84790039 31.51196505 -61.84790039 31.51196505 -47.78540039 16.51611328 C-33.84475461 3.58621199 -18.64473958 -0.16099742 0 0 Z M-43.09790039 26.25830078 C-56.13540237 42.14775632 -52.84790039 59.68214547 -52.84790039 80.39111328 C-16.54790039 80.39111328 19.75209961 80.39111328 57.15209961 80.39111328 C59.07056766 49.61833611 59.07056766 49.61833611 47.15209961 25.39111328 C34.4367726 13.52485534 20.7003513 10.84854392 3.73144531 11 C1.58781611 11.0161267 -0.5539361 11.00003276 -2.69750977 10.98095703 C-18.69004486 10.95530474 -31.84664723 14.32652828 -43.09790039 26.25830078 Z " fill="#4EB1D1" transform="translate(580.847900390625,666.60888671875)" />
<path d="M0 0 C2.31227981 0.02383794 4.62341717 0.0205012 6.93579102 0.01391602 C14.29785616 0.02724325 21.39612731 0.12532578 28.48461914 2.33618164 C29.68086914 2.69196289 30.87711914 3.04774414 32.10961914 3.41430664 C45.02186453 7.89772518 56.733154 14.71216057 63.35961914 27.21118164 C68.68798858 39.19540357 71.07068239 52.68830195 66.48461914 65.33618164 C66.17782227 66.25915039 65.87102539 67.18211914 65.55493164 68.13305664 C61.26407875 79.79233967 53.30930426 88.30022635 42.48461914 94.33618164 C38.22410022 96.24554411 33.91936219 97.87975311 29.48461914 99.33618164 C28.45304688 99.68076416 27.42147461 100.02534668 26.35864258 100.38037109 C21.90902299 101.47819443 17.88481569 101.65969257 13.32446289 101.67211914 C12.45753311 101.67877594 11.59060333 101.68543274 10.69740295 101.69229126 C8.86778874 101.7023754 7.03813807 101.7071096 5.20849609 101.70678711 C2.45419093 101.71113106 -0.29847098 101.74741392 -3.05249023 101.78540039 C-20.60325372 101.89899372 -37.70474754 98.42416744 -51.03100586 85.98852539 C-61.12596374 74.75124333 -65.24637196 61.31302734 -64.82397461 46.43774414 C-64.17028024 34.81229159 -59.22651645 24.12041976 -51.07397461 15.86352539 C-36.22431582 2.9160063 -19.0773559 -0.21013449 0 0 Z M-45.07788086 24.21118164 C-54.38586625 34.49790369 -55.24716104 44.92221858 -54.68139648 58.22045898 C-53.94509029 67.60403178 -48.1772197 74.13758325 -41.51538086 80.33618164 C-36.40712782 84.41108579 -30.79788055 86.68188568 -24.51538086 88.33618164 C-23.25725586 88.68680664 -21.99913086 89.03743164 -20.70288086 89.39868164 C-13.87375116 90.88358031 -6.90602619 90.68522024 0.04711914 90.64868164 C0.75982971 90.64685883 1.47254028 90.64503601 2.20684814 90.64315796 C19.91156153 90.56667918 35.87037996 89.30974513 49.43774414 76.65649414 C58.25418319 66.66228652 59.18826514 56.20774919 58.65063477 43.46801758 C57.91885525 34.07110762 52.14949425 27.54788945 45.48461914 21.33618164 C40.60534416 17.37591574 35.53065222 15.50094147 29.48852539 13.91430664 C27.48461914 13.33618164 27.48461914 13.33618164 26.48461914 12.33618164 C21.01185605 11.4831022 15.67627085 11.17678693 10.14477539 11.16821289 C9.37838242 11.16488449 8.61198944 11.16155609 7.82237244 11.15812683 C6.21313063 11.15309971 4.60387856 11.15071719 2.99462891 11.15087891 C0.55687035 11.14869039 -1.8804363 11.13048423 -4.31811523 11.11157227 C-19.43836551 11.05390312 -33.62977582 13.37017308 -45.07788086 24.21118164 Z " fill="#4EB1D1" transform="translate(581.515380859375,914.663818359375)" />
<path d="M0 0 C2.43980362 0.01829304 4.87922656 0.02050886 7.3190918 0.02026367 C8.89266274 0.02517936 10.46623114 0.0310079 12.03979492 0.0378418 C13.11669334 0.03951103 13.11669334 0.03951103 14.21534729 0.04121399 C22.08631414 0.11387507 29.13626396 1.03517583 36.37963867 4.20581055 C37.1865918 4.54483398 37.99354492 4.88385742 38.82495117 5.2331543 C49.17322408 9.93259933 55.06301588 16.77551598 59.37963867 27.20581055 C62.22341554 35.73714115 61.60483903 48.04103073 57.63354492 56.1081543 C51.0255266 67.16268962 42.84982321 73.702586 30.37963867 77.20581055 C21.81650539 79.13672097 13.31991604 79.54945103 4.5715332 79.52148438 C2.51353873 79.51832421 0.45698827 79.54188786 -1.60083008 79.56713867 C-16.98204688 79.64168433 -31.35654777 77.20434172 -42.99536133 66.45581055 C-51.49287336 57.39994043 -53.00558677 47.59537795 -52.83129883 35.67456055 C-52.47202736 24.95851272 -47.57112245 17.76526731 -39.93286133 10.51831055 C-28.21849389 0.72653013 -14.57090502 -0.1130438 0 0 Z M-25.62036133 15.20581055 C-25.50176758 15.8090918 -25.38317383 16.41237305 -25.26098633 17.03393555 C-24.21948987 23.4912136 -24.21948987 23.4912136 -26.05786133 26.76831055 C-29.7486443 28.83874978 -32.42322362 28.48561973 -36.62036133 28.20581055 C-39.8901538 35.38627482 -39.70046644 43.14689911 -36.99536133 50.51831055 C-33.43669752 58.22874881 -29.079082 62.43126255 -21.47583008 66.1628418 C-13.04125864 69.24359498 -4.98732201 69.51452481 3.94213867 69.45581055 C5.12227539 69.46354492 6.30241211 69.4712793 7.51831055 69.47924805 C13.82506805 69.46513107 19.3492777 69.0842419 25.37963867 67.20581055 C25.41702148 66.59092773 25.4544043 65.97604492 25.49291992 65.3425293 C25.55866211 64.53428711 25.6244043 63.72604492 25.69213867 62.89331055 C25.75014648 62.09280273 25.8081543 61.29229492 25.86791992 60.4675293 C26.47265924 57.79467382 27.20323955 56.83681132 29.37963867 55.20581055 C33.59248504 54.74789246 36.56755774 55.41189011 40.37963867 57.20581055 C44.89114152 51.87403445 45.65748362 46.55566664 45.62963867 39.70581055 C45.63479492 38.43737305 45.63995117 37.16893555 45.64526367 35.86206055 C45.12477424 28.69767662 42.5064716 23.18389591 37.37963867 18.20581055 C19.8295238 6.57405558 -6.642294 7.18199532 -25.62036133 15.20581055 Z " fill="#F9FCFD" transform="translate(579.620361328125,925.794189453125)" />
<path d="M0 0 C6.87685503 4.98635429 10.25521182 11.29388028 12.1171875 19.53515625 C12.75527917 26.40534575 12.49334999 33.33479856 12.3671875 40.22265625 C12.2846875 46.59578125 12.2021875 52.96890625 12.1171875 59.53515625 C-5.3728125 59.53515625 -22.8628125 59.53515625 -40.8828125 59.53515625 C-40.9446875 52.77015625 -41.0065625 46.00515625 -41.0703125 39.03515625 C-41.09762451 36.91529297 -41.12493652 34.79542969 -41.15307617 32.61132812 C-41.16184771 30.90885994 -41.16949006 29.20638541 -41.17578125 27.50390625 C-41.19112915 26.63797852 -41.20647705 25.77205078 -41.22229004 24.87988281 C-41.22577246 16.69851605 -39.09854102 10.01957549 -33.8828125 3.53515625 C-24.25169572 -4.94419811 -11.44902157 -6.73803073 0 0 Z " fill="#FCFDFE" transform="translate(626.8828125,1153.46484375)" />
<path d="M0 0 C5.91162265 3.18403781 9.41597197 8.34873805 11.58984375 14.609375 C13.87104349 22.57302273 13.25025733 30.92304647 13.125 39.125 C13.063125 44.85875 13.00125 50.5925 12.9375 56.5 C-3.2325 56.5 -19.4025 56.5 -36.0625 56.5 C-36.145 50.456875 -36.2275 44.41375 -36.3125 38.1875 C-36.34891602 36.30377686 -36.38533203 34.42005371 -36.42285156 32.47924805 C-36.5384627 22.22089561 -36.4489119 12.76369428 -29.5625 4.5 C-28.7375 3.84 -27.9125 3.18 -27.0625 2.5 C-26.36125 1.9225 -25.66 1.345 -24.9375 0.75 C-18.57936878 -3.48875415 -6.9267265 -2.68780669 0 0 Z " fill="#FCFDFE" transform="translate(564.0625,1156.5)" />
<path d="M0 0 C3.66095826 1.38289079 7.01704575 3.02896063 10.4296875 4.94140625 C11.46448242 5.52035645 12.49927734 6.09930664 13.56542969 6.69580078 C14.65758789 7.31181152 15.74974609 7.92782227 16.875 8.5625 C18.00325195 9.19655762 19.13150391 9.83061523 20.29394531 10.48388672 C26.73864114 14.11885799 33.13692436 17.81221348 39.45410156 21.6640625 C45.6105352 25.40695317 51.87918733 28.95105291 58.15527344 32.48876953 C58.98317383 32.95782715 59.81107422 33.42688477 60.6640625 33.91015625 C61.53426025 34.38984863 62.40445801 34.86954102 63.30102539 35.36376953 C66 37 66 37 68.63452148 39.11669922 C79.58233149 47.38952459 91.64261543 46.11676908 104.8125 46 C107.16212462 46.00810383 109.51173976 46.01979199 111.86132812 46.03515625 C117.57494717 46.06479529 123.2865082 46.04582249 129 46 C129 49.63 129 53.26 129 57 C126.89298706 56.95117676 126.89298706 56.95117676 124.7434082 56.90136719 C119.42568592 56.7947482 114.10996343 56.77031771 108.79125977 56.76806641 C106.50946867 56.75621627 104.22766966 56.72340446 101.9465332 56.66748047 C85.14413917 56.27543694 74.06847982 59.02109095 60.15914917 68.53839111 C57.30652789 70.46943722 54.36659881 72.15415832 51.3671875 73.84765625 C49.53593577 74.9183776 47.70519272 75.98996948 45.875 77.0625 C43.85430381 78.24372422 41.83346867 79.42471077 39.8125 80.60546875 C38.34876953 81.46084229 38.34876953 81.46084229 36.85546875 82.33349609 C30.29332407 86.16328402 23.71780928 89.96996602 17.13671875 93.76708984 C15.70664107 94.59226035 14.27695629 95.41811216 12.84765625 96.24462891 C10.85808874 97.39455817 8.86686018 98.54154777 6.875 99.6875 C5.75867188 100.33074219 4.64234375 100.97398438 3.4921875 101.63671875 C1 103 1 103 0 103 C0 98.71 0 94.42 0 90 C1.03253906 89.42894531 2.06507813 88.85789062 3.12890625 88.26953125 C12.71010632 82.96248904 22.25801157 77.59966173 31.78588867 72.19750977 C37.32161603 69.06401841 42.86977622 65.9543449 48.43359375 62.87109375 C49.05477585 62.52677811 49.67595795 62.18246246 50.31596375 61.82771301 C53.36921942 60.13607766 56.42387846 58.44703123 59.48022461 56.76098633 C60.57729736 56.15407959 61.67437012 55.54717285 62.8046875 54.921875 C63.78421387 54.38143555 64.76374023 53.84099609 65.77294922 53.28417969 C67.9012195 52.18522798 67.9012195 52.18522798 69 51 C67.97003906 50.46632813 66.94007813 49.93265625 65.87890625 49.3828125 C57.65001273 45.08922207 49.56431197 40.63271572 41.59448242 35.87573242 C36.92736726 33.10211733 32.21256643 30.43784897 27.44555664 27.83959961 C24.9071337 26.45502719 22.37936697 25.0522784 19.8515625 23.6484375 C16.73566399 21.92482817 13.59546416 20.29394943 10.3984375 18.7265625 C6.54680185 16.76134344 3.20534218 14.93466884 0 12 C-1.2120031 7.73993805 -0.97968612 4.28884814 0 0 Z " fill="#4DB1D1" transform="translate(519,1028)" />
<path d="M0 0 C2.11979503 0.0160886 4.23768436 0.00007585 6.35742188 -0.01904297 C18.20613076 -0.03819614 28.68361857 1.78274465 38.12304688 9.39111328 C45.70524223 18.24160314 46.95406773 26.02163324 46.37158203 37.34912109 C45.80111429 42.03614685 43.43406036 46.0800998 40.12304688 49.39111328 C40.01992188 50.48423828 39.91679688 51.57736328 39.81054688 52.70361328 C39.04803626 56.79344296 38.4848986 58.02873099 35.12304688 60.39111328 C30.77811836 61.61902786 27.50639644 61.13721534 23.12304688 60.39111328 C22.01896484 60.61468506 22.01896484 60.61468506 20.89257812 60.84277344 C15.46672548 61.91703869 9.87745263 61.69645876 4.36083984 61.74121094 C2.88313928 61.75765491 1.40551436 61.78478988 -0.07177734 61.82324219 C-10.18451306 62.0841721 -18.81964794 61.48675318 -27.87695312 56.39111328 C-28.53695312 55.40111328 -29.19695313 54.41111328 -29.87695312 53.39111328 C-29.23757813 53.65923828 -28.59820313 53.92736328 -27.93945312 54.20361328 C-20.22452916 57.19511441 -13.11079322 59.5149936 -4.76367188 59.52392578 C-3.01473633 59.52585937 -3.01473633 59.52585937 -1.23046875 59.52783203 C0.58420898 59.52203125 0.58420898 59.52203125 2.43554688 59.51611328 C3.63373047 59.51998047 4.83191406 59.52384766 6.06640625 59.52783203 C12.18000341 59.52109529 18.08042943 59.33691427 24.12304688 58.39111328 C24.07664062 57.78783203 24.03023437 57.18455078 23.98242188 56.56298828 C23.68941241 50.07492148 23.68941241 50.07492148 25.74804688 46.82861328 C28.82248624 44.96776841 30.57521854 44.95668532 34.12304688 45.39111328 C36.99804688 46.39111328 36.99804688 46.39111328 39.12304688 47.39111328 C43.75159274 39.7664105 43.95028303 32.13480703 43.12304688 23.39111328 C41.35939083 17.0890837 39.05718882 12.31060435 33.51367188 8.68408203 C16.61779537 -0.31100248 -3.77966259 0.54003401 -21.87695312 5.39111328 C-23.54105021 5.73704651 -25.20695032 6.0749179 -26.87695312 6.39111328 C-20.32289303 -0.99771078 -9.09111512 -0.08199664 0 0 Z " fill="#5CB7D5" transform="translate(580.876953125,934.60888671875)" />
<path d="M0 0 C1.98828125 0.6875 1.98828125 0.6875 3.98828125 3.6875 C4.42578125 6.5625 4.42578125 6.5625 3.98828125 9.6875 C1.86328125 12.5625 1.86328125 12.5625 -1.01171875 14.6875 C-4.21524174 15.06438506 -6.12310166 15.13180855 -9.01171875 13.6875 C-11.3868293 24.28860319 -10.49032211 33.62069526 -4.6328125 42.86328125 C-3.47600758 44.50785576 -2.25091574 46.10408162 -1.01171875 47.6875 C-4.64500492 46.23733806 -6.12913452 44.46557683 -8.19921875 41.1875 C-8.70839844 40.3934375 -9.21757813 39.599375 -9.7421875 38.78125 C-12.26144963 34.62640539 -12.16073411 31.20054674 -12.13671875 26.4375 C-12.14058594 25.68597656 -12.14445313 24.93445313 -12.1484375 24.16015625 C-12.1425635 20.79435667 -12.01275123 17.69368764 -11.45703125 14.36328125 C-10.81897209 11.5313665 -10.81897209 11.5313665 -11.76171875 8.125 C-12.01171875 4.6875 -12.01171875 4.6875 -10.13671875 1.6875 C-6.30378936 -0.76557481 -4.37250836 -0.58790028 0 0 Z " fill="#59B6D4" transform="translate(552.01171875,940.3125)" />
<path d="M0 0 C2.11979503 0.0160886 4.23768436 0.00007585 6.35742188 -0.01904297 C18.20613076 -0.03819614 28.68361857 1.78274465 38.12304688 9.39111328 C45.71118817 18.24854366 46.94861236 26.01602186 46.35839844 37.34912109 C45.86701362 41.61254706 44.17580238 45.37049205 41.12304688 48.39111328 C38.95117188 49.10986328 38.95117188 49.10986328 37.12304688 49.39111328 C37.74179687 48.68986328 38.36054687 47.98861328 38.99804688 47.26611328 C42.8470321 42.05866269 43.39897922 37.27047031 43.37304688 30.89111328 C43.37820313 29.62267578 43.38335938 28.35423828 43.38867188 27.04736328 C42.92146665 20.6164208 40.81653858 14.93155635 36.12304688 10.39111328 C22.16060725 1.25700233 4.00722162 0.24642273 -12.16992188 3.03173828 C-15.4361368 3.73385403 -18.65084971 4.52633834 -21.87695312 5.39111328 C-23.54105021 5.73704651 -25.20695032 6.0749179 -26.87695312 6.39111328 C-20.32289303 -0.99771078 -9.09111512 -0.08199664 0 0 Z " fill="#86CAE0" transform="translate(580.876953125,934.60888671875)" />
<path d="M0 0 C3.63645213 5.45467819 2.7894332 13.58949585 2 20 C0.89184915 23.48780546 -0.37922886 26.40681592 -3 29 C-5.171875 29.71875 -5.171875 29.71875 -7 30 C-6.38125 29.29875 -5.7625 28.5975 -5.125 27.875 C-0.82607096 22.05880189 -0.75376545 16.63043876 -0.9375 9.6875 C-0.9988138 6.78758433 -1.02074564 3.90142591 -1 1 C-0.67 0.67 -0.34 0.34 0 0 Z " fill="#82C8DE" transform="translate(625,954)" />
<path d="M0 0 C2.55694972 3.83542457 2.04045639 5.65902533 1.625 10.1875 C1.51414062 11.45980469 1.40328125 12.73210938 1.2890625 14.04296875 C1.19367187 15.01878906 1.09828125 15.99460937 1 17 C0.67 17 0.34 17 0 17 C-0.19386492 14.35448944 -0.38038267 11.70882217 -0.5625 9.0625 C-0.61857422 8.30775391 -0.67464844 7.55300781 -0.73242188 6.77539062 C-0.86176157 4.85254042 -0.93516912 2.92610452 -1 1 C-0.67 0.67 -0.34 0.34 0 0 Z " fill="#A9D9E9" transform="translate(625,954)" />
</svg>