<?xml version='1.0' encoding='utf-8'?>
<svg xmlns="http://www.w3.org/2000/svg" version="1.1" viewBox="251.12 248.23 998.33 984.96">
<path d="M0 0 C495 0 990 0 1500 0 C1500 495 1500 990 1500 1500 C1005 1500 510 1500 0 1500 C0 1005 0 510 0 0 Z " fill="none" transform="translate(0,0)" />
<path d="M0 0 C2.85399249 0.01939236 5.70792296 0.02317987 8.56197262 0.02671432 C12.00110176 0.03185597 15.440174 0.04632372 18.87927246 0.06115723 C20.77587868 0.06753204 20.77587868 0.06753204 22.71080017 0.07403564 C24.4666317 0.08844696 24.4666317 0.08844696 26.25793457 0.10314941 C27.28156601 0.10997742 28.30519745 0.11680542 29.35984802 0.12384033 C32.06349303 0.25922778 34.5265549 0.67817307 37.16442871 1.26428223 C38.56573758 1.39931863 39.96991274 1.5072487 41.37536621 1.58850098 C57.93178583 2.72035446 73.96118983 5.85142611 90.16442871 9.26428223 C91.12171875 9.4586084 92.07900879 9.65293457 93.06530762 9.85314941 C154.67654466 22.43351523 215.44038251 53.70938582 263.16442871 94.26428223 C264.24638977 95.17191799 265.32842547 96.07946477 266.41052246 96.98693848 C281.87794137 110.03198603 297.05511963 123.81971161 310.16442871 139.26428223 C311.07753445 140.31459394 311.99169046 141.36399305 312.90661621 142.41271973 C366.08833785 203.56525073 400.48597259 279.50811785 411.41442871 359.76428223 C411.57765625 360.95537598 411.74088379 362.14646973 411.90905762 363.37365723 C416.53391243 399.15102185 417.23846986 438.67574308 411.16442871 474.26428223 C410.98980103 475.30210846 410.98980103 475.30210846 410.81164551 476.36090088 C403.9268548 517.13944984 392.90317843 555.80333609 375.16442871 593.26428223 C374.70101074 594.25009277 374.23759277 595.23590332 373.76013184 596.25158691 C356.16342554 633.38812003 332.80213574 666.72615194 305.17224121 697.02990723 C303.30309186 699.10997227 301.51015158 701.23563142 299.72692871 703.38928223 C298.88130371 704.33803223 298.03567871 705.28678223 297.16442871 706.26428223 C296.50442871 706.26428223 295.84442871 706.26428223 295.16442871 706.26428223 C294.89888184 706.8595874 294.63333496 707.45489258 294.35974121 708.0682373 C293.12946713 710.32851413 291.92660983 711.67044492 290.03942871 713.40100098 C289.42059814 713.97358643 288.80176758 714.54617188 288.16418457 715.1361084 C287.50426514 715.73528076 286.8443457 716.33445312 286.16442871 716.95178223 C285.14457886 717.88824585 285.14457886 717.88824585 284.10412598 718.84362793 C282.74398899 720.09064844 281.38148406 721.33509173 280.01647949 722.57678223 C278.48316987 723.97386054 276.96097752 725.38312924 275.44177246 726.79553223 C269.20932785 732.53895364 262.60814882 737.74777344 255.90075684 742.91760254 C254.2955515 744.16258463 252.70581034 745.42743688 251.11755371 746.69396973 C234.54700557 759.78727849 216.50757457 770.85215305 198.16442871 781.26428223 C197.43336914 781.68016602 196.70230957 782.0960498 195.94909668 782.52453613 C175.36923343 794.11314986 153.40655484 802.60800021 131.11022949 810.24963379 C128.71252569 811.0754963 126.32502618 811.9214097 123.94177246 812.78771973 C99.88267023 821.30469616 73.50242396 826.46502815 48.16442871 829.26428223 C47.47148712 829.34597153 46.77854553 829.42766083 46.06460571 829.51182556 C31.60539968 831.19947396 17.26066495 831.60612573 2.71032715 831.57995605 C-0.93548767 831.57680391 -4.58048131 831.60033379 -8.22619629 831.62561035 C-29.61031302 831.68356725 -50.66630339 829.68870075 -71.71057129 825.88928223 C-72.91125244 825.67650635 -74.11193359 825.46373047 -75.34899902 825.24450684 C-111.29577469 818.728989 -145.97960998 807.21562901 -178.83557129 791.26428223 C-180.17337646 790.6220874 -180.17337646 790.6220874 -181.53820801 789.96691895 C-208.44016055 777.02150612 -233.50798435 760.89656085 -256.83557129 742.26428223 C-257.36956543 741.84066406 -257.90355957 741.4170459 -258.45373535 740.98059082 C-264.23488372 736.38288191 -269.80228654 731.58367739 -275.25354004 726.60021973 C-276.67654046 725.31284567 -278.10607785 724.0321736 -279.56237793 722.78259277 C-285.26735374 717.88248615 -290.59377721 712.65505955 -295.89807129 707.32678223 C-296.75723145 706.47148926 -297.6163916 705.61619629 -298.50158691 704.73498535 C-303.48853104 699.74042175 -308.26127037 694.63804635 -312.83557129 689.26428223 C-313.72441621 688.24303267 -314.61370714 687.22217106 -315.50354004 686.20178223 C-334.88543481 663.60459639 -351.84951564 638.54168466 -365.83557129 612.26428223 C-366.35425781 611.29265137 -366.87294434 610.32102051 -367.40734863 609.31994629 C-374.10698175 596.6443128 -380.07625256 583.75612065 -385.39807129 570.45178223 C-386.13090332 568.62078979 -386.13090332 568.62078979 -386.87854004 566.75280762 C-389.92713413 558.96899328 -392.3575663 551.31779845 -394.83557129 543.26428223 C-382.29557129 543.26428223 -369.75557129 543.26428223 -356.83557129 543.26428223 C-352.37934791 553.29078483 -352.37934791 553.29078483 -350.86291504 556.92834473 C-333.79729031 597.53487796 -312.01195955 635.0406851 -282.17150879 667.68225098 C-280.28535035 669.76711841 -278.44426662 671.87734966 -276.60900879 674.00646973 C-272.61068714 678.58339723 -268.38418724 682.90774171 -264.08557129 687.20178223 C-262.89314819 688.39299683 -262.89314819 688.39299683 -261.67663574 689.60827637 C-256.79194895 694.44227255 -251.86472173 698.98443377 -246.44494629 703.21350098 C-244.02103116 705.1185241 -241.69115603 707.10616026 -239.36755371 709.13146973 C-207.48519608 736.78139679 -168.52386676 758.27612386 -128.83557129 772.26428223 C-127.55475023 772.74372693 -126.27481565 773.22554576 -124.99572754 773.70959473 C-97.06801071 784.13795219 -67.40771271 789.97974935 -37.83557129 793.26428223 C-37.00976562 793.36144531 -36.18395996 793.4586084 -35.33312988 793.55871582 C-25.66755549 794.54038929 -15.96970061 794.41489909 -6.26574707 794.39465332 C-3.23818873 794.38933078 -0.21078115 794.39460439 2.81677246 794.40100098 C25.16630931 794.46302385 25.16630931 794.46302385 47.31237793 791.78625488 C50.39151021 791.22272254 53.47232895 790.78681814 56.57458496 790.36975098 C69.37073736 788.61750565 81.77122917 786.49444721 94.16833496 782.84924316 C95.99464978 782.31403643 97.82921924 781.80720804 99.66442871 781.30334473 C106.92003475 779.30120816 114.10693964 777.07520307 121.28942871 774.82678223 C122.63098022 774.41226807 122.63098022 774.41226807 123.99963379 773.98937988 C172.47025721 758.6427844 218.35630205 729.45386084 255.32849121 694.91271973 C257.28715096 693.08355814 259.25387327 691.27731211 261.25036621 689.49084473 C266.80031422 684.51217647 272.04750313 679.40072947 276.96130371 673.77990723 C279.27115171 671.14242121 281.65214451 668.58173882 284.03942871 666.01428223 C289.77389338 659.69665166 295.02743992 653.0705801 300.16442871 646.26428223 C300.67376953 645.59010254 301.18311035 644.91592285 301.70788574 644.22131348 C326.07882527 611.73673502 344.87509253 575.60556237 358.16442871 537.26428223 C358.50570801 536.28926758 358.8469873 535.31425293 359.1986084 534.30969238 C379.25365768 476.07328374 383.90930957 408.72030355 372.16442871 348.26428223 C371.91917725 346.89587497 371.67442906 345.52737746 371.43005371 344.15881348 C365.57085982 312.24304351 355.16532386 281.50408418 341.16442871 252.26428223 C340.77819336 251.44943359 340.39195801 250.63458496 339.99401855 249.79504395 C325.9398714 220.30031925 307.71779626 192.81607243 286.16442871 168.26428223 C285.53149902 167.53209473 284.89856934 166.79990723 284.24645996 166.04553223 C282.56533474 164.10666012 280.86739073 162.18398486 279.16442871 160.26428223 C278.51474121 159.52178223 277.86505371 158.77928223 277.19567871 158.01428223 C268.4786419 148.16024061 259.24294324 138.7309755 249.16442871 130.26428223 C248.23630371 129.45861816 247.30817871 128.6529541 246.35192871 127.82287598 C228.59755275 112.46766479 209.29136427 99.11157557 188.99890137 87.33215332 C187.16558987 86.26495815 185.34299992 85.18083319 183.51989746 84.09631348 C164.42787955 72.89061625 143.98298447 64.74707183 123.17297363 57.34265137 C121.21771597 56.64181771 119.26699762 55.9281406 117.32189941 55.19958496 C110.95364423 52.81763487 104.56307973 50.88507872 97.97692871 49.20178223 C96.9802417 48.94429199 95.98355469 48.68680176 94.95666504 48.42150879 C87.95415836 46.64341634 80.94987168 45.13723351 73.83239746 43.90490723 C71.01584435 43.41298528 68.23167293 42.86701667 65.43395996 42.28381348 C59.87432994 41.16187961 54.28974215 40.40962793 48.66442871 39.70178223 C47.69634277 39.57609863 46.72825684 39.45041504 45.73083496 39.32092285 C42.8763956 38.95501821 40.02319747 38.59495733 37.16442871 38.26428223 C36.44086182 38.17874588 35.71729492 38.09320953 34.97180176 38.00508118 C28.6882888 37.31147432 22.48311433 37.10420421 16.16442871 37.09631348 C15.13805298 37.09221466 14.11167725 37.08811584 13.05419922 37.08389282 C9.75757434 37.07439758 6.46106519 37.07435523 3.16442871 37.07678223 C2.04415283 37.07638947 0.92387695 37.0759967 -0.23034668 37.07559204 C-16.53876945 37.08246373 -32.61393601 37.49488411 -48.83557129 39.26428223 C-53.78557129 39.75928223 -53.78557129 39.75928223 -58.83557129 40.26428223 C-58.83557129 28.05428223 -58.83557129 15.84428223 -58.83557129 3.26428223 C-39.03491901 0.80296464 -19.90997342 -0.16230639 0 0 Z " fill="#FC8107" transform="translate(786.8355712890625,356.7357177734375)" />
<path d="M0 0 C12.21 -0.0825 24.42 -0.165 37 -0.25 C40.82207031 -0.28641602 44.64414062 -0.32283203 48.58203125 -0.36035156 C53.33398438 -0.37841797 53.33398438 -0.37841797 55.57495117 -0.3817749 C57.10429575 -0.38782386 58.63362414 -0.40169188 60.1628418 -0.42230225 C74.50450913 -0.6055364 89.01338833 0.27142358 100.65625 9.65234375 C107.52268792 16.53022573 112.27293962 24.96196451 112.3125 34.8125 C112.12170685 44.45947871 108.88458011 53.14360015 101.96875 60.01953125 C96.84389535 64.57805233 96.84389535 64.57805233 94 66 C94.85722656 66.4846875 95.71445312 66.969375 96.59765625 67.46875 C105.62288039 72.70554331 112.87051035 78.00228822 117 88 C117.391875 88.86625 117.78375 89.7325 118.1875 90.625 C121.46116262 104.22329089 117.03292122 116.48426258 110 128 C102.97507564 136.45592747 93.56108588 139.93524441 83 142 C80.15227729 142.25155064 77.32996637 142.25451088 74.47265625 142.22705078 C73.23714272 142.22741239 73.23714272 142.22741239 71.97666931 142.2277813 C69.33849886 142.22630117 66.70061919 142.21112878 64.0625 142.1953125 C62.42252742 142.19236802 60.78255296 142.19033008 59.14257812 142.18920898 C53.09502322 142.17876854 47.04750869 142.15084601 41 142.125 C27.47 142.08375 13.94 142.0425 0 142 C0 95.14 0 48.28 0 0 Z " fill="#FC8208" transform="translate(865,672)" />
<path d="M0 0 C1.22976563 0.43570313 2.45953125 0.87140625 3.7265625 1.3203125 C17.24834613 6.61899859 27.18243303 15.04429604 33.75 28.0625 C40.46109152 44.65792663 39.37250908 62.28085035 39.20599365 79.83947754 C39.17488575 83.47366052 39.1615148 87.10790876 39.14648438 90.7421875 C39.11464783 97.82828131 39.06368632 104.91411471 39 112 C5.68377923 112.81955505 -27.61249492 113.0928887 -60.9375 113.0625 C-62.35562674 113.06121597 -62.35562674 113.06121597 -63.8024025 113.05990601 C-75.5349544 113.04849544 -87.26747708 113.02838996 -99 113 C-99.63859563 98.09839981 -100.20573822 83.20724105 -100.24023438 68.29052734 C-100.24682754 66.57531626 -100.26067523 64.86011989 -100.28125 63.14501953 C-100.49751832 45.0832358 -98.91618581 28.69635599 -85.9609375 14.8359375 C-75.32249594 4.8756436 -62.17214615 -0.41139512 -48 -3 C-47.06647705 -3.17128418 -46.1329541 -3.34256836 -45.17114258 -3.51904297 C-30.27923221 -5.77765129 -14.21037343 -5.05048592 0 0 Z " fill="#FC8209" transform="translate(397,722)" />
<path d="M0 0 C4.35057671 2.30324649 7.41168345 4.81592049 10 9 C10.51853973 12.34577094 10.42279659 15.62306603 10.3125 19 C10.28929687 20.39545044 10.28929687 20.39545044 10.265625 21.8190918 C10.11835946 28.90072354 9.73211376 35.95340503 9 43 C9.84046875 43.26296875 10.6809375 43.5259375 11.546875 43.796875 C14.54925317 44.84295246 17.40915028 46.03817817 20.29858398 47.35961914 C62.37097517 66.55616745 110.39615015 71.52334626 156 65 C156.76715332 64.89284668 157.53430664 64.78569336 158.32470703 64.67529297 C163.57815698 63.9207205 168.78990495 63.00902254 174 62 C174.67385742 61.87431641 175.34771484 61.74863281 176.04199219 61.61914062 C195.67014652 57.86683941 214.15913955 49.79683717 232 41 C231.97905273 40.02651611 231.95810547 39.05303223 231.93652344 38.05004883 C231.86391814 34.42536224 231.81812665 30.80073945 231.78027344 27.17553711 C231.76020442 25.60902077 231.73294249 24.04257891 231.69824219 22.47631836 C231.64951246 20.21970206 231.6269853 17.96407917 231.609375 15.70703125 C231.58872986 15.01100296 231.56808472 14.31497467 231.54681396 13.59785461 C231.54460057 8.76036481 232.6086474 6.40970746 236 3 C238.8647078 0.75468848 240.69922746 0.04539963 244.3125 -0.5 C249.01964173 0.13825651 252.51629162 1.74348999 256 5 C258.63280956 9.46525936 259.43917712 12.97648723 259.70776367 18.12841797 C259.74721603 18.8156041 259.7866684 19.50279022 259.82731628 20.21080017 C259.95374669 22.47077522 260.06111983 24.73120892 260.16796875 26.9921875 C260.25231956 28.58201569 260.33773141 30.17178791 260.42414856 31.76150513 C260.60264438 35.09487355 260.77244555 38.42852677 260.93530273 41.76269531 C261.14188193 45.99005048 261.36340734 50.21643661 261.5908308 54.4427166 C261.80954464 58.52142402 262.02013112 62.60054112 262.23046875 66.6796875 C262.27021505 67.43628536 262.30996136 68.19288322 262.35091209 68.97240829 C262.61078978 73.98037754 262.82939034 78.98819068 263 84 C263.02646732 84.72829262 263.05293465 85.45658524 263.08020401 86.20694733 C263.15084822 88.3738245 263.19716296 90.53985486 263.2355957 92.70751953 C263.26345657 93.9666214 263.29131744 95.22572327 263.32002258 96.52297974 C262.91742594 100.89716071 261.69936967 104.42682115 258.421875 107.4609375 C254.15479543 109.79387352 250.96426577 110.72207502 246 110 C240.91356199 107.26114877 237.82995973 104.4898792 236 99 C235.84929203 96.86338742 235.7514034 94.72287876 235.68359375 92.58203125 C235.64169922 91.32841797 235.59980469 90.07480469 235.55664062 88.78320312 C235.51732422 87.47287109 235.47800781 86.16253906 235.4375 84.8125 C235.39429008 83.47720022 235.350675 82.14191348 235.30664062 80.80664062 C235.20043498 77.53786703 235.09839003 74.26901667 235 71 C234.29093506 71.27674561 233.58187012 71.55349121 232.85131836 71.83862305 C224.91511798 74.93010605 216.9657581 77.9854638 209 81 C208.23010742 81.29165039 207.46021484 81.58330078 206.66699219 81.88378906 C191.66603968 87.47775157 175.7409516 90.45327439 159.9375 92.75 C159.14263184 92.86553223 158.34776367 92.98106445 157.52880859 93.10009766 C145.2604429 94.76125504 132.9324272 95.23747424 120.5625 95.25 C119.85977966 95.25100708 119.15705933 95.25201416 118.43304443 95.25305176 C96.48125201 95.23211421 74.27647695 93.64618482 53 88 C52.07703125 87.75765625 51.1540625 87.5153125 50.203125 87.265625 C17.16648472 78.44432314 17.16648472 78.44432314 6 71 C6.02094727 71.77601563 6.04189453 72.55203125 6.06347656 73.3515625 C6.14712759 76.90090748 6.19881629 80.45004435 6.25 84 C6.28351562 85.22074219 6.31703125 86.44148437 6.3515625 87.69921875 C6.43013306 94.96699579 6.07827621 99.89349017 2 106 C-1.20536473 108.79223773 -4.33634372 109.90685526 -8.5625 110.5 C-13.5161128 109.7794745 -16.5134578 107.8371045 -19.65332031 103.95678711 C-21.58208724 99.72196184 -21.38961772 95.97996711 -21.296875 91.37890625 C-21.28622009 90.38766251 -21.27556519 89.39641876 -21.2645874 88.37513733 C-21.04654962 74.75170143 -20.29568301 61.14221411 -19.51074219 47.54174805 C-19.28771248 43.66175398 -19.08800807 39.78090118 -18.89313126 35.89940548 C-18.73720347 32.87287604 -18.56497539 29.84743281 -18.388237 26.82205391 C-18.30730681 25.38993424 -18.23233794 23.95746367 -18.16370392 22.52470207 C-18.06682281 20.53500259 -17.94456631 18.5465882 -17.82128906 16.55834961 C-17.75911194 15.43303329 -17.69693481 14.30771698 -17.63287354 13.14830017 C-16.61142984 8.06701431 -14.09246007 4.92252184 -10.1875 1.625 C-6.35990051 -0.32632523 -4.24556929 -0.6065099 0 0 Z " fill="#166A3B" transform="translate(666,857)" />
<path d="M0 0 C9.57 0 19.14 0 29 0 C29 18.48 29 36.96 29 56 C47.48 56 65.96 56 85 56 C85 37.52 85 19.04 85 0 C94.57 0 104.14 0 114 0 C114 46.86 114 93.72 114 142 C104.43 142 94.86 142 85 142 C85 121.54 85 101.08 85 80 C66.52 80 48.04 80 29 80 C29 100.46 29 120.92 29 142 C19.43 142 9.86 142 0 142 C0 95.14 0 48.28 0 0 Z " fill="#FC8209" transform="translate(594,672)" />
<path d="M0 0 C3.72603896 0.78412355 5.25464255 1.95074264 7.875 4.75 C11.0930079 8.100585 14.3746219 11.09969752 18 14 C17.14286676 18.6934041 14.2158574 21.07501057 10.875 24.25 C9.6791129 25.41343867 8.48508733 26.57879397 7.29296875 27.74609375 C6.71981934 28.3066748 6.14666992 28.86725586 5.55615234 29.44482422 C3.09614567 31.90328711 0.85474811 34.52663 -1.39453125 37.17578125 C-3.80660242 39.91650445 -6.42683372 42.43566865 -9.02734375 44.99609375 C-11.57210274 47.58116575 -13.91792631 50.31245061 -16.28125 53.0625 C-18.51017195 55.57510292 -20.89348049 57.90558944 -23.2890625 60.2578125 C-26.02092016 63.0395671 -28.49868759 66.01062664 -31 69 C-29.62140072 72.19363953 -28.11891172 73.99361769 -25.4375 76.1875 C-21.31753376 79.63206194 -17.69983854 83.41456505 -14.078125 87.375 C-12.16910716 89.22394004 -12.16910716 89.22394004 -9.94140625 88.94140625 C-7.72535707 87.86682304 -6.387694 86.71884885 -4.6875 84.9375 C-4.08164062 84.30585938 -3.47578125 83.67421875 -2.8515625 83.0234375 C-0.45479857 80.40418915 1.86680291 77.72512145 4.18359375 75.03515625 C6.6097761 72.3167885 9.19205656 69.78008332 11.8125 67.25 C13.69087525 65.31795688 15.45817245 63.34718376 17.22265625 61.3125 C21.17570811 56.7609487 25.29245506 52.37637865 29.4375 48 C30.16904297 47.22527344 30.90058594 46.45054687 31.65429688 45.65234375 C33.43490214 43.766997 35.21681678 41.88290809 37 40 C41.19517765 43.57228281 45.34988353 47.17934675 49.4375 50.875 C50.30246094 51.65617187 51.16742187 52.43734375 52.05859375 53.2421875 C52.69925781 53.82226562 53.33992187 54.40234375 54 55 C52.3888491 58.89824442 49.73481588 61.67095632 46.875 64.6875 C46.35075439 65.24783936 45.82650879 65.80817871 45.28637695 66.38549805 C43.52889712 68.26141951 41.76462563 70.13080048 40 72 C38.72495658 73.3564853 37.45022458 74.71326339 36.17578125 76.0703125 C31.4084583 81.14279587 26.63597331 86.21041659 21.85498047 91.27001953 C19.7764641 93.46993681 17.70057237 95.67230545 15.625 97.875 C14.98844482 98.54700439 14.35188965 99.21900879 13.69604492 99.91137695 C13.10799072 100.53616943 12.51993652 101.16096191 11.9140625 101.8046875 C11.3979541 102.35108887 10.8818457 102.89749023 10.35009766 103.46044922 C8.79309891 105.1678454 8.79309891 105.1678454 7 108 C7.55171875 108.22300781 8.1034375 108.44601562 8.671875 108.67578125 C11.7305676 110.41554097 13.8073812 112.65764482 16.25 115.1875 C20.13717461 119.16859293 24.09511611 122.96196281 28.34375 126.5625 C29.97276716 127.97636395 31.49371717 129.45697856 33 131 C40.92621236 127.68374563 46.81258684 119.33176468 52.2890625 112.9296875 C54.74451277 110.16029838 57.39096339 107.59964876 60.02734375 105.00390625 C62.57337829 102.41753849 64.92021557 99.6846472 67.28515625 96.93359375 C69.49559301 94.44118784 71.85841559 92.13002433 74.234375 89.796875 C76.75248047 87.23420129 79.08622705 84.52543569 81.421875 81.796875 C82.20304687 80.90742188 82.20304687 80.90742188 83 80 C83.47953125 79.40703125 83.9590625 78.8140625 84.453125 78.203125 C85.21882813 77.60757813 85.21882813 77.60757813 86 77 C90.63894533 77.62294747 93.04907783 80.75194593 96.125 84 C99.68912684 87.97988997 99.68912684 87.97988997 104 91 C102.63809547 94.02437591 101.08711793 96.19124265 98.796875 98.58203125 C98.15355225 99.25886963 97.51022949 99.93570801 96.84741211 100.63305664 C96.15526611 101.35227295 95.46312012 102.07148926 94.75 102.8125 C93.28744143 104.34865469 91.82520762 105.88511864 90.36328125 107.421875 C89.62803223 108.19208984 88.8927832 108.96230469 88.13525391 109.75585938 C85.04576392 113.0028971 81.99020496 116.28091905 78.9375 119.5625 C74.15376977 124.694966 69.36185399 129.8196406 64.5625 134.9375 C63.94415283 135.59709717 63.32580566 136.25669434 62.6887207 136.9362793 C59.47365448 140.36509879 56.2560549 143.79150217 53.03515625 147.21484375 C46.2743388 154.40533158 39.54992009 161.61580824 33 169 C28.65077142 167.34264833 25.90864955 164.08845903 22.75 160.8125 C18.62000431 156.59977801 14.45805534 152.55704484 9.95703125 148.73828125 C6.63230853 145.78518422 3.56553758 142.57244491 0.44140625 139.41015625 C-2.27202727 136.73145468 -5.10777023 134.25391882 -8.00390625 131.77734375 C-11.06666727 129.05022777 -13.90223493 126.10595363 -16.78125 123.1875 C-18.79430632 121.20279658 -20.85446403 119.33903084 -23 117.5 C-26.79358733 114.24835372 -30.27392647 110.74286906 -33.78125 107.1875 C-35.79430632 105.20279658 -37.85446403 103.33903084 -40 101.5 C-43.79078785 98.25075327 -47.26878424 94.74813968 -50.7734375 91.1953125 C-53.43646934 88.56965655 -56.23255606 86.14020795 -59.0703125 83.70703125 C-62.18946136 80.94778419 -65.09751222 77.98412025 -68 75 C-66.72235639 72.21829493 -65.37579118 70.10669999 -63.26953125 67.890625 C-62.72167969 67.30925781 -62.17382812 66.72789062 -61.609375 66.12890625 C-60.71992188 65.19884766 -60.71992188 65.19884766 -59.8125 64.25 C-58.53775366 62.90104805 -57.26301431 61.5520895 -55.98828125 60.203125 C-55.32908691 59.50896484 -54.66989258 58.81480469 -53.99072266 58.09960938 C-50.81212226 54.74714881 -47.65730479 51.37250047 -44.5 48 C-43.23834098 46.65489189 -41.97662229 45.30983974 -40.71484375 43.96484375 C-36.58642347 39.56126711 -32.47014005 35.146418 -28.35522461 30.73022461 C-25.18491646 27.33087769 -22.004459 23.94153352 -18.8125 20.5625 C-18.10472412 19.81282959 -17.39694824 19.06315918 -16.66772461 18.29077148 C-15.31045215 16.8541687 -13.95198058 15.4186974 -12.59204102 13.98461914 C-8.2795934 9.41957344 -4.1024069 4.75461282 0 0 Z " fill="#FC8208" transform="translate(464,399)" />
<path d="M0 0 C9.57 0 19.14 0 29 0 C29.01458252 2.92157959 29.02916504 5.84315918 29.04418945 8.85327148 C29.09460865 18.52446339 29.16121678 28.19549553 29.23571491 37.86653042 C29.28037273 43.72798211 29.31963913 49.58936502 29.34643555 55.45092773 C29.37251405 61.11151786 29.41294902 66.77184269 29.46318626 72.43226814 C29.47982417 74.58788812 29.49135755 76.74355395 29.49761391 78.89922905 C29.50728833 81.9271591 29.53538808 84.95441509 29.56762695 87.98217773 C29.56547432 89.30820007 29.56547432 89.30820007 29.5632782 90.66101074 C29.69527696 99.47232556 31.94044706 107.40102098 38 114 C46.34412917 120.20460887 57.05187346 120.15612127 67 119 C72.96832122 117.26818497 77.79736321 114.47117118 81 109 C84.32412679 101.30202217 84.14919202 92.60596291 84.20532227 84.34936523 C84.21522186 83.43121536 84.22512146 82.51306549 84.23532104 81.5670929 C84.26664118 78.56428512 84.29157552 75.56146159 84.31640625 72.55859375 C84.33700131 70.46394972 84.35799842 68.36930961 84.37937927 66.27467346 C84.43433649 60.78554474 84.48386101 55.29638017 84.53222656 49.80718994 C84.58263506 44.19629764 84.63821972 38.58545683 84.69335938 32.97460938 C84.80061824 21.98311544 84.90165481 10.9915773 85 0 C94.57 0 104.14 0 114 0 C114.02270876 11.32782669 114.04100569 22.65563794 114.05181217 33.98348236 C114.05700209 39.24501907 114.06402795 44.50653922 114.07543945 49.76806641 C114.08640802 54.85796773 114.09230604 59.94785326 114.09487724 65.0377655 C114.09670658 66.96714018 114.10027797 68.89651412 114.10573006 70.82588196 C114.19418721 103.4653459 114.19418721 103.4653459 110.875 113.9375 C110.65763184 114.64495361 110.44026367 115.35240723 110.21630859 116.08129883 C108.25269083 122.0275713 105.47444442 126.5739803 101 131 C100.46632813 131.55816406 99.93265625 132.11632812 99.3828125 132.69140625 C94.64925302 137.20980394 89.06664617 139.70363192 83 142 C82.15308594 142.32226562 81.30617188 142.64453125 80.43359375 142.9765625 C67.0175181 147.1556603 49.52614396 146.46880143 36 143 C34.83210937 142.70802734 34.83210937 142.70802734 33.640625 142.41015625 C21.64557045 138.91504553 11.73714076 131.39555528 5.625 120.5 C2.6838634 114.25905161 1.90414999 108.16217262 1.32421875 101.37109375 C1.12803562 98.0108507 1.12803562 98.0108507 0 95 C-0.09179027 91.97173641 -0.1259318 88.96687537 -0.11352539 85.9387207 C-0.11367142 85.01169342 -0.11381744 84.08466614 -0.1139679 83.12954712 C-0.11327054 80.06160146 -0.10548637 76.99371632 -0.09765625 73.92578125 C-0.09579144 71.8001458 -0.09436784 69.67450993 -0.09336853 67.5488739 C-0.08954829 61.95110897 -0.07972219 56.35336993 -0.06866455 50.75561523 C-0.05843984 45.04476268 -0.05386863 39.33390594 -0.04882812 33.62304688 C-0.0380995 22.41535137 -0.02050667 11.20768189 0 0 Z " fill="#FC8209" transform="translate(729,672)" />
<path d="M0 0 C1.20536243 3.07664626 2.38608194 6.16218268 3.5625 9.25 C3.90474609 10.12269531 4.24699219 10.99539063 4.59960938 11.89453125 C5.07817383 13.16103516 5.07817383 13.16103516 5.56640625 14.453125 C5.86490479 15.22817383 6.16340332 16.00322266 6.47094727 16.80175781 C7.0845467 19.35129603 6.9170897 20.5606891 6 23 C3.41738003 24.29140568 1.02467695 25.28733287 -1.68359375 26.234375 C-2.45429703 26.51726379 -3.22500031 26.80015259 -4.01905823 27.09161377 C-6.48670896 27.99276646 -8.96184754 28.87110138 -11.4375 29.75 C-13.10272092 30.35668206 -14.76744182 30.96473848 -16.43164062 31.57421875 C-28.61162533 36 -28.61162533 36 -31 36 C-30.66403809 36.74741455 -30.32807617 37.4948291 -29.98193359 38.26489258 C-25.01881679 49.55278478 -20.83483199 61.10196128 -16.625 72.6875 C-15.03836375 77.0384571 -13.44908879 81.38844778 -11.859375 85.73828125 C-11.25807266 87.38503845 -11.25807266 87.38503845 -10.6446228 89.06506348 C-7.88505875 96.61204729 -5.08796176 104.14425125 -2.265625 111.66796875 C-1.8920285 112.66513412 -1.51843201 113.6622995 -1.1335144 114.68968201 C0.30410661 118.52557401 1.74208447 122.36129354 3.18963623 126.19345093 C4.17484487 128.80190837 5.15432282 131.41245381 6.1328125 134.0234375 C6.42565125 134.79298264 6.71848999 135.56252777 7.02020264 136.35539246 C8.14697367 139.37403475 9 141.74976275 9 145 C5.04366575 146.5053109 1.08461633 148.00334593 -2.875 149.5 C-4.56689453 150.14388672 -4.56689453 150.14388672 -6.29296875 150.80078125 C-7.36933594 151.20683594 -8.44570313 151.61289062 -9.5546875 152.03125 C-10.54968262 152.40830078 -11.54467773 152.78535156 -12.56982422 153.17382812 C-15 154 -15 154 -17 154 C-26.18510009 130.32940002 -35.00526249 106.52735831 -43.75073242 82.69165039 C-44.19229172 81.48898529 -44.63385101 80.28632019 -45.08879089 79.04721069 C-45.91482617 76.79669992 -46.73994761 74.5458534 -47.56391907 72.29458618 C-49.97505249 65.72370152 -52.47511604 59.19699996 -55.06884766 52.695755 C-56 50 -56 50 -56 47 C-65.8462689 49.75003213 -75.33169226 53.3144785 -84.859375 57.00170898 C-85.86742187 57.38786377 -86.87546875 57.77401855 -87.9140625 58.171875 C-89.2745874 58.6992627 -89.2745874 58.6992627 -90.66259766 59.23730469 C-93 60 -93 60 -96 60 C-97.17461555 56.89878289 -98.33830456 53.79357759 -99.5 50.6875 C-99.83386719 49.80642578 -100.16773438 48.92535156 -100.51171875 48.01757812 C-100.98544922 46.74624023 -100.98544922 46.74624023 -101.46875 45.44921875 C-101.76201172 44.66893311 -102.05527344 43.88864746 -102.35742188 43.0847168 C-103 41 -103 41 -103 38 C-94.68166752 34.5592352 -86.32422424 31.36681793 -77.8125 28.4375 C-71.49034346 26.25907902 -65.28271742 23.96275876 -59.14038086 21.31079102 C-55.74969768 19.89552413 -52.32601703 18.58863764 -48.8828125 17.30859375 C-48.19532928 17.05197968 -47.50784607 16.7953656 -46.79953003 16.53097534 C-44.53356817 15.68583759 -42.26682673 14.84281502 -40 14 C-38.81639893 13.55918594 -38.81639893 13.55918594 -37.60888672 13.10946655 C-32.63065844 11.25553534 -27.65012726 9.40794051 -22.66748047 7.56591797 C-20.94695068 6.92918647 -19.22691165 6.29112757 -17.50732422 5.65185547 C-14.98778003 4.7153501 -12.46673449 3.7829983 -9.9453125 2.8515625 C-9.17462433 2.56415192 -8.40393616 2.27674133 -7.6098938 1.98062134 C-2.22806807 0 -2.22806807 0 0 0 Z " fill="#FC8208" transform="translate(668,293)" />
<path d="M0 0 C1.12857422 -0.01160156 2.25714844 -0.02320313 3.41992188 -0.03515625 C14.37579423 0.00264434 27.84903488 1.60848765 36.44140625 9.12890625 C42.82106082 15.93475904 44.91994939 22.90019346 44.73046875 32.03125 C44.72622391 32.81898804 44.72197906 33.60672607 44.71760559 34.41833496 C44.70097617 36.9042559 44.66335614 39.38932919 44.625 41.875 C44.60993271 43.57290486 44.59624791 45.27082258 44.58398438 46.96875 C44.55112466 51.10448719 44.49945474 55.2396005 44.4375 59.375 C14.10010217 60.34786666 -16.21106086 60.49751926 -46.5625 60.375 C-46.66247246 55.73435528 -46.73447966 51.09435728 -46.78222656 46.45288086 C-46.80216084 44.87887635 -46.82931871 43.30494411 -46.86425781 41.73120117 C-47.10312512 30.68358827 -46.51265255 21.71918441 -40.5 12.0625 C-29.18238526 1.70808652 -14.79174664 -0.15257962 0 0 Z " fill="#FEFDFC" transform="translate(367.5625,746.625)" />
<path d="M0 0 C4.20355983 0.5806949 7.81697847 1.56101889 11.7421875 3.16235352 C12.86947266 3.61811264 13.99675781 4.07387177 15.15820312 4.54344177 C16.06131226 4.91351254 16.06131226 4.91351254 16.98266602 5.29105949 C18.93091519 6.0893164 20.8820134 6.88021727 22.83398438 7.66932678 C24.95642636 8.52749431 27.07864876 9.38617378 29.20001221 10.24700451 C37.95053912 13.79755118 46.72568792 17.28609723 55.5 20.77734375 C57.1891418 21.44980361 58.87826934 22.1222993 60.56738281 22.79483032 C63.98455848 24.15532547 67.40190238 25.51539695 70.81933594 26.87524414 C74.30226782 28.26133743 77.78465128 29.64879629 81.26660156 31.03735352 C85.56675615 32.75217329 89.86788104 34.46453781 94.16967773 36.17523384 C95.77727728 36.81498752 97.38454951 37.45556446 98.99145508 38.09705925 C101.23556838 38.99274679 103.48076527 39.88564345 105.7265625 40.77709961 C106.42779236 41.05635756 107.12902222 41.33561552 107.85150146 41.62333584 C111.26298957 42.96958081 114.68153309 44.25321576 118.15527344 45.43045044 C118.80853607 45.65314134 119.46179871 45.87583223 120.13485718 46.10527134 C121.90289174 46.69993402 123.67661435 47.27760937 125.45068359 47.85401917 C126.29195801 48.23219284 127.13323242 48.61036652 128 49 C129.71109306 54.13327919 126.72770978 58.75312997 124.8125 63.625 C124.41224609 64.70007813 124.01199219 65.77515625 123.59960938 66.8828125 C123.0030957 68.41421875 123.0030957 68.41421875 122.39453125 69.9765625 C122.03206299 70.91580566 121.66959473 71.85504883 121.29614258 72.82275391 C120 75 120 75 118.2767334 75.76072693 C115.14452946 76.08990559 113.19003024 75.18780614 110.27612305 74.00561523 C109.12359543 73.54440781 107.97106781 73.08320038 106.78361511 72.60801697 C105.52622657 72.09176111 104.26893021 71.57528068 103.01171875 71.05859375 C101.70855203 70.53246866 100.40498115 70.00734362 99.10102844 69.48316956 C95.65861285 68.09627031 92.22177594 66.69603724 88.78594971 65.29290771 C85.34418853 63.88991528 81.8975367 62.49905809 78.45117188 61.10742188 C73.34707119 59.04512124 68.24595477 56.97568324 63.1472168 54.90014648 C53.69246365 51.05657144 44.23313882 47.221717 34.69921875 43.578125 C27.1609139 40.69342239 19.66807137 37.69737097 12.17553711 34.69628906 C9.77835189 33.73632523 7.38041868 32.77824694 4.98242188 31.8203125 C3.45308066 31.20844414 1.92378214 30.59646908 0.39453125 29.984375 C-0.31994675 29.69898865 -1.03442474 29.41360229 -1.77055359 29.11956787 C-6.76996169 27.11501915 -6.76996169 27.11501915 -9 26 C-8.38443385 20.11792344 -6.17339219 15.03902565 -3.9375 9.625 C-3.56044922 8.69816406 -3.18339844 7.77132812 -2.79492188 6.81640625 C-1.86873604 4.54197521 -0.93697332 2.27000333 0 0 Z " fill="#FC8208" transform="translate(336,579)" />
<path d="M0 0 C3.78149234 3.13323651 6.0076667 5.33910575 6.61987305 10.35498047 C6.60595033 11.75527774 6.56821667 13.15546119 6.51171875 14.5546875 C6.49541916 15.33012909 6.47911957 16.10557068 6.46232605 16.9045105 C6.39649006 19.5419734 6.29473893 22.1764081 6.1875 24.8125 C6.15287659 25.77337524 6.11825317 26.73425049 6.08258057 27.72424316 C5.84945573 34.04250107 5.54002174 40.35374484 5.18041992 46.66601562 C5.05918151 48.86438471 4.94800683 51.0633298 4.84643555 53.26269531 C4.69699197 56.49182074 4.51785075 59.71809996 4.33203125 62.9453125 C4.27230888 64.40639938 4.27230888 64.40639938 4.21138 65.89700317 C3.7981598 72.28255053 2.35451758 76.86602125 -1.8125 81.8125 C-5.34676766 84.46320074 -8.00082933 85.03676475 -12.3125 84.8125 C-17.11483748 84.08241491 -19.48956335 82.30158348 -22.8125 78.8125 C-27.30221121 65.34336637 -23.59571228 46.35662471 -22.74645996 32.32391357 C-22.6240939 30.2792148 -22.50761137 28.2341552 -22.39709473 26.18878174 C-22.23643485 23.2689039 -22.05124731 20.3515674 -21.859375 17.43359375 C-21.79188049 16.11286613 -21.79188049 16.11286613 -21.72302246 14.76545715 C-21.33462465 9.38900868 -20.3450952 6.10332904 -16.8125 1.8125 C-11.96435166 -2.34305572 -5.72654063 -2.41787271 0 0 Z " fill="#176B3B" transform="translate(629.8125,869.1875)" />
<path d="M0 0 C3.96013029 3.28125081 6.31178707 5.94456566 6.9453125 11.12890625 C7.08635414 12.87619913 7.20741022 14.62517679 7.3125 16.375 C7.3832373 17.32665039 7.45397461 18.27830078 7.52685547 19.25878906 C7.67910095 21.33425805 7.82345892 23.41031699 7.9609375 25.48681641 C8.1965695 28.94563012 8.46981356 32.39999373 8.75 35.85546875 C9.57743871 46.26199318 10.36488152 56.68452719 10.5625 67.125 C10.58844238 67.8169043 10.61438477 68.50880859 10.64111328 69.22167969 C10.66107316 74.54697661 9.1190439 77.52711582 6.1875 81.8125 C2.41514615 84.47029475 -1.12945598 85.46553703 -5.78515625 85.3046875 C-10.78829344 84.09005304 -14.07356342 79.92090487 -16.8125 75.8125 C-17.10474243 73.41184683 -17.28727165 70.99728292 -17.41015625 68.58203125 C-17.44934677 67.87278 -17.48853729 67.16352875 -17.52891541 66.43278503 C-17.65285422 64.1638842 -17.76449375 61.89459129 -17.875 59.625 C-17.99123936 57.37343643 -18.11011525 55.12204932 -18.23179626 52.87077332 C-18.30670562 51.47180428 -18.37819914 50.07264631 -18.4455719 48.67329407 C-18.61711127 45.34393525 -18.88657285 42.05616775 -19.32666016 38.75341797 C-20.09158142 32.54871494 -20.0783261 26.36996794 -20.125 20.125 C-20.15400391 18.81982422 -20.18300781 17.51464844 -20.21289062 16.16992188 C-20.22126953 14.91373047 -20.22964844 13.65753906 -20.23828125 12.36328125 C-20.25286377 11.22544189 -20.26744629 10.08760254 -20.2824707 8.9152832 C-19.71141935 5.1451577 -18.4330689 3.52644269 -15.8125 0.8125 C-11.02925946 -2.3226537 -5.15831019 -2.17795319 0 0 Z " fill="#176B3B" transform="translate(957.8125,869.1875)" />
<path d="M0 0 C8.6934375 -0.0928125 8.6934375 -0.0928125 17.5625 -0.1875 C19.3576001 -0.21481201 21.1527002 -0.24212402 23.00219727 -0.27026367 C48.1848781 -0.49448532 48.1848781 -0.49448532 56.3125 5.9375 C59.29735714 8.87535151 60.85076252 11.60840893 61.30078125 15.8046875 C61.3413492 26.43348943 61.3413492 26.43348943 58 31 C53.12568601 35.6623873 48.91883839 38.26371341 42.11791992 38.22705078 C40.70702339 38.22682419 40.70702339 38.22682419 39.2676239 38.22659302 C38.2653627 38.21627045 37.2631015 38.20594788 36.23046875 38.1953125 C35.19432938 38.1924826 34.15819 38.18965271 33.09065247 38.18673706 C29.78948293 38.17556454 26.48858719 38.15046505 23.1875 38.125 C20.94596747 38.11496643 18.70443067 38.10584124 16.46289062 38.09765625 C10.97507071 38.07733852 5.48784094 38.03818366 0 38 C0 25.46 0 12.92 0 0 Z " fill="#FEFCF9" transform="translate(893,752)" />
<path d="M0 0 C6.12098295 -0.11515227 12.23816955 -0.21458042 18.359375 -0.2746582 C20.43893202 -0.29971505 22.51840174 -0.33377021 24.59765625 -0.37719727 C27.59657394 -0.43823845 30.59432178 -0.46629842 33.59375 -0.48828125 C34.51490601 -0.51408768 35.43606201 -0.5398941 36.38513184 -0.56648254 C42.71878657 -0.5691997 47.18520137 0.75067694 52 5 C55.12456541 10.07741879 55.94900857 15.15666631 55 21 C52.61104306 25.86979684 49.66669958 28.31913003 45 31 C42.24414648 31.91861784 40.6403931 32.12204322 37.80395508 32.11352539 C36.96331009 32.11344986 36.1226651 32.11337433 35.25654602 32.11329651 C34.35333115 32.10813522 33.45011627 32.10297394 32.51953125 32.09765625 C31.59154221 32.0962413 30.66355316 32.09482635 29.70744324 32.09336853 C26.74242942 32.08776937 23.77749101 32.07521704 20.8125 32.0625 C18.80273547 32.05748489 16.79296975 32.052922 14.78320312 32.04882812 C9.8554163 32.03865095 4.9277926 32.01907533 0 32 C0 21.44 0 10.88 0 0 Z " fill="#FEFEFD" transform="translate(894,696)" />
<path d="M0 0 C4.85665453 2.47594153 7.318397 5.30649678 10 10 C10.63769531 13.32055664 10.63769531 13.32055664 10.828125 16.91015625 C10.8668573 17.5589122 10.9055896 18.20766815 10.94549561 18.87608337 C11.06397072 20.93770171 11.1569912 22.99959385 11.25 25.0625 C11.32654324 26.41870999 11.40465675 27.77483231 11.484375 29.13085938 C11.70720715 33.08568956 11.86273994 37.04120978 12 41 C12.04745361 42.23572754 12.09490723 43.47145508 12.14379883 44.74462891 C12.18283325 46.47011963 12.18283325 46.47011963 12.22265625 48.23046875 C12.24851807 49.24391357 12.27437988 50.2573584 12.30102539 51.30151367 C11.87689541 55.10354831 10.26074667 57.17940332 7.60546875 59.828125 C3.40312246 62.89553105 -2.04649181 62.69333707 -7 62 C-10.90242769 60.01302052 -13.37934386 57.03685825 -15 53 C-15.41064453 50.22949219 -15.41064453 50.22949219 -15.6328125 47.046875 C-15.71724609 45.87729248 -15.80167969 44.70770996 -15.88867188 43.50268555 C-16.0056543 41.6451062 -16.0056543 41.6451062 -16.125 39.75 C-16.20556641 38.48905518 -16.28613281 37.22811035 -16.36914062 35.92895508 C-16.5919189 32.28657714 -16.79656909 28.64349968 -17 25 C-17.06026367 24.08718262 -17.12052734 23.17436523 -17.18261719 22.23388672 C-18.00938297 9.32422871 -18.00938297 9.32422871 -14.25 4.625 C-9.91437678 0.53024474 -5.94786963 -0.61529686 0 0 Z " fill="#176B3C" transform="translate(993,875)" />
<path d="M0 0 C3.12375847 2.01308879 4.75566703 3.72223124 6.8125 6.8125 C7.2824707 9.80419922 7.2824707 9.80419922 7.23828125 13.1171875 C7.23094971 14.3338208 7.22361816 15.5504541 7.21606445 16.80395508 C7.18601318 18.0855249 7.15596191 19.36709473 7.125 20.6875 C7.10590576 21.99420654 7.08681152 23.30091309 7.06713867 24.6472168 C7.00336818 28.36979005 6.90967826 32.09067842 6.8125 35.8125 C6.79090994 37.46743822 6.76993498 39.12238477 6.75 40.77734375 C6.52514397 47.69869343 5.98511254 53.75142628 0.8125 58.8125 C-3.7797647 61.76607195 -8.92184024 61.45312923 -14.1875 60.8125 C-17.85473182 58.71693896 -19.69060485 56.71488605 -21.1875 52.8125 C-21.38932552 50.24516071 -21.47081955 47.81560515 -21.4375 45.25 C-21.43073242 44.4878418 -21.42396484 43.72568359 -21.41699219 42.94042969 C-21.29110838 35.47229973 -20.90083171 28.0164241 -20.4375 20.5625 C-20.37594727 19.3964624 -20.31439453 18.2304248 -20.25097656 17.02905273 C-19.81400963 10.79592801 -19.40593334 6.54926636 -15.1875 1.8125 C-10.351192 -2.10883081 -5.73570796 -2.13683238 0 0 Z " fill="#176B3C" transform="translate(590.1875,876.1875)" />
</svg>