<?xml version='1.0' encoding='utf-8'?>
<svg xmlns="http://www.w3.org/2000/svg" version="1.1" viewBox="437.41 383.54 685.86 760.18">
<path d="M0 0 C495 0 990 0 1500 0 C1500 495 1500 990 1500 1500 C1005 1500 510 1500 0 1500 C0 1005 0 510 0 0 Z " fill="none" transform="translate(0,0)" />
<path d="M0 0 C123.42 0 246.84 0 374 0 C374 37.29 374 74.58 374 113 C355 132 355 132 347 139 C344.4764202 141.48186773 341.97733917 143.97352139 339.5 146.5 C335.17908303 150.86747515 330.85299477 155.1063392 326.15234375 159.06640625 C322.36707042 162.46696941 318.83194735 166.12868378 315.27319336 169.76391602 C312.31222575 172.7688312 309.30330131 175.64550364 306.10546875 178.3984375 C301.62629871 182.26548669 297.47084647 186.41834387 293.3125 190.625 C292.57966797 191.36234375 291.84683594 192.0996875 291.09179688 192.859375 C288.19950939 195.76991858 285.31134378 198.68439772 282.4296875 201.60546875 C279.28716997 204.70251577 276.05152652 207.69202787 272.8125 210.6875 C267.47838933 215.63731061 262.28387366 220.68055282 257.171875 225.859375 C255.27586327 227.72810599 253.34340291 229.4690437 251.3125 231.1875 C247.15183918 234.73804355 243.34585902 238.61659293 239.5 242.5 C235.17672218 246.86532283 230.85323149 251.10613977 226.15234375 255.06640625 C222.36707042 258.46696941 218.83194735 262.12868378 215.27319336 265.76391602 C212.30658489 268.77455578 209.29165604 271.65402499 206.0859375 274.41015625 C200.92080736 278.86642024 196.22146503 283.76328239 191.47265625 288.65429688 C190.79332031 289.34458984 190.11398437 290.03488281 189.4140625 290.74609375 C188.8051416 291.37185303 188.1962207 291.9976123 187.56884766 292.64233398 C186 294 186 294 184 294 C182.87646253 292.91157308 181.76090094 291.81423195 180.67578125 290.6875 C175.02212084 284.9943035 168.99077112 279.76434914 162.3984375 275.19140625 C161.93695312 274.79824219 161.47546875 274.40507813 161 274 C161 273.34 161 272.68 161 272 C160.44441406 271.76410156 159.88882813 271.52820313 159.31640625 271.28515625 C156.43624409 269.6872248 154.33630924 267.694995 151.9375 265.4375 C148.24636541 262.0046517 144.49589741 258.72061908 140.5625 255.5625 C136.02683557 251.90428985 131.7429883 248.05257035 127.48071289 244.08618164 C124.24806025 241.09573 120.93303234 238.26220993 117.5 235.5 C112.98222187 231.86500611 108.72181484 228.0328971 104.48046875 224.0859375 C101.24788253 221.09558642 97.93294134 218.26213671 94.5 215.5 C90.52368119 212.30066303 86.7335424 208.9739272 83 205.5 C78.46960548 201.28921898 73.79416023 197.32431179 68.98046875 193.44140625 C60.86210431 186.79136985 52.97791352 179.84864056 45.25 172.75 C41.77542469 169.56283417 38.23342363 166.52123303 34.5625 163.5625 C30.56774141 160.34055388 26.75461349 156.99329675 23 153.5 C16.86069268 147.79187148 10.55440249 142.20039094 3.6875 137.375 C3.130625 136.92125 2.57375 136.4675 2 136 C2 135.34 2 134.68 2 134 C1.360625 133.71125 0.72125 133.4225 0.0625 133.125 C-2 132 -2 132 -3 130 C10.43883876 129.83773416 23.87744407 129.71339144 37.31706333 129.6373148 C43.55783783 129.60079953 49.7979416 129.55127806 56.03833008 129.47192383 C62.06193052 129.3958066 68.08488629 129.35399688 74.10893059 129.3358593 C76.40589484 129.32293572 78.70282421 129.29769826 80.99951363 129.2598896 C84.2199306 129.20898788 87.43769205 129.20207996 90.65844727 129.20532227 C92.07941208 129.16757187 92.07941208 129.16757187 93.52908325 129.12905884 C98.61527902 129.18438039 101.30939468 129.74426767 104.97520447 133.40367126 C105.99137683 134.59575217 107.00040129 135.79398774 108 137 C109.74526963 138.48883201 111.5142605 139.95059785 113.3125 141.375 C117.90773742 145.07636932 122.31860967 148.9257429 126.68359375 152.89453125 C131.13611907 156.94159895 135.68271055 160.87763771 140.2578125 164.78515625 C141.46356676 165.81507479 142.66929523 166.84502353 143.875 167.875 C144.7877771 168.65447998 144.7877771 168.65447998 145.71899414 169.44970703 C149.25623858 172.47892533 152.74392577 175.55148583 156.1875 178.6875 C160.41336421 182.52605096 164.80043914 186.12531953 169.23828125 189.71484375 C173.61706191 193.33802152 177.81306622 197.15819309 182 201 C185.58803957 199.48082292 187.86550067 197.36615504 190.58984375 194.60546875 C191.45673828 193.73212891 192.32363281 192.85878906 193.21679688 191.95898438 C194.11462891 191.04439453 195.01246094 190.12980469 195.9375 189.1875 C196.83146484 188.28451172 197.72542969 187.38152344 198.64648438 186.45117188 C200.31993023 184.76033312 201.99130905 183.06744422 203.65991211 181.37182617 C204.43214111 180.58912354 205.20437012 179.8064209 206 179 C206.87470947 178.10321533 207.74941895 177.20643066 208.65063477 176.2824707 C210.74463454 174.24809432 212.32678416 173.08908793 215 172 C215 171.34 215 170.68 215 170 C216.328125 168.6953125 216.328125 168.6953125 218.25 167.125 C222.55270525 163.47838101 226.50200805 159.56346009 230.43457031 155.52783203 C233.13058829 152.78520493 235.89512629 150.19470829 238.8125 147.6875 C243.44070217 143.68401714 247.71167308 139.36150656 252 135 C256.89671122 130.01972716 261.83119716 125.20132017 267.12890625 120.6484375 C270.05812465 118.06778998 272.77302486 115.29092148 275.5 112.5 C278.86715321 109.09057725 282.20787838 105.71563089 285.875 102.625 C286.47183594 102.10035156 287.06867188 101.57570313 287.68359375 101.03515625 C289.03631073 99.84668146 290.39730968 98.66728998 291.77783203 97.51123047 C293.87073171 95.73600761 295.90326058 93.90449785 297.9375 92.0625 C298.61345215 91.50836426 299.2894043 90.95422852 299.98583984 90.38330078 C307.44566357 83.43283572 305.2636349 79.78184165 306 68 C205.02 68 104.04 68 0 68 C0 45.56 0 23.12 0 0 Z " fill="#C52128" transform="translate(596,587)" />
<path d="M0 0 C0.72234833 -0.00058411 1.44469666 -0.00116821 2.18893433 -0.00177002 C4.57013457 0.00101076 6.95007389 0.03210018 9.33105469 0.06347656 C10.98442908 0.07093903 12.63781233 0.07663194 14.29119873 0.08062744 C18.63810747 0.09588346 22.98447967 0.13516461 27.33117676 0.17944336 C31.76856224 0.22039698 36.2060346 0.23863863 40.64355469 0.25878906 C49.34692562 0.30165926 58.04986087 0.36990972 66.75292969 0.45410156 C67.06356857 1.11680054 67.37420746 1.77949951 67.69425964 2.46228027 C69.11870153 5.49331334 70.55097418 8.5205832 71.98339844 11.54785156 C72.47191284 12.59038086 72.96042725 13.63291016 73.46374512 14.70703125 C76.91218207 21.97538605 80.55097783 28.28839523 85.75292969 34.45410156 C86.22730469 35.08703125 86.70167969 35.71996094 87.19042969 36.37207031 C97.34236022 49.43691273 113.87414217 56.63747801 129.75292969 59.45410156 C134.55411682 59.86981914 139.32998395 59.94110132 144.14746094 59.96582031 C146.1175135 59.99274712 146.1175135 59.99274712 148.12736511 60.0202179 C151.57129063 60.06713307 155.01515347 60.09731623 158.45928955 60.12365723 C161.99284252 60.15376313 165.52618024 60.20018766 169.05957031 60.24511719 C175.95723284 60.33048181 182.85496762 60.39811902 189.75292969 60.45410156 C189.74404724 59.83071396 189.73516479 59.20732635 189.72601318 58.56504822 C189.63731978 52.05981644 189.5771041 45.55475727 189.53320312 39.04907227 C189.51312398 36.62322001 189.48585494 34.19741593 189.45117188 31.77172852 C189.40249291 28.27901295 189.37992319 24.78693897 189.36230469 21.29394531 C189.34165955 20.21451157 189.3210144 19.13507782 189.29974365 18.02293396 C189.29784945 11.62461746 189.79479991 7.58499445 193.75292969 2.45410156 C197.08031747 0.25599326 199.94552797 0.18115466 203.87915039 0.13183594 C205.1175618 0.11262085 206.35597321 0.09340576 207.63191223 0.0736084 C208.9808376 0.06391114 210.32977158 0.0553538 211.67871094 0.04785156 C213.06870016 0.03633747 214.45868938 0.02482215 215.84867859 0.01330566 C218.76135733 -0.00767889 221.67392627 -0.01938697 224.58666992 -0.02636719 C228.30599571 -0.03732548 232.02385283 -0.08536438 235.7427187 -0.1423111 C238.61421345 -0.17969609 241.48535916 -0.18998185 244.35707664 -0.19303894 C245.72737844 -0.1990645 247.0976761 -0.21502917 248.4677372 -0.2414093 C260.49735802 -0.45648862 260.49735802 -0.45648862 265.08569336 3.37011719 C268.29216437 6.69580238 268.87755224 8.86036546 268.86645508 13.45458984 C268.86637955 14.49551788 268.86630402 15.53644592 268.8662262 16.60891724 C268.86106491 17.73603119 268.85590363 18.86314514 268.85058594 20.02441406 C268.84846352 21.75146072 268.84846352 21.75146072 268.84629822 23.51339722 C268.84068685 27.20199142 268.82813239 30.89052561 268.81542969 34.57910156 C268.81041615 37.07519444 268.80585299 39.57128826 268.80175781 42.06738281 C268.79071372 48.19630965 268.77396448 54.32520132 268.75292969 60.45410156 C276.35165836 60.39243173 283.950095 60.31500514 291.54845715 60.21838665 C295.07809784 60.17398018 298.60763097 60.13466233 302.13745117 60.10766602 C306.211382 60.07627128 310.28472654 60.02149952 314.35839844 59.96582031 C316.22639351 59.95623543 316.22639351 59.95623543 318.13212585 59.94645691 C338.25731037 59.61456212 355.18209312 52.47526276 369.80761719 38.48925781 C377.39266502 30.24683917 382.26117697 20.60319334 386.98339844 10.55957031 C387.4437146 9.58644897 387.90403076 8.61332764 388.3782959 7.61071777 C389.5057224 5.22636802 390.63052303 2.84081737 391.75292969 0.45410156 C401.20182759 0.3845981 410.65063752 0.33128862 420.09973526 0.29866505 C424.48731769 0.28300753 428.87472525 0.26176779 433.26220703 0.2277832 C437.49620025 0.19519266 441.73002525 0.17724919 445.96413422 0.16946983 C447.57968545 0.16392576 449.19522745 0.15309954 450.81070709 0.13691139 C453.07322604 0.11514071 455.33504945 0.11213441 457.59765625 0.11352539 C458.88561096 0.10686356 460.17356567 0.10020172 461.50054932 0.09333801 C464.96235176 0.47733127 466.37717546 0.94280629 468.75292969 3.45410156 C470.39465343 11.62409149 465.74548397 18.51461523 462.12792969 25.57910156 C460.87952133 28.05777846 459.63974161 30.54071162 458.40136719 33.02441406 C458.09424301 33.63703598 457.78711884 34.2496579 457.47068787 34.88084412 C454.77373498 40.30412905 452.38396979 45.83171581 450.03515625 51.41308594 C448.57990373 54.86446167 447.03737781 58.25376072 445.44042969 61.64160156 C445.01068848 62.55522461 445.01068848 62.55522461 444.57226562 63.48730469 C443.63507229 65.47746818 442.69414048 67.46583529 441.75292969 69.45410156 C441.06665801 70.90849384 440.38046265 72.36292214 439.69433594 73.81738281 C433.75550864 86.38313683 427.74961083 98.91558645 421.75292969 111.45410156 C294.37292969 111.12410156 166.99292969 110.79410156 35.75292969 110.45410156 C30.80292969 99.56410156 30.80292969 99.56410156 25.75292969 88.45410156 C23.42774279 83.44994803 21.09688888 78.44936597 18.75292969 73.45410156 C17.69105429 71.17707363 16.6298559 68.89972985 15.56933594 66.62207031 C15.04162598 65.49019287 14.51391602 64.35831543 13.97021484 63.19213867 C12.82689656 60.73901418 11.68467988 58.28539691 10.54345703 55.83129883 C7.53443194 49.36791653 4.50402112 42.91604685 1.42070007 36.48771667 C-0.0690968 33.38117499 -1.55224757 30.27147719 -3.03543091 27.16177368 C-3.75626275 25.65583497 -4.48057645 24.15155764 -5.20846558 22.64901733 C-6.22742189 20.54511856 -7.23442796 18.43586906 -8.23925781 16.32519531 C-8.54480087 15.7025177 -8.85034393 15.07984009 -9.16514587 14.43829346 C-10.78679358 10.99919766 -11.96389016 8.25196816 -11.24707031 4.45410156 C-7.96940288 0.04763344 -5.32782953 -0.03624374 0 0 Z " fill="#C52128" transform="translate(551.2470703125,418.5458984375)" />
<path d="M0 0 C5.71882041 5.43591057 7.98601868 10.51806915 9.125 18.25 C-5.40293952 19.47915587 -5.40293952 19.47915587 -8.83984375 16.609375 C-9.9827502 14.53136328 -10.91899003 12.41861137 -11.875 10.25 C-15.68894857 6.52907456 -18.71209733 5.97204582 -23.875 5.8125 C-30.51359684 6.07476555 -34.46513407 7.55391797 -39.0625 12.375 C-45.35722382 20.3218823 -45.87246533 29.3959194 -44.875 39.25 C-43.44184059 45.21047324 -41.42140551 50.97103011 -36.875 55.25 C-32.37476231 57.92793535 -29.03070366 58.65906879 -23.8125 58.625 C-22.62527344 58.63273438 -21.43804687 58.64046875 -20.21484375 58.6484375 C-16.64438677 58.22248825 -14.81789887 57.23291582 -11.875 55.25 C-11.215 55.25 -10.555 55.25 -9.875 55.25 C-8.25774466 52.24049877 -7.19917377 49.27896392 -6.25 46 C-5.79625 44.4325 -5.3425 42.865 -4.875 41.25 C-10.485 41.25 -16.095 41.25 -21.875 41.25 C-21.875 37.29 -21.875 33.33 -21.875 29.25 C-11.315 29.25 -0.755 29.25 10.125 29.25 C10.125 43.11 10.125 56.97 10.125 71.25 C6.495 71.25 2.865 71.25 -0.875 71.25 C-1.535 68.61 -2.195 65.97 -2.875 63.25 C-3.31070313 63.64832031 -3.74640625 64.04664063 -4.1953125 64.45703125 C-4.79085937 64.98683594 -5.38640625 65.51664063 -6 66.0625 C-6.58007812 66.58457031 -7.16015625 67.10664062 -7.7578125 67.64453125 C-16.06929343 73.94714871 -25.88431964 73.46986329 -35.875 72.25 C-45.40508429 69.59044159 -52.09827193 63.45785542 -57.1796875 55.10546875 C-62.69690672 44.57442623 -64.28479808 32.63360475 -61.734375 20.984375 C-59.37844926 13.48824765 -56.01600827 6.31633182 -49.875 1.25 C-49.00875 0.404375 -48.1425 -0.44125 -47.25 -1.3125 C-33.81536801 -12.31709519 -12.85371367 -10.69042526 0 0 Z " fill="#C5232A" transform="translate(532.875,936.75)" />
<path d="M0 0 C5.94 0 11.88 0 18 0 C23.18323032 12.43975277 28.04770754 24.94224992 32.68359375 37.59375 C33.26804289 39.18756832 33.85268026 40.78131763 34.4375 42.375 C34.8720752 43.55968872 34.8720752 43.55968872 35.31542969 44.76831055 C38.15047271 52.46600056 41.12055914 60.1091921 44.12792969 67.7409668 C45.44427161 71.15085253 46.7165933 74.57758214 48 78 C42.06 78 36.12 78 30 78 C25.125 65.5 25.125 65.5 24 61 C9.15 60.505 9.15 60.505 -6 60 C-6.66 62.64 -7.32 65.28 -8 68 C-9.22195938 71.38937638 -10.61332376 74.67197702 -12 78 C-17.61 78 -23.22 78 -29 78 C-27.08836844 71.33879002 -24.89598311 64.96283986 -22.25 58.5625 C-19.52812785 51.87303612 -16.90689851 45.16180405 -14.4375 38.375 C-11.86053195 31.29403587 -9.17863173 24.26178225 -6.42919922 17.24609375 C-4.19308331 11.52943714 -2.06469262 5.78113935 0 0 Z " fill="#C5232A" transform="translate(793,930)" />
<path d="M0 0 C2.55835579 1.70557053 4.57576361 3.46431325 6.625 5.75 C8.79373412 4.74308773 10.62680164 3.74855869 12.5 2.25 C17.9958651 -1.62943419 24.11591761 -2.01462112 30.625 -1.25 C36.00729885 0.09557471 39.56727125 2.05388938 42.625 6.75 C44.90376652 10.80114048 45.75248475 14.42506245 45.73852539 19.05957031 C45.73841209 20.3204245 45.73841209 20.3204245 45.73829651 21.60675049 C45.73313522 22.50480408 45.72797394 23.40285767 45.72265625 24.328125 C45.7212413 25.2546991 45.71982635 26.18127319 45.71836853 27.13592529 C45.71277824 30.09064992 45.7002275 33.04529833 45.6875 36 C45.68248375 38.00520724 45.67792106 40.01041567 45.67382812 42.015625 C45.66281199 46.92711263 45.645554 51.8385434 45.625 56.75 C40.345 56.75 35.065 56.75 29.625 56.75 C29.6156543 55.52893555 29.60630859 54.30787109 29.59667969 53.04980469 C29.55679077 48.51704501 29.49103507 43.98496485 29.41748047 39.45263672 C29.38926447 37.49146253 29.36805306 35.53017449 29.35400391 33.56884766 C29.33258301 30.74843023 29.28593791 27.92938257 29.234375 25.109375 C29.23314636 24.23319519 29.23191772 23.35701538 29.23065186 22.45428467 C29.11639045 17.50337278 29.11639045 17.50337278 26.83300781 13.19628906 C23.53863541 11.03840957 20.37946011 10.99761811 16.625 11.75 C13.18187286 13.8744827 11.90882453 14.89852641 10.625 18.75 C10.47086124 21.62438548 10.36752715 24.47898986 10.30859375 27.35546875 C10.28781265 28.19467361 10.26703156 29.03387848 10.24562073 29.89851379 C10.18025982 32.57809294 10.12130286 35.25776969 10.0625 37.9375 C10.01930198 39.75456737 9.97568727 41.57162488 9.93164062 43.38867188 C9.8245922 47.84234799 9.72328681 52.29612226 9.625 56.75 C4.675 56.75 -0.275 56.75 -5.375 56.75 C-5.404729 55.01713745 -5.404729 55.01713745 -5.43505859 53.24926758 C-5.51126941 48.95331439 -5.59996289 44.65769308 -5.69238281 40.36206055 C-5.73060866 38.50470544 -5.76547263 36.64727792 -5.796875 34.78979492 C-5.84266461 32.11611088 -5.90063579 29.44292258 -5.9609375 26.76953125 C-5.97248871 25.94226028 -5.98403992 25.11498932 -5.99594116 24.26264954 C-6.10335848 20.0435662 -6.29217578 16.53766812 -8.375 12.75 C-12.12268948 10.87615526 -16.67084774 11.38153465 -20.6875 12.25 C-24.36571892 15.51952793 -25.50065831 21.09981801 -25.80737305 25.87109375 C-25.84804211 27.30956411 -25.87402355 28.74851084 -25.88671875 30.1875 C-25.90466995 30.95304199 -25.92262115 31.71858398 -25.94111633 32.50732422 C-25.99473955 34.92149556 -26.02895823 37.33547485 -26.0625 39.75 C-26.09571568 41.39976605 -26.13020919 43.0495069 -26.16601562 44.69921875 C-26.25281398 48.71616607 -26.31328711 52.73227813 -26.375 56.75 C-31.325 56.75 -36.275 56.75 -41.375 56.75 C-41.375 38.27 -41.375 19.79 -41.375 0.75 C-36.755 0.75 -32.135 0.75 -27.375 0.75 C-27.375 3.06 -27.375 5.37 -27.375 7.75 C-26.715 7.75 -26.055 7.75 -25.375 7.75 C-25.189375 7.1725 -25.00375 6.595 -24.8125 6 C-19.75165063 -1.92132945 -8.15418552 -3.02006871 0 0 Z " fill="#C6272D" transform="translate(930.375,951.25)" />
<path d="M0 0 C3.80741925 3.00860776 5.68203343 5.87545533 7.75 10.25 C8.10320313 10.97960937 8.45640625 11.70921875 8.8203125 12.4609375 C11.59289906 20.77869717 10.88387106 31.07162238 7.1875 38.9375 C3.14278485 45.88489308 -1.81885518 50.18757245 -9.25 53.25 C-18.61336931 54.75283064 -28.94694503 54.53673454 -37.01171875 49.21875 C-44.02253895 43.0521647 -47.77017163 35.99958576 -48.42578125 26.77734375 C-48.68070392 17.8818844 -46.50822512 9.08757548 -40.52734375 2.29296875 C-29.09522061 -8.50277378 -12.71417508 -8.72495684 0 0 Z " fill="#C5242B" transform="translate(630.25,955.75)" />
<path d="M0 0 C6.31077303 4.77718733 9.79771742 12.02054506 11.00390625 19.75 C11.87801516 28.81047508 9.82934608 37.63001798 4.00390625 44.75 C-1.87378813 50.58468686 -7.38327578 54.0910529 -15.82324219 54.26953125 C-16.6434082 54.26308594 -17.46357422 54.25664063 -18.30859375 54.25 C-19.15583008 54.24355469 -20.00306641 54.23710938 -20.87597656 54.23046875 C-29.76286927 53.96979571 -34.71665456 51.33172756 -40.87109375 45 C-47.66783119 36.50013577 -47.82524806 27.34474949 -46.99609375 16.75 C-45.60135557 8.66051856 -41.3991463 3.42899881 -35.05859375 -1.5625 C-23.78183692 -7.77622315 -10.78422772 -6.75333243 0 0 Z " fill="#C5232A" transform="translate(1033.99609375,955.25)" />
<path d="M0 0 C5.28 0 10.56 0 16 0 C18.69731845 7.61029133 20.85720619 15.16411822 22.60449219 23.03491211 C23.51802359 27.11851237 24.60262477 31.05519736 26 35 C28.07363612 31.88954582 28.64132095 29.84335611 29.4375 26.23046875 C29.69273437 25.09416016 29.94796875 23.95785156 30.2109375 22.78710938 C30.47132813 21.59923828 30.73171875 20.41136719 31 19.1875 C31.51810496 16.8470506 32.03885415 14.50718468 32.5625 12.16796875 C32.79066406 11.12922607 33.01882813 10.0904834 33.25390625 9.02026367 C34.00766225 5.96898244 35.00609531 2.98171406 36 0 C40.95 0 45.9 0 51 0 C52.3823748 3.45593701 53.40740111 6.3193368 54.21875 9.87109375 C54.42886719 10.77537109 54.63898437 11.67964844 54.85546875 12.61132812 C55.06816406 13.54396484 55.28085937 14.47660156 55.5 15.4375 C56.78791267 21.06138532 58.15116865 26.52983386 60 32 C60.125 34.875 60.125 34.875 60 37 C60.66 37 61.32 37 62 37 C62.11601563 35.85015625 62.23203125 34.7003125 62.3515625 33.515625 C62.90618518 29.0903198 64.04438215 24.9964749 65.375 20.75 C67.46670478 13.87682313 69.31938517 6.98781957 71 0 C76.28 0 81.56 0 87 0 C84.12693622 9.7602663 81.2221667 19.49427135 77.9375 29.125 C74.9209452 37.98439549 72.4148155 46.9604694 70 56 C64.72 56 59.44 56 54 56 C51.06188752 46.77759138 48.28245473 37.58598176 45.89453125 28.20703125 C45.10123392 25.36293907 44.15931963 22.71188866 43 20 C39.56208598 31.91998056 36.56804381 43.86276501 34 56 C28.72 56 23.44 56 18 56 C16.02965405 51.40252612 14.35225648 47.22599686 12.9140625 42.5 C12.5428125 41.28957031 12.1715625 40.07914063 11.7890625 38.83203125 C11.40103431 37.55468973 11.0130136 36.27734595 10.625 35 C7.83200909 25.87274225 4.99755869 16.77072512 1.875 7.75 C1 5 1 5 0 0 Z " fill="#C5242B" transform="translate(646,952)" />
<path d="M0 0 C4.95 0 9.9 0 15 0 C15 25.74 15 51.48 15 78 C10.05 78 5.1 78 0 78 C0 52.26 0 26.52 0 0 Z " fill="#C6262D" transform="translate(556,930)" />
<path d="M0 0 C0 4.62 0 9.24 0 14 C-3.515625 14.35807292 -7.03125 14.71614583 -10.546875 15.07421875 C-14.72413041 16.19413904 -15.77125997 17.36007178 -18 21 C-20.06130036 25.20938249 -20.30260696 28.82572464 -20.4140625 33.48828125 C-20.43342865 34.19147995 -20.4527948 34.89467865 -20.4727478 35.6191864 C-20.53220183 37.85017019 -20.57879049 40.08120654 -20.625 42.3125 C-20.66321137 43.83140186 -20.70226492 45.35028278 -20.7421875 46.86914062 C-20.83945037 50.5793139 -20.91928606 54.28928263 -21 58 C-25.95 58 -30.9 58 -36 58 C-36 39.52 -36 21.04 -36 2 C-31.38 2 -26.76 2 -22 2 C-22 4.97 -22 7.94 -22 11 C-21.34 11 -20.68 11 -20 11 C-19.73960937 10.40574219 -19.47921875 9.81148437 -19.2109375 9.19921875 C-17.92230431 6.85889461 -16.65189559 5.53403359 -14.625 3.8125 C-14.03976562 3.30332031 -13.45453125 2.79414062 -12.8515625 2.26953125 C-8.61990602 -0.63192098 -5.32032394 0 0 0 Z " fill="#C6252C" transform="translate(882,950)" />
<path d="M0 0 C1 1 1 1 1.09765625 4.16015625 C1.08605469 5.44792969 1.07445312 6.73570312 1.0625 8.0625 C1.05347656 9.35285156 1.04445313 10.64320313 1.03515625 11.97265625 C1.02355469 12.97167969 1.01195312 13.97070312 1 15 C0.27554687 14.96519531 -0.44890625 14.93039062 -1.1953125 14.89453125 C-9.11920765 14.54519537 -9.11920765 14.54519537 -16 18 C-21.02277398 25.41866284 -20.6625998 33.9617101 -20.75 42.5625 C-20.77821313 43.9668328 -20.80814786 45.37113212 -20.83984375 46.77539062 C-20.91010967 50.18328752 -20.95736892 53.59164539 -21 57 C-25.62 57 -30.24 57 -35 57 C-35 38.52 -35 20.04 -35 1 C-30.38 1 -25.76 1 -21 1 C-20.67 3.97 -20.34 6.94 -20 10 C-19.175 8.906875 -18.35 7.81375 -17.5 6.6875 C-12.82665969 1.24261766 -7.15645412 -0.69819065 0 0 Z " fill="#C6242B" transform="translate(1091,950)" />
<path d="M0 0 C3.45095299 1.84924485 5.3214168 3.61912632 6.6640625 7.2421875 C6.98291016 10.45019531 6.98291016 10.45019531 7.078125 14.1953125 C7.09749115 14.85553406 7.1168573 15.51575562 7.1368103 16.19598389 C7.19635599 18.29458903 7.24288972 20.39324978 7.2890625 22.4921875 C7.32726544 23.9192941 7.36631852 25.34637822 7.40625 26.7734375 C7.5020358 30.26281441 7.58615892 33.75236036 7.6640625 37.2421875 C8.6540625 37.5721875 9.6440625 37.9021875 10.6640625 38.2421875 C10.6640625 39.5621875 10.6640625 40.8821875 10.6640625 42.2421875 C7.9140625 42.6171875 7.9140625 42.6171875 4.6640625 42.2421875 C2.2890625 39.2421875 2.2890625 39.2421875 0.6640625 36.2421875 C-0.2434375 37.0259375 -1.1509375 37.8096875 -2.0859375 38.6171875 C-6.6232593 42.5357836 -10.13851137 43.64869871 -16.0859375 43.4921875 C-20.49464409 43.00233121 -23.30709361 41.40821058 -26.2109375 38.1171875 C-27.79047406 34.08059407 -28.15930225 30.51436309 -27.3359375 26.2421875 C-24.10007462 21.86425537 -19.7614585 18.95704188 -14.36816406 17.83154297 C-12.25526274 17.54278969 -10.14680339 17.31426059 -8.0234375 17.1171875 C-3.29658964 17.0439455 -3.29658964 17.0439455 0.6640625 15.2421875 C1.33462785 9.54586628 1.33462785 9.54586628 -1.2734375 4.7421875 C-5.42247704 2.71000487 -8.79805015 2.57388045 -13.3359375 3.2421875 C-17.1489917 4.73425219 -18.10945611 5.84389263 -20.1484375 9.4296875 C-20.5403125 10.3578125 -20.9321875 11.2859375 -21.3359375 12.2421875 C-22.6559375 12.2421875 -23.9759375 12.2421875 -25.3359375 12.2421875 C-25.06283814 8.32776337 -24.58601537 6.5395774 -22.0234375 3.4921875 C-15.75992853 -1.75168047 -7.8242234 -2.53829321 0 0 Z " fill="#C6262D" transform="translate(607.3359375,1064.7578125)" />
<path d="M0 0 C2.66601228 1.72234951 4.12870104 3.5641453 5.890625 6.20703125 C6.20947266 9.39331055 6.20947266 9.39331055 6.3046875 13.28125 C6.32405365 13.96508255 6.3434198 14.6489151 6.3633728 15.35346985 C6.42306497 17.5336975 6.46951131 19.71397827 6.515625 21.89453125 C6.55381443 23.37437175 6.59286674 24.85419025 6.6328125 26.33398438 C6.72875702 29.95813175 6.81282651 33.58244382 6.890625 37.20703125 C8.210625 37.53703125 9.530625 37.86703125 10.890625 38.20703125 C10.890625 39.52703125 10.890625 40.84703125 10.890625 42.20703125 C8.580625 42.20703125 6.270625 42.20703125 3.890625 42.20703125 C2.900625 40.22703125 1.910625 38.24703125 0.890625 36.20703125 C0.00375 36.99078125 -0.883125 37.77453125 -1.796875 38.58203125 C-6.6009172 42.52581473 -10.70695302 43.67148035 -16.89453125 43.52734375 C-21.23859436 42.89910182 -23.8861468 40.3487109 -26.984375 37.45703125 C-28.69018609 34.04540906 -28.85264661 30.88091663 -28.109375 27.20703125 C-25.1026789 22.37809508 -21.64178226 19.52760586 -16.109375 18.20703125 C-13.06205727 17.86709142 -10.03989483 17.64691067 -6.9765625 17.515625 C-4.02784372 17.19825609 -1.79590491 16.43220698 0.890625 15.20703125 C1.35677954 10.28838741 1.35677954 10.28838741 -0.71875 6.00390625 C-3.83051895 3.66499495 -5.74799545 3.67160575 -9.609375 3.70703125 C-10.7334375 3.69671875 -11.8575 3.68640625 -13.015625 3.67578125 C-16.69174942 4.30703494 -17.84944858 5.30141157 -20.109375 8.20703125 C-20.8966428 10.34522785 -20.8966428 10.34522785 -21.109375 12.20703125 C-22.429375 12.20703125 -23.749375 12.20703125 -25.109375 12.20703125 C-24.62313647 5.88593033 -24.62313647 5.88593033 -22.359375 2.89453125 C-16.24222069 -1.69333448 -7.18452599 -2.70084959 0 0 Z " fill="#C72930" transform="translate(921.109375,1064.79296875)" />
<path d="M0 0 C4.34446636 2.43355446 6.79100238 5.25901136 8.94921875 9.7109375 C9.99611236 13.42533967 10.21445703 17.32855073 10.640625 21.1640625 C-0.249375 21.1640625 -11.139375 21.1640625 -22.359375 21.1640625 C-19.75437357 33.23695165 -19.75437357 33.23695165 -15.359375 37.1640625 C-10.41661728 38.81164841 -5.44712322 38.95276738 -0.546875 37.1015625 C2.43312283 34.46213585 3.83571939 31.70702536 5.640625 28.1640625 C6.960625 28.1640625 8.280625 28.1640625 9.640625 28.1640625 C8.59475778 33.57372054 7.14904944 37.36339078 2.640625 40.7265625 C-2.61482481 43.78583247 -7.4198027 44.31337413 -13.359375 43.1640625 C-18.52282653 41.24420531 -22.79890146 37.75250692 -25.5078125 32.93359375 C-27.73937793 25.67588783 -27.860422 16.56304923 -25.40234375 9.359375 C-19.93106094 0.15372456 -10.25158809 -3.63218518 0 0 Z " fill="#C5242B" transform="translate(1069.359375,1064.8359375)" />
<path d="M0 0 C3.71898763 1.29356091 5.33669146 3.14904357 7.3125 6.4375 C10.07369108 12.5684712 10.00720983 19.19184149 8.3046875 25.62890625 C6.32131308 30.68734438 4.11838682 33.73609814 -1 36 C-5.13322607 36.65606763 -7.41203202 36.96334653 -10.99609375 34.7890625 C-14.14149462 32.21258029 -16.61379409 29.88399203 -18 26 C-18.2446335 23.16111358 -18.3701245 20.46254244 -18.375 17.625 C-18.39949219 16.8825 -18.42398438 16.14 -18.44921875 15.375 C-18.47708586 10.11740491 -17.48764713 7.14846448 -14 3 C-9.78317487 -1.02168031 -5.53506071 -0.63000691 0 0 Z " fill="#FDFAFA" transform="translate(616,962)" />
<path d="M0 0 C3.91614871 1.78006759 5.53710189 3.2902229 7.875 6.875 C10.25870766 13.41600733 10.3047155 21.93136747 7.6015625 28.2890625 C5.28475276 32.21068679 3.36111838 34.54629387 -1 36 C-6.03159842 36.49491132 -8.00123072 36.64071992 -12.3125 33.875 C-18.18025449 27.59786729 -18.58125043 21.97403625 -18.42578125 13.65234375 C-17.8617112 8.81376121 -16.40354957 5.48024928 -13 2 C-8.73191307 -0.84539129 -5.00803677 -0.61625375 0 0 Z " fill="#FDFAFA" transform="translate(1020,962)" />
<path d="M0 0 C4.16452753 3.24619582 6.66529076 6.54019785 8.09765625 11.71875 C8.15953125 12.399375 8.22140625 13.08 8.28515625 13.78125 C6.30515625 13.78125 4.32515625 13.78125 2.28515625 13.78125 C1.89328125 12.70875 1.50140625 11.63625 1.09765625 10.53125 C-1.05461946 5.57601058 -3.97154936 3.48527273 -8.96484375 1.46875 C-16.0958645 0.1613962 -22.38159014 1.30416959 -28.71484375 4.78125 C-31.04415185 7.02621542 -31.04415185 7.02621542 -32.71484375 9.78125 C-33.27171875 10.626875 -33.82859375 11.4725 -34.40234375 12.34375 C-37.47965073 20.40336351 -38.08189769 31.11133009 -34.70703125 39.1953125 C-32.07429052 44.27865467 -29.42897809 48.32441282 -23.90234375 50.4921875 C-17.64860567 52.37319466 -12.32960618 51.99178816 -6.33984375 49.21875 C-5.47359375 48.744375 -4.60734375 48.27 -3.71484375 47.78125 C-3.05484375 47.78125 -2.39484375 47.78125 -1.71484375 47.78125 C-0.04282195 44.6179655 1.20736761 41.3990582 2.41015625 38.03125 C2.76335938 37.04640625 3.1165625 36.0615625 3.48046875 35.046875 C3.74601563 34.29921875 4.0115625 33.5515625 4.28515625 32.78125 C5.93515625 32.78125 7.58515625 32.78125 9.28515625 32.78125 C8.12135883 40.28513781 6.14071718 46.66427631 0.0625 51.578125 C-7.20421899 56.54076236 -12.94126532 57.54607004 -21.71484375 56.78125 C-28.4174097 55.07214716 -33.57792511 51.28281453 -37.71484375 45.78125 C-42.81358987 36.60660652 -44.17247519 27.20729125 -42.13671875 16.8359375 C-39.43949291 8.22933505 -34.00184061 1.63924791 -26.52734375 -3.34375 C-16.8737215 -5.55933544 -8.52164384 -5.32132104 0 0 Z " fill="#C93036" transform="translate(523.71484375,1051.21875)" />
<path d="M0 0 C4.41548534 2.54573585 7.95454548 5.51658081 10.5625 9.9375 C11.4375 13.375 11.4375 13.375 11.5625 15.9375 C9.9125 15.9375 8.2625 15.9375 6.5625 15.9375 C6.26859375 15.14085937 6.26859375 15.14085937 5.96875 14.328125 C3.84508017 9.3118704 1.8402253 6.73001938 -3.234375 4.625 C-9.612405 2.63469277 -15.05515772 2.37490785 -21.36328125 4.796875 C-27.2024884 8.0078891 -30.46123418 13.71853651 -32.4375 19.9375 C-34.01966701 29.23851395 -33.06179314 38.4087026 -28.26953125 46.6015625 C-24.42846568 51.49912585 -19.96136591 52.83643451 -14 53.875 C-9.04358481 54.2174121 -4.82754229 53.26063522 -0.4375 50.9375 C4.61274891 46.43619119 5.99062626 41.40390741 7.5625 34.9375 C9.2125 34.9375 10.8625 34.9375 12.5625 34.9375 C11.91407868 42.45918732 10.51203186 47.35541348 4.8125 52.625 C-1.57476518 57.85515192 -7.1508666 59.58428356 -15.37109375 59.34765625 C-21.9367066 58.46945326 -27.30684501 55.51981497 -31.8125 50.6875 C-32.72591441 49.46528925 -33.60200392 48.21424245 -34.4375 46.9375 C-34.85 46.33808594 -35.2625 45.73867187 -35.6875 45.12109375 C-39.87704927 37.68755321 -39.54174131 28.19175132 -38.4375 19.9375 C-37.26971459 15.88025344 -35.69064457 12.49681534 -33.4375 8.9375 C-32.839375 7.98875 -32.24125 7.04 -31.625 6.0625 C-23.01678518 -2.29976582 -11.19677599 -5.18999495 0 0 Z " fill="#C93238" transform="translate(833.4375,1049.0625)" />
<path d="M0 0 C0.91116273 9.33098129 0.91116273 9.33098129 -1.23046875 13.25390625 C-4.35691404 16.95160327 -6.57557119 18.74090074 -11.55859375 19.2734375 C-19.30841229 19.5468368 -19.30841229 19.5468368 -22.6875 16.875 C-24.22855021 13.49936622 -24.70055248 11.65844072 -24 8 C-20.57103364 3.88524037 -16.61545117 3.28208163 -11.578125 2.4375 C-9.15547235 2.02638319 -6.81520652 1.49080888 -4.4375 0.875 C-1 0 -1 0 0 0 Z " fill="#FDF9F9" transform="translate(609,1084)" />
<path d="M0 0 C4.35733382 2.41043999 6.21617962 5.39962114 8 10 C8 11.65 8 13.3 8 15 C-1.24 15 -10.48 15 -20 15 C-17.66666667 5.66666667 -17.66666667 5.66666667 -13 1 C-8.6555087 -0.44816377 -4.54016477 -0.51576272 0 0 Z " fill="#FBF2F2" transform="translate(1067,1068)" />
<path d="M0 0 C0.36076925 5.07081218 0.5619882 8.87602359 -1.75 13.5 C-4.56326449 16.62584944 -6.46182548 17.82582436 -10.65625 18.30078125 C-12.06390625 18.30658203 -12.06390625 18.30658203 -13.5 18.3125 C-14.4384375 18.32925781 -15.376875 18.34601563 -16.34375 18.36328125 C-19.44890811 17.93860521 -20.77693044 17.18274177 -23 15 C-24.0625 11.625 -24.0625 11.625 -24 8 C-20.20257782 3.0284238 -16.75198112 2.02783337 -10.875 1.1875 C-10.15957031 1.06697266 -9.44414063 0.94644531 -8.70703125 0.82226562 C-5.77453153 0.34265119 -2.97488181 0 0 0 Z " fill="#FDF8F8" transform="translate(922,1085)" />
<path d="M0 0 C2.16752082 2.16752082 2.69137536 3.50414252 3.69140625 6.359375 C3.99626953 7.22820313 4.30113281 8.09703125 4.61523438 8.9921875 C4.92783203 9.90226563 5.24042969 10.81234375 5.5625 11.75 C6.03719727 13.09191406 6.03719727 13.09191406 6.52148438 14.4609375 C8.12389902 19.07425865 9.18581218 23.11487309 10 28 C3.4 28 -3.2 28 -10 28 C-8.32346585 21.29386339 -6.30033915 14.84063814 -3.875 8.375 C-3.60929199 7.66408203 -3.34358398 6.95316406 -3.06982422 6.22070312 C-1.13281863 1.13281863 -1.13281863 1.13281863 0 0 Z " fill="#FBF5F5" transform="translate(802,950)" />
<path d="M0 0 C0 1.65 0 3.3 0 5 C-0.59167969 5.07476563 -1.18335938 5.14953125 -1.79296875 5.2265625 C-6.03607757 5.93259366 -9.12543719 6.51710362 -12 9.875 C-14.87155693 14.3618077 -15.13515702 17.79600471 -15.31640625 23.078125 C-15.35830078 24.23828125 -15.40019531 25.3984375 -15.44335938 26.59375 C-15.50233398 28.40359375 -15.50233398 28.40359375 -15.5625 30.25 C-15.62727539 32.08304688 -15.62727539 32.08304688 -15.69335938 33.953125 C-15.79937355 36.9686392 -15.90143936 39.98423448 -16 43 C-17.65 43 -19.3 43 -21 43 C-21 29.14 -21 15.28 -21 1 C-19.35 1 -17.7 1 -16 1 C-15.67 3.31 -15.34 5.62 -15 8 C-14.29875 7.05125 -13.5975 6.1025 -12.875 5.125 C-9.24465838 0.76447635 -5.59070539 0 0 0 Z " fill="#CA373D" transform="translate(687,1064)" />
<path d="M0 0 C0 1.32 0 2.64 0 4 C-0.60328125 4.24234375 -1.2065625 4.4846875 -1.828125 4.734375 C-8.18623564 7.29824895 -8.18623564 7.29824895 -13 12 C-15.36194207 18.37985828 -15.43270427 24.6871187 -15.625 31.4375 C-15.66367187 32.55060547 -15.70234375 33.66371094 -15.7421875 34.81054688 C-15.83590966 37.54020476 -15.92162294 40.26986563 -16 43 C-17.32 43 -18.64 43 -20 43 C-20 29.14 -20 15.28 -20 1 C-18.68 1 -17.36 1 -16 1 C-16 3.64 -16 6.28 -16 9 C-15.236875 8.236875 -14.47375 7.47375 -13.6875 6.6875 C-12.800625 5.800625 -11.91375 4.91375 -11 4 C-10.505 3.4225 -10.01 2.845 -9.5 2.25 C-6.70929469 -0.07558776 -3.50785565 0 0 0 Z " fill="#C5232A" transform="translate(1000,1064)" />
<path d="M0 0 C-0.66 0.66 -1.32 1.32 -2 2 C0.475 2.495 0.475 2.495 3 3 C3 3.33 3 3.66 3 4 C1.98679687 4.16435547 1.98679687 4.16435547 0.953125 4.33203125 C-0.38492188 4.56986328 -0.38492188 4.56986328 -1.75 4.8125 C-3.07257812 5.03873047 -3.07257812 5.03873047 -4.421875 5.26953125 C-7.24356941 6.06901133 -8.8760935 6.988392 -11 9 C-11.48281329 12.24174639 -11.37764424 14.21511999 -9.953125 17.17578125 C-7.48982199 19.47650627 -5.69590768 19.41516851 -2.40429688 19.3515625 C-1.71400391 19.31804687 -1.02371094 19.28453125 -0.3125 19.25 C0.38939453 19.23195313 1.09128906 19.21390625 1.81445312 19.1953125 C3.54355436 19.14826213 5.27195205 19.07651873 7 19 C7 19.99 7 20.98 7 22 C1.94009819 25.11378573 -2.2110539 25.75733524 -8 25 C-11.53050621 23.75778485 -13.40967318 22.66903706 -15.875 19.875 C-17.45453656 15.83840657 -17.82336475 12.27217559 -17 8 C-12.66622399 2.13665598 -7.24876665 -0.51776905 0 0 Z " fill="#C82F35" transform="translate(597,1083)" />
<path d="M0 0 C0 0.33 0 0.66 0 1 C-1.65 1.33 -3.3 1.66 -5 2 C-5 2.99 -5 3.98 -5 5 C-5.969375 5.37125 -6.93875 5.7425 -7.9375 6.125 C-11.2482038 7.70349124 -11.2482038 7.70349124 -12 10.9375 C-12 14.04126504 -11.76752106 15.48825955 -10 18 C-6.73933582 19.63033209 -3.13515192 19.3432424 0.46875 19.5234375 C1.72171875 19.75933594 1.72171875 19.75933594 3 20 C3.66 20.99 4.32 21.98 5 23 C0.44567394 25.3506199 -3.98382516 25.72544328 -9 25 C-12.83019557 23.01397267 -16.04532347 20.90935305 -18 17 C-18.65145248 11.9512433 -18.64785757 10.04049852 -15.9375 5.6875 C-11.05859073 1.22381705 -6.60093521 -0.48299526 0 0 Z " fill="#C72B32" transform="translate(911,1083)" />
<path d="M0 0 C2 3 2 3 3.3125 6 C5.27180207 9.48320368 6.29242804 10.54921097 10 12 C14.23029539 12.55378412 17.80599502 12.45106855 21.8125 10.9375 C24.79249783 8.29807335 26.19509439 5.54296286 28 2 C29.32 2 30.64 2 32 2 C30.95413278 7.40965804 29.50842444 11.19932828 25 14.5625 C19.75228337 17.61726838 14.93163692 18.16358069 9 17 C3.31543527 14.74708722 -0.15324565 11.33766441 -3 6 C-3 5.34 -3 4.68 -3 4 C-2.34 4 -1.68 4 -1 4 C-0.67 2.68 -0.34 1.36 0 0 Z " fill="#CA343B" transform="translate(1047,1091)" />
<path d="M0 0 C9.29817494 -0.78104669 15.4421452 -0.95587645 23.046875 4.98046875 C26.54500662 8.59753685 28.29025579 12.03179053 29 17 C27.02 17 25.04 17 23 17 C22.608125 15.9275 22.21625 14.855 21.8125 13.75 C20.14098912 9.98150274 18.67408962 8.09947978 15 6 C11.03895957 4.80031152 7.04882962 3.85238518 3 3 C3 2.34 3 1.68 3 1 C2.01 0.67 1.02 0.34 0 0 Z " fill="#C82E34" transform="translate(503,1048)" />
<path d="M0 0 C8.24033673 -0.63297039 14.5547914 -0.93978452 21.2265625 4.35546875 C25.54443939 8.35949116 27.44587736 11.04318161 28 17 C26.35 17 24.7 17 23 17 C22.70609375 16.20335937 22.70609375 16.20335937 22.40625 15.390625 C20.27492948 10.35629894 18.2911075 7.89273125 13.23828125 5.7421875 C9.55009456 4.51922856 5.82409462 3.67275739 2 3 C2 2.34 2 1.68 2 1 C1.34 0.67 0.68 0.34 0 0 Z " fill="#C72A31" transform="translate(817,1048)" />
<path d="M0 0 C0.66 0.33 1.32 0.66 2 1 C2.66 4.96 3.32 8.92 4 13 C-6.56 13 -17.12 13 -28 13 C-28 12.01 -28 11.02 -28 10 C-19.09 10 -10.18 10 -1 10 C-1.33 7.69 -1.66 5.38 -2 3 C-1.34 2.01 -0.68 1.02 0 0 Z " fill="#C2161D" transform="translate(1076,1073)" />
<path d="M0 0 C2 3 2 3 3.25 5.9375 C5.30734151 9.53784765 7.56383906 10.78558517 11 13 C11 13.99 11 14.98 11 16 C13.97 16 16.94 16 20 16 C20 16.33 20 16.66 20 17 C13.28579834 17.55540271 8.24821994 17.53144291 2.66015625 13.50390625 C0.13623048 11.21752644 -1.39529332 9.00882502 -3 6 C-3 5.34 -3 4.68 -3 4 C-2.34 4 -1.68 4 -1 4 C-0.67 2.68 -0.34 1.36 0 0 Z " fill="#C93339" transform="translate(1047,1091)" />
<path d="M0 0 C0.33 0.99 0.66 1.98 1 3 C0.33613281 3.03738281 -0.32773437 3.07476563 -1.01171875 3.11328125 C-8.06183724 3.51645137 -8.06183724 3.51645137 -14 7 C-15.35980881 10.07561246 -15.35980881 10.07561246 -16 13 C-17.32 13 -18.64 13 -20 13 C-19.51376147 6.67889908 -19.51376147 6.67889908 -17.25 3.6875 C-11.71235944 -0.46573042 -6.68889369 -0.23378658 0 0 Z " fill="#C52027" transform="translate(916,1064)" />
<path d="M0 0 C6.84162756 -0.56594346 11.6661411 -0.3745744 17.44140625 3.515625 C19.19931055 5.18981957 20.04751994 6.78228524 21 9 C20.01 10.485 20.01 10.485 19 12 C18.34 12 17.68 12 17 12 C16.690625 11.13375 16.690625 11.13375 16.375 10.25 C14.42799025 7.06398404 12.26113112 5.7843925 9 4 C6.66905466 3.6503582 4.33595238 3.31445513 2 3 C1.34 2.01 0.68 1.02 0 0 Z " fill="#C6282F" transform="translate(1056,1064)" />
<path d="M0 0 C0.33 0 0.66 0 1 0 C1.33 9.9 1.66 19.8 2 30 C2.99 30.33 3.98 30.66 5 31 C5 32.32 5 33.64 5 35 C2.1875 35.25 2.1875 35.25 -1 35 C-2.9375 33.1875 -2.9375 33.1875 -4 31 C-3.505 29.515 -3.505 29.515 -3 28 C-2.34 28 -1.68 28 -1 28 C-0.67 18.76 -0.34 9.52 0 0 Z " fill="#D04B51" transform="translate(613,1072)" />
<path d="M0 0 C0 1.32 0 2.64 0 4 C-0.59167969 4.24234375 -1.18335938 4.4846875 -1.79296875 4.734375 C-6.39947246 6.68819387 -10.24251192 8.6061398 -14 12 C-14 11.34 -14 10.68 -14 10 C-14.66 9.67 -15.32 9.34 -16 9 C-14.33333333 7.33333333 -12.66666667 5.66666667 -11 4 C-10.505 3.4225 -10.01 2.845 -9.5 2.25 C-6.70929469 -0.07558776 -3.50785565 0 0 0 Z " fill="#C93137" transform="translate(1000,1064)" />
<path d="M0 0 C2.12438339 -0.08078641 4.2496323 -0.13909141 6.375 -0.1875 C7.55835938 -0.22230469 8.74171875 -0.25710938 9.9609375 -0.29296875 C11.46527344 -0.14794922 11.46527344 -0.14794922 13 0 C13.66 0.99 14.32 1.98 15 3 C10.35150485 5.3992233 6.08913926 5.19957409 1 5 C0.67 3.35 0.34 1.7 0 0 Z " fill="#CC3F45" transform="translate(901,1103)" />
<path d="M0 0 C1.15949582 3.47848747 0.83619752 5.34481973 0.25 8.9375 C0.01023437 10.49791016 0.01023437 10.49791016 -0.234375 12.08984375 C-1.01739227 15.06610839 -1.98940314 16.70769864 -4 19 C-6.08169132 14.83661737 -5.2212743 9.93616052 -4.1875 5.5625 C-3.795625 4.716875 -3.40375 3.87125 -3 3 C-2.01 2.67 -1.02 2.34 0 2 C0 1.34 0 0.68 0 0 Z " fill="#C52128" transform="translate(800,1066)" />
<path d="M0 0 C0.6875 1.8125 0.6875 1.8125 1 4 C-1.03994424 6.94658613 -3.67498458 7.89633806 -7 9 C-10.11328125 9.1953125 -10.11328125 9.1953125 -13.3125 9.125 C-14.38113281 9.10695313 -15.44976563 9.08890625 -16.55078125 9.0703125 C-17.35902344 9.04710937 -18.16726563 9.02390625 -19 9 C-19 8.67 -19 8.34 -19 8 C-16.36 7.67 -13.72 7.34 -11 7 C-10.67 6.01 -10.34 5.02 -10 4 C-7.96875 3.0859375 -7.96875 3.0859375 -5.5 2.375 C-2.48411921 1.65305469 -2.48411921 1.65305469 0 0 Z " fill="#CC3E44" transform="translate(834,1099)" />
<path d="M0 0 C0.86625 0.268125 1.7325 0.53625 2.625 0.8125 C4.95677975 1.15653308 7.28987041 1.49199202 9.625 1.8125 C9.625 2.1425 9.625 2.4725 9.625 2.8125 C8.50351563 2.97685547 8.50351563 2.97685547 7.359375 3.14453125 C6.37453125 3.30308594 5.3896875 3.46164062 4.375 3.625 C3.40046875 3.77582031 2.4259375 3.92664062 1.421875 4.08203125 C-1.53229347 4.85358084 -2.97591112 6.00326975 -5.375 7.8125 C-6.695 7.8125 -8.015 7.8125 -9.375 7.8125 C-7.72512402 3.61281568 -4.88030072 -0.3852869 0 0 Z " fill="#C9353B" transform="translate(1055.375,1065.1875)" />
<path d="M0 0 C0 1.65 0 3.3 0 5 C-2.64 5.33 -5.28 5.66 -8 6 C-8.33 5.34 -8.66 4.68 -9 4 C-9.66 3.67 -10.32 3.34 -11 3 C-4.5 0 -4.5 0 0 0 Z " fill="#CB3B42" transform="translate(687,1064)" />
<path d="M0 0 C1.79133978 -0.05391993 3.58313899 -0.09275571 5.375 -0.125 C6.37273437 -0.14820313 7.37046875 -0.17140625 8.3984375 -0.1953125 C11 0 11 0 13 2 C13 2.99 13 3.98 13 5 C11.20601116 4.74500159 9.41479125 4.47046186 7.625 4.1875 C6.62726563 4.03667969 5.62953125 3.88585938 4.6015625 3.73046875 C2 3 2 3 0 0 Z " fill="#C5232A" transform="translate(1056,1064)" />
<path d="M0 0 C1.28132813 0.00902344 2.56265625 0.01804687 3.8828125 0.02734375 C4.87023437 0.03894531 5.85765625 0.05054688 6.875 0.0625 C6.875 0.3925 6.875 0.7225 6.875 1.0625 C2.42 1.5575 2.42 1.5575 -2.125 2.0625 C-2.455 3.0525 -2.785 4.0425 -3.125 5.0625 C-5.105 5.0625 -7.085 5.0625 -9.125 5.0625 C-9.125 3.7425 -9.125 2.4225 -9.125 1.0625 C-6.12186252 -0.43906874 -3.33432478 -0.03031204 0 0 Z " fill="#CE454A" transform="translate(508.125,1046.9375)" />
<path d="M0 0 C2.875 -0.1875 2.875 -0.1875 6 0 C6.66 0.99 7.32 1.98 8 3 C11.06556598 3.73343428 11.06556598 3.73343428 14 4 C14 4.33 14 4.66 14 5 C12.04196493 5.05389087 10.08351091 5.09274217 8.125 5.125 C7.03445313 5.14820313 5.94390625 5.17140625 4.8203125 5.1953125 C2 5 2 5 0 3 C0 2.01 0 1.02 0 0 Z " fill="#CE464C" transform="translate(500,1103)" />
<path d="M0 0 C2.31 0 4.62 0 7 0 C8.25664978 2.90600261 9 4.79604584 9 8 C6.5 6.625 6.5 6.625 4 5 C4 4.34 4 3.68 4 3 C2.68 2.34 1.36 1.68 0 1 C0 0.67 0 0.34 0 0 Z " fill="#C72D33" transform="translate(594,718)" />
<path d="M0 0 C3.3 0 6.6 0 10 0 C10.33 0.99 10.66 1.98 11 3 C7.37 3 3.74 3 0 3 C0 2.01 0 1.02 0 0 Z " fill="#C41D24" transform="translate(814,1104)" />
<path d="M0 0 C0.99 0.33 1.98 0.66 3 1 C1.60667426 4.36720387 0.0210714 5.9859524 -3 8 C-3.33 6.35 -3.66 4.7 -4 3 C-2.1875 1.4375 -2.1875 1.4375 0 0 Z " fill="#C62B31" transform="translate(889,772)" />
<path d="M0 0 C0 0.66 0 1.32 0 2 C-1.62463842 2.05395478 -3.24978541 2.09277195 -4.875 2.125 C-5.77992188 2.14820313 -6.68484375 2.17140625 -7.6171875 2.1953125 C-10 2 -10 2 -12 0 C-8.04395608 -1.21724428 -3.79359325 -1.89679663 0 0 Z " fill="#C31B22" transform="translate(605,1084)" />
<path d="M0 0 C2.97 0 5.94 0 9 0 C9 0.99 9 1.98 9 3 C6.03 3 3.06 3 0 3 C0 2.01 0 1.02 0 0 Z " fill="#C6242B" transform="translate(1058,1104)" />
<path d="M0 0 C1.6396875 0.0928125 1.6396875 0.0928125 3.3125 0.1875 C3.6425 1.1775 3.9725 2.1675 4.3125 3.1875 C0.6825 3.1875 -2.9475 3.1875 -6.6875 3.1875 C-3.6875 0.1875 -3.6875 0.1875 0 0 Z " fill="#C41C23" transform="translate(510.6875,1103.8125)" />
<path d="M0 0 C0.33 0.99 0.66 1.98 1 3 C-0.65 3.66 -2.3 4.32 -4 5 C-4.33 4.34 -4.66 3.68 -5 3 C-7.01669827 1.86649466 -7.01669827 1.86649466 -9 1 C-5.92677456 0.08941469 -3.19902639 -0.08886184 0 0 Z " fill="#CB3B41" transform="translate(519,1102)" />
<path d="M0 0 C0.66 0.33 1.32 0.66 2 1 C0.88200014 2.33920838 -0.24461897 3.67122556 -1.375 5 C-2.00148438 5.7425 -2.62796875 6.485 -3.2734375 7.25 C-4.12808594 8.11625 -4.12808594 8.11625 -5 9 C-5.66 9 -6.32 9 -7 9 C-5.44499019 5.18315774 -2.96404505 2.80804268 0 0 Z " fill="#CA353B" transform="translate(594,954)" />
<path d="M0 0 C0.99 0.33 1.98 0.66 3 1 C1.02 3.31 -0.96 5.62 -3 8 C-3.33 6.68 -3.66 5.36 -4 4 C-2.0625 1.75 -2.0625 1.75 0 0 Z " fill="#CB3940" transform="translate(854,807)" />
<path d="M0 0 C0.99 0.66 1.98 1.32 3 2 C0.36 3.98 -2.28 5.96 -5 8 C-4.64950425 4.75791433 -4.43778819 3.38472296 -1.9375 1.1875 C-1.298125 0.795625 -0.65875 0.40375 0 0 Z " fill="#CA2F37" transform="translate(927,737)" />
<path d="M0 0 C1.32 0 2.64 0 4 0 C4 0.99 4 1.98 4 3 C6.97 3 9.94 3 13 3 C13 3.33 13 3.66 13 4 C11.20841511 4.02696365 9.41671527 4.04637917 7.625 4.0625 C6.62726563 4.07410156 5.62953125 4.08570313 4.6015625 4.09765625 C2 4 2 4 0 3 C0 2.01 0 1.02 0 0 Z " fill="#CF4B50" transform="translate(1054,1104)" />
<path d="M0 0 C0 0.99 0 1.98 0 3 C-1.32 3.33 -2.64 3.66 -4 4 C-4 3.34 -4 2.68 -4 2 C-6.97 2 -9.94 2 -13 2 C-13 1.67 -13 1.34 -13 1 C-11.58366664 0.83052421 -10.16691467 0.66454493 -8.75 0.5 C-7.56664062 0.36078125 -7.56664062 0.36078125 -6.359375 0.21875 C-4 0 -4 0 0 0 Z " fill="#CE4A4F" transform="translate(604,1102)" />
<path d="M0 0 C0 0.33 0 0.66 0 1 C-1.65 1.33 -3.3 1.66 -5 2 C-5.33 2.99 -5.66 3.98 -6 5 C-7.65 5 -9.3 5 -11 5 C-11 4.01 -11 3.02 -11 2 C-7.17010894 0.19769832 -4.21878192 -0.19622241 0 0 Z " fill="#CE454B" transform="translate(911,1083)" />
<path d="M0 0 C0 1.32 0 2.64 0 4 C-1.98 4.33 -3.96 4.66 -6 5 C-5.625 3.0625 -5.625 3.0625 -5 1 C-3 0 -3 0 0 0 Z " fill="#C6242B" transform="translate(1000,1064)" />
<path d="M0 0 C0.66 0.33 1.32 0.66 2 1 C-1.32307692 6.78461538 -1.32307692 6.78461538 -4.75 7.875 C-5.4925 7.91625 -6.235 7.9575 -7 8 C-6.02133662 6.85373678 -5.04205413 5.70800212 -4.0625 4.5625 C-3.51722656 3.92441406 -2.97195313 3.28632812 -2.41015625 2.62890625 C-1.63204305 1.73008851 -0.84063472 0.84063472 0 0 Z " fill="#CA373E" transform="translate(809,759)" />
<path d="M0 0 C1.32 0 2.64 0 4 0 C3.67 1.65 3.34 3.3 3 5 C1.68 5.33 0.36 5.66 -1 6 C-1.042721 4.33388095 -1.04063832 2.66617115 -1 1 C-0.67 0.67 -0.34 0.34 0 0 Z " fill="#C72930" transform="translate(1075,1093)" />
<path d="M0 0 C1.98 0 3.96 0 6 0 C5.34 0.66 4.68 1.32 4 2 C5.65 2.33 7.3 2.66 9 3 C9 3.33 9 3.66 9 4 C4.545 4.495 4.545 4.495 0 5 C0 3.35 0 1.7 0 0 Z " fill="#CF4C51" transform="translate(591,1083)" />
<path d="M0 0 C1.65 0.33 3.3 0.66 5 1 C3.85546875 2.48828125 3.85546875 2.48828125 2 4 C-0.69921875 4.29296875 -0.69921875 4.29296875 -3.6875 4.1875 C-4.68136719 4.16042969 -5.67523437 4.13335938 -6.69921875 4.10546875 C-7.45847656 4.07066406 -8.21773437 4.03585937 -9 4 C-9 3.67 -9 3.34 -9 3 C-5.92382812 2.70703125 -5.92382812 2.70703125 -2.84765625 2.4140625 C-2.23792969 2.27742188 -1.62820313 2.14078125 -1 2 C-0.67 1.34 -0.34 0.68 0 0 Z " fill="#D3585D" transform="translate(916,1064)" />
<path d="M0 0 C3.3 0 6.6 0 10 0 C9.01 0.33 8.02 0.66 7 1 C7 1.66 7 2.32 7 3 C5.35 3 3.7 3 2 3 C2 2.34 2 1.68 2 1 C1.34 0.67 0.68 0.34 0 0 Z " fill="#C31921" transform="translate(817,1048)" />
<path d="M0 0 C3.3 0 6.6 0 10 0 C9.01 0.495 9.01 0.495 8 1 C8 1.66 8 2.32 8 3 C6.35 3 4.7 3 3 3 C3 2.34 3 1.68 3 1 C2.01 0.67 1.02 0.34 0 0 Z " fill="#C31921" transform="translate(503,1048)" />
<path d="M0 0 C0.66 0 1.32 0 2 0 C1.60196439 2.88575819 1.20990931 3.82189513 -1.0625 5.75 C-1.701875 6.1625 -2.34125 6.575 -3 7 C-3.33 5.68 -3.66 4.36 -4 3 C-2.68 2.67 -1.36 2.34 0 2 C0 1.34 0 0.68 0 0 Z " fill="#C82D34" transform="translate(860,801)" />
<path d="M0 0 C0.33 0.66 0.66 1.32 1 2 C0 5 0 5 -3.0625 6.6875 C-4.031875 7.120625 -5.00125 7.55375 -6 8 C-4.55746343 4.63408134 -2.66735273 2.48952921 0 0 Z " fill="#C82F35" transform="translate(795,773)" />
<path d="M0 0 C0 0.99 0 1.98 0 3 C-3.63 2.34 -7.26 1.68 -11 1 C-11 0.67 -11 0.34 -11 0 C-3.375 -1.125 -3.375 -1.125 0 0 Z " fill="#C1121A" transform="translate(1069,1066)" />
<path d="M0 0 C0 0.99 0 1.98 0 3 C-1.98 3 -3.96 3 -6 3 C-6 2.01 -6 1.02 -6 0 C-3 -1 -3 -1 0 0 Z " fill="#C72A31" transform="translate(819,1049)" />
<path d="M0 0 C1.65 1.65 3.3 3.3 5 5 C4.34 5.66 3.68 6.32 3 7 C1.68 5.35 0.36 3.7 -1 2 C-0.67 1.34 -0.34 0.68 0 0 Z " fill="#C73238" transform="translate(699,806)" />
<path d="M0 0 C0.66 0 1.32 0 2 0 C1.60196439 2.88575819 1.20990931 3.82189513 -1.0625 5.75 C-1.701875 6.1625 -2.34125 6.575 -3 7 C-2.25 2.25 -2.25 2.25 0 0 Z " fill="#C8373D" transform="translate(910,753)" />
<path d="M0 0 C-1.39332574 3.36720387 -2.9789286 4.9859524 -6 7 C-6.66 6.67 -7.32 6.34 -8 6 C-7.0479279 4.99403703 -6.08812654 3.99538437 -5.125 3 C-4.59132813 2.443125 -4.05765625 1.88625 -3.5078125 1.3125 C-2 0 -2 0 0 0 Z " fill="#C82B31" transform="translate(822,749)" />
<path d="M0 0 C0 3.28176588 -0.47835901 5.10888212 -2 8 C-4.125 8.8125 -4.125 8.8125 -6 9 C-4.16172132 5.84866512 -2.24027294 2.88035092 0 0 Z " fill="#CB2C35" transform="translate(850,720)" />
<path d="M0 0 C-1.29299694 2.88437779 -2.65941363 4.87219421 -5 7 C-5.33 6.01 -5.66 5.02 -6 4 C-2.25 0 -2.25 0 0 0 Z " fill="#CA333A" transform="translate(829,742)" />
</svg>