<?xml version="1.0" encoding="UTF-8"?>
<svg version="1.1" xmlns="http://www.w3.org/2000/svg" viewBox="1470 2260 1260 1040" width="100%" height="100%">
<path d="M0 0 C1.33417969 1.02287109 1.33417969 1.02287109 2.6953125 2.06640625 C13.4825266 10.60497368 23.3870589 20.28900122 33.04296875 30.0703125 C35.50411847 32.4970749 38.08943328 34.74536005 40.7109375 36.99609375 C43.64962695 39.56870072 46.51133442 42.21945807 49.375 44.875 C54.87146341 49.96797357 60.41655246 55.00235679 66 60 C73.17381889 66.42115592 80.27048026 72.92017769 87.33544922 79.46044922 C88.95239223 80.95596735 90.57144131 82.44916259 92.19140625 83.94140625 C99.8168561 90.96648238 107.41129112 98.02418773 114.98046875 105.10986328 C116.36787279 106.40837417 117.75592936 107.70618811 119.14453125 109.00341797 C127.02810738 116.37064087 134.88018974 123.74222474 142.41015625 131.47265625 C144.37651521 133.3915616 146.34452228 135.15935184 148.43359375 136.93359375 C155.62924415 143.17151025 162.18037498 150.12760536 168.87304688 156.89355469 C170.70489754 158.74366619 172.53988307 160.59062912 174.375 162.4375 C174.9210791 162.99187744 175.4671582 163.54625488 176.02978516 164.11743164 C178.89969645 167.0050905 181.83408683 169.75870362 184.91577148 172.42016602 C189.11535427 176.05399669 193.05280594 179.90833266 196.97265625 183.83984375 C197.69940048 184.56563126 198.42614471 185.29141876 199.1749115 186.03919983 C200.69962296 187.56323556 202.2230915 189.08851569 203.74536133 190.61499023 C206.05633891 192.93132463 208.37260771 195.24227078 210.68945312 197.55273438 C212.1800082 199.04395034 213.670253 200.53547653 215.16015625 202.02734375 C216.18388084 203.048032 216.18388084 203.048032 217.22828674 204.08934021 C221.15187949 208.03183369 224.87184946 212.07643539 228.45140076 216.3349762 C230.09392728 218.22980482 230.09392728 218.22980482 233 220 C233.64066406 219.30132813 234.28132813 218.60265625 234.94140625 217.8828125 C243.87791849 208.48016326 243.87791849 208.48016326 250 208 C253.55077045 208.88769261 255.70465603 210.18102656 258 213 C259.04602051 215.89419556 259.04602051 215.89419556 260.00195312 219.48291016 C260.179986 220.13997389 260.35801888 220.79703762 260.54144669 221.47401237 C261.13110274 223.65988165 261.70613763 225.84932583 262.28125 228.0390625 C262.69500927 229.58426452 263.10967964 231.12922284 263.52520752 232.6739502 C264.63328905 236.80305911 265.72896973 240.935365 266.8223114 245.06839752 C267.94745048 249.31302162 269.0840429 253.5545742 270.21972656 257.79638672 C272.00709142 264.4773088 273.7884166 271.1598078 275.56445312 277.84375 C277.6192985 285.57622422 279.6869595 293.30513935 281.765625 301.03125 C282.03133301 302.01894379 282.29704102 303.00663757 282.57080078 304.02426147 C283.06562672 305.863416 283.56049703 307.70255858 284.05541992 309.54168701 C285.70931551 315.69292874 287.35457654 321.84648759 289 328 C285.08438206 329.30520598 282.34506534 328.2718376 278.50048828 327.22094727 C277.73708633 327.01936508 276.97368439 326.8177829 276.18714905 326.61009216 C273.64599573 325.93688145 271.10822713 325.25171656 268.5703125 324.56640625 C266.78337781 324.09020241 264.99625477 323.61470479 263.20895386 323.13987732 C258.47351967 321.8796098 253.74089772 320.60907064 249.00872803 319.33660889 C244.3096703 318.07519231 239.60780547 316.82433351 234.90625 315.57226562 C226.76654639 313.40305811 218.63165999 311.21646972 210.49965286 309.01859474 C205.72203105 307.72871301 200.94097817 306.45341174 196.15456581 305.1965456 C194.07762484 304.6499267 192.00216157 304.09806885 189.92721558 303.54393005 C187.4724789 302.88896068 185.01536415 302.2428084 182.55545044 301.6075592 C172.75947237 298.96641114 172.75947237 298.96641114 169 295 C167.36976186 291.73952371 167.5326465 289.62198965 168 286 C169.49270328 283.81770986 171.14061134 281.98581881 172.98046875 280.08984375 C175.47627688 277.50714095 177.72062405 274.77540595 180 272 C177.01669981 268.99168504 174.02990259 265.98689606 171.04003906 262.98510742 C170.02673848 261.96682708 169.01434288 260.94764526 168.00292969 259.92749023 C161.20167166 253.0360207 161.20167166 253.0360207 154.03125 246.53515625 C147.8045259 241.20971055 142.17022131 235.22427974 136.41796875 229.39746094 C129.40390807 222.24290471 129.40390807 222.24290471 122 215.5 C115.77944604 210.19196532 110.15892134 204.21283328 104.41796875 198.39746094 C97.40390807 191.24290471 97.40390807 191.24290471 90 184.5 C83.77944604 179.19196532 78.15892134 173.21283328 72.41796875 167.39746094 C65.42045297 160.25743361 65.42045297 160.25743361 58.03125 153.53125 C51.59623969 148.04021848 45.7859377 141.83905348 39.84521484 135.82470703 C34.38604706 130.30400013 28.94301017 124.84652739 23.02929688 119.80664062 C17.97462386 115.30657081 13.31385286 110.36116143 8.56347656 105.54296875 C3.42604019 100.33890351 -1.73055538 95.22164211 -7.29248047 90.46679688 C-9.61909334 88.46818519 -11.83140105 86.35412584 -14.0625 84.25 C-38.68796928 61.89400313 -68.15604691 46.90939195 -101.98046875 47.71875 C-130.34886057 49.39611241 -156.64557567 60.67436954 -176.3125 81.3125 C-194.21575102 102.03331183 -204.9513187 130.43243364 -203 158 C-199.56186108 199.45136497 -173.20820215 228.00717322 -144.93774414 256.19262695 C-142.80172643 258.32324634 -140.67115882 260.45921223 -138.54101562 262.59570312 C-137.15917493 263.9768835 -135.77702433 265.35775389 -134.39453125 266.73828125 C-133.77036819 267.36446854 -133.14620514 267.99065582 -132.50312805 268.63581848 C-128.75831265 272.36110835 -124.88727331 275.87582177 -120.89213562 279.33024597 C-118.15591204 281.74488279 -115.58853678 284.30479443 -113.03125 286.90625 C-112.50664185 287.43464478 -111.98203369 287.96303955 -111.44152832 288.50744629 C-109.23883885 290.72619584 -107.04229163 292.95098773 -104.84521484 295.17529297 C-99.35560141 300.72678873 -93.8824337 306.21895089 -87.93554688 311.28710938 C-83.07342156 315.58991856 -78.61849942 320.34749577 -74.06640625 324.97265625 C-69.82525671 329.25504874 -65.51976798 333.35024155 -60.94726562 337.27539062 C-56.7609538 340.98302687 -52.91385431 345.04876572 -49 349.0390625 C-45.11455668 352.97003836 -41.12472585 356.67858086 -36.9375 360.28515625 C-33.81496132 363.0488548 -30.91579429 366.02151819 -28 369 C-23.81461991 373.23406016 -19.60320477 377.31832043 -15.0546875 381.1640625 C-11.70009226 384.16151452 -8.58400679 387.39636791 -5.42358398 390.59594727 C-2.09385667 393.95093567 1.3394922 397.09740605 4.94140625 400.16015625 C8.0699892 402.95629016 10.98397609 405.96326184 13.92944336 408.94897461 C17.17380774 412.22037066 20.53626336 415.26971038 24.0390625 418.2578125 C27.09366353 420.97166122 29.91661543 423.90863752 32.78515625 426.81640625 C34.77659461 428.77974671 36.81302578 430.62079669 38.9375 432.4375 C53.75848432 445.2588277 68.35888394 461.30671747 70.25 481.6953125 C70.67911784 491.96732089 68.4058297 502.31038719 61.7109375 510.34765625 C54.52198372 517.29041298 47.44292788 518.3497947 37.77490234 518.3828125 C9.38697661 517.80677342 -13.42002709 485.70108596 -31.9375 467.0625 C-35.61323911 463.36292523 -39.29075774 459.66515153 -42.97250557 455.97155571 C-44.42128073 454.5164108 -45.86696119 453.05824267 -47.31248474 451.59986877 C-51.0520229 447.8464818 -54.77174072 444.12940727 -58.80688477 440.69311523 C-64.40195757 435.89099986 -69.52023456 430.58970333 -74.71307373 425.36209106 C-76.66256755 423.3996836 -78.61529925 421.44054846 -80.56884766 419.48217773 C-85.41725915 414.62048803 -90.26017769 409.75333856 -95.10327148 404.88635254 C-99.20705418 400.76275058 -103.31293967 396.64126374 -107.42156982 392.52249146 C-109.33342479 390.60421486 -111.24221206 388.68292257 -113.15087891 386.76147461 C-119.8957747 379.93977517 -119.8957747 379.93977517 -127 373.5 C-132.54263711 368.77862926 -137.58559808 363.52390211 -142.71307373 358.36209106 C-144.66256755 356.3996836 -146.61529925 354.44054846 -148.56884766 352.48217773 C-153.41725915 347.62048803 -158.26017769 342.75333856 -163.10327148 337.88635254 C-167.20705418 333.76275058 -171.31293967 329.64126374 -175.42156982 325.52249146 C-177.33342479 323.60421486 -179.24221206 321.68292257 -181.15087891 319.76147461 C-186.37141091 314.51912649 -191.58003216 309.35257389 -197.21725464 304.55343628 C-200.54698168 301.65200184 -203.63708444 298.50530794 -206.75390625 295.37890625 C-207.45845444 294.67531479 -208.16300262 293.97172333 -208.88890076 293.24681091 C-210.36653367 291.76985352 -211.84292457 290.29165258 -213.31811523 288.81225586 C-215.55666481 286.56834915 -217.80050473 284.32983296 -220.04492188 282.09179688 C-221.48990404 280.64615382 -222.93457592 279.20020055 -224.37890625 277.75390625 C-225.03951553 277.0953212 -225.70012482 276.43673615 -226.38075256 275.75819397 C-253.53002702 248.47400825 -273.82016314 215.74175501 -279 177 C-279.0913623 176.36731201 -279.18272461 175.73462402 -279.27685547 175.08276367 C-285.23349436 129.45236146 -272.09708249 83.29959654 -244.41210938 46.80078125 C-241.16167374 42.65568905 -237.61348394 38.82562585 -234 35 C-232.91243658 33.71189298 -231.82898087 32.42030466 -230.75 31.125 C-217.41183488 15.92498574 -200.65114646 3.7058382 -183 -6 C-182.3822168 -6.3398291 -181.76443359 -6.6796582 -181.12792969 -7.02978516 C-125.64012372 -37.07250972 -51.5649697 -40.39012499 0 0 Z " fill="#A470C1" transform="translate(2269,2303)"/>
<path d="M0 0 C1.06476562 0.49757813 2.12953125 0.99515625 3.2265625 1.5078125 C15.23311652 7.5532671 24.69800557 16.47803698 34.44970703 25.55859375 C36.0024245 27.00225421 37.56073427 28.43960543 39.12109375 29.875 C45.57902144 35.8171283 52.00206411 41.79591931 58.41333008 47.78833008 C62.42916854 51.53985317 66.4580537 55.27663075 70.5 59 C75.8264067 63.90659139 81.12343075 68.84394139 86.4140625 73.7890625 C90.42969951 77.54029543 94.45830753 81.27686457 98.5 85 C103.8264067 89.90659139 109.12343075 94.84394139 114.4140625 99.7890625 C118.42969951 103.54029543 122.45830753 107.27686457 126.5 111 C131.8264067 115.90659139 137.12343075 120.84394139 142.4140625 125.7890625 C146.42969951 129.54029543 150.45830753 133.27686457 154.5 137 C159.82792858 141.90799332 165.12670749 146.84649951 170.41845703 151.79345703 C173.87138907 155.01944411 177.33293568 158.23542614 180.81030273 161.43505859 C183.54490456 163.95162617 186.27285998 166.47535146 189 169 C189.92256592 169.85271484 189.92256592 169.85271484 190.86376953 170.72265625 C199.95535813 179.14357252 208.8517489 187.74900623 217.625 196.5 C218.54917725 197.41958496 219.47335449 198.33916992 220.42553711 199.28662109 C225.4926773 204.36531849 230.33476127 209.55238303 235 215 C236.00916874 216.1337853 237.02083653 217.26535183 238.03515625 218.39453125 C274.79424861 259.70411875 302.83224857 312.36286679 299.89599609 369.00634766 C296.76751121 417.36703584 268.43504505 458.52468782 232.98388672 489.77734375 C229.11647945 493.02941256 225.10257962 496.05286617 221 499 C219.95972656 499.76183594 218.91945313 500.52367188 217.84765625 501.30859375 C189.87151199 521.26191295 157.70083169 535.43381296 123 537 C122.15824219 537.04125 121.31648438 537.0825 120.44921875 537.125 C62.83016571 538.52394514 11.81899295 501.30729499 -29.921875 465.609375 C-32.71666189 463.22527908 -35.57051045 460.92194485 -38.4375 458.625 C-43.45175024 454.54908898 -48.18042287 450.21147206 -52.87866211 445.77978516 C-55.85427541 442.97484294 -58.86316719 440.22641043 -61.94921875 437.54296875 C-65.91972115 434.0891984 -69.7883466 430.53894149 -73.625 426.9375 C-74.65270508 425.97457031 -74.65270508 425.97457031 -75.70117188 424.9921875 C-80.95327363 420.04504649 -86.08680274 414.99032877 -91.13134766 409.83178711 C-93.83303779 407.08646771 -96.58040701 404.47539058 -99.51757812 401.98242188 C-104.39283606 397.7349178 -108.94051302 393.17325606 -113.49072266 388.58444214 C-115.0369274 387.02526273 -116.58641896 385.46941379 -118.13671875 383.91430664 C-121.98344225 380.05434197 -125.82464716 376.18890098 -129.66601562 372.3236084 C-132.92425696 369.04550558 -136.1846299 365.76955008 -139.44775391 362.49630737 C-140.96076052 360.97690534 -142.4706797 359.45448297 -143.98046875 357.93188477 C-148.55027533 353.33805358 -153.17922632 348.89165386 -158.1003418 344.67480469 C-161.61018733 341.58040289 -164.86851693 338.23300324 -168.15625 334.90625 C-168.9028186 334.15589478 -169.64938721 333.40553955 -170.4185791 332.63244629 C-173.57701112 329.45783496 -176.72939279 326.27724084 -179.88232422 323.09716797 C-182.20069745 320.76059639 -184.5221552 318.42712001 -186.84375 316.09375 C-187.54294556 315.3862561 -188.24214111 314.67876221 -188.96252441 313.9498291 C-192.91825 309.97472545 -196.97351463 306.1836652 -201.22737122 302.52861023 C-203.94119411 300.18836986 -206.56319932 297.75208559 -209.1875 295.3125 C-210.31240127 294.26942476 -211.43740427 293.22645923 -212.5625 292.18359375 C-213.1296875 291.65749512 -213.696875 291.13139648 -214.28125 290.58935547 C-215.97407572 289.0239726 -217.67332117 287.46590623 -219.375 285.91015625 C-255.3152341 253.02249594 -255.3152341 253.02249594 -257.28125 235.4921875 C-257.55241819 228.10285427 -255.97552528 222.25000723 -251.4375 216.375 C-243.55836583 207.91651773 -233.39740978 204.82823768 -222.1484375 203.71875 C-201.48565582 203.00418694 -185.05981467 215.22384059 -170.57675171 228.62686157 C-168.16481296 230.84821046 -165.72313686 233.03064029 -163.27197266 235.20849609 C-158.27282956 239.70369843 -153.50095809 244.38601101 -148.7734375 249.1640625 C-147.94091461 250.00037201 -147.10839172 250.83668152 -146.25064087 251.69833374 C-143.62294901 254.33810567 -140.99855768 256.98111967 -138.375 259.625 C-134.906609 263.12014935 -131.43480549 266.61185768 -127.9609375 270.1015625 C-127.18052094 270.8902774 -126.40010437 271.67899231 -125.59603882 272.49160767 C-122.17502452 275.92773086 -118.73762462 279.28047674 -115.05908203 282.44091797 C-110.15717456 286.66175105 -105.64394742 291.25035915 -101.09375 295.84375 C-99.68137068 297.2619165 -98.26898839 298.68008007 -96.85643768 300.09807587 C-93.90687976 303.06066445 -90.96193688 306.02784021 -88.01617432 308.99420166 C-85.58122894 311.44581031 -83.14525184 313.89637331 -80.70666504 316.34436035 C-78.88779387 318.17068429 -77.07117348 319.99925361 -75.25720215 321.83044434 C-70.97291502 326.13169075 -66.62231152 330.25079543 -62.01867676 334.20617676 C-58.01791966 337.76130318 -54.2954938 341.60439116 -50.53125 345.40625 C-49.65150513 346.28978149 -48.77176025 347.17331299 -47.86535645 348.08361816 C-44.60343055 351.3597232 -41.34607436 354.6403498 -38.08905029 357.92132568 C-34.8851274 361.14830538 -31.67730884 364.3713808 -28.46875 367.59375 C-27.63831177 368.43248657 -26.80787354 369.27122314 -25.95227051 370.13537598 C-21.66177559 374.44371079 -17.30454464 378.59442961 -12.67956543 382.54309082 C-10.3317004 384.57970461 -8.16741154 386.77400977 -6 389 C-2.53599156 392.49549943 0.96673392 395.85460581 4.7109375 399.046875 C6.48285912 400.55875351 8.23413386 402.09484841 9.9765625 403.640625 C46.09760559 435.51808446 87.83354132 457.93925922 137 455 C142.58981317 454.3505784 147.70510523 452.9243297 153 451 C154.20398437 450.56429687 155.40796875 450.12859375 156.6484375 449.6796875 C169.12016827 444.7288703 179.46837053 437.37460098 189 428 C189.77214844 427.24074219 190.54429687 426.48148438 191.33984375 425.69921875 C208.85230448 407.40842643 215.56251357 382.65007996 215.21484375 357.85546875 C213.53334237 305.66626135 177.67228917 264.65891061 142.75 229.625 C142.04235001 228.91333176 142.04235001 228.91333176 141.32040405 228.18728638 C136.28316587 223.12836382 131.19750555 218.20802037 125.77832031 213.56005859 C123.05248974 211.16878219 120.5298278 208.59514695 118 206 C114.15149764 202.09850621 110.2355232 198.39153636 106.05859375 194.83984375 C102.92769719 192.04164208 100.01170305 189.03226344 97.06396484 186.04443359 C94.47977682 183.43879261 91.85790842 180.93946891 89.0625 178.5625 C85.523209 175.54647173 82.26505555 172.30552099 79 169 C75.75548124 165.71532009 72.52077642 162.49265996 69 159.5 C64.9104638 156.02389423 61.1903946 152.21750344 57.421875 148.40234375 C54.69691999 145.65674514 51.94976527 143.00730048 49 140.5 C44.91125235 137.0245645 41.19183316 133.21899763 37.42407227 129.40454102 C34.0941767 126.04939106 30.66068601 122.90274548 27.05859375 119.83984375 C23.92769719 117.04164208 21.01170305 114.03226344 18.06396484 111.04443359 C15.47977682 108.43879261 12.85790842 105.93946891 10.0625 103.5625 C6.523209 100.54647173 3.26505555 97.30552099 0 94 C-3.24451876 90.71532009 -6.47922358 87.49265996 -10 84.5 C-14.0895362 81.02389423 -17.8096054 77.21750344 -21.578125 73.40234375 C-24.30308001 70.65674514 -27.05023473 68.00730048 -30 65.5 C-41.18700092 55.87777792 -54.63068744 43.94096797 -56.27734375 28.37890625 C-56.57989787 19.65324544 -55.00414205 13.06491936 -49.4375 6.25 C-37.05982049 -6.86117163 -15.60628662 -7.38784997 0 0 Z " fill="#FFFFFF" transform="translate(2198,2421)"/>
<path d="M0 0 C0.05096287 6.67110916 0.08584348 13.34216758 0.10986328 20.01342773 C0.11988328 22.28004838 0.13350297 24.54665623 0.15087891 26.81323242 C0.17530362 30.0825518 0.18652343 33.35169936 0.1953125 36.62109375 C0.20563507 37.62458359 0.21595764 38.62807343 0.22659302 39.66197205 C0.22815475 49.59003703 -0.7827437 57.73526176 -8 65 C-16.75717315 71.78680919 -26.26773293 72.0042033 -37 71 C-41.83958897 69.82219922 -46.13225032 67.88780926 -50.61328125 65.7578125 C-51.40089844 65.50773437 -52.18851563 65.25765625 -53 65 C-56.02236957 66.73674754 -56.02236957 66.73674754 -59 69 C-63.65347725 70.92091212 -68.07174558 71.4518431 -73.0625 71.5 C-73.80765869 71.5100708 -74.55281738 71.5201416 -75.32055664 71.53051758 C-80.62713069 71.43225821 -84.20886802 70.26522218 -88.9375 67.6875 C-93.06562291 65.32831946 -93.06562291 65.32831946 -97.56640625 65.64453125 C-100.01136345 66.9653815 -100.01136345 66.9653815 -102.28041649 68.51144695 C-110.82286295 73.18712051 -122.37245208 72.28678793 -131.84912109 72.24291992 C-133.16626099 72.24481827 -134.48340088 72.24671661 -135.8404541 72.24867249 C-139.41033601 72.25346426 -142.98009031 72.24593897 -146.5499568 72.23571944 C-150.30491936 72.2268522 -154.05987895 72.228698 -157.81484985 72.2290802 C-164.11047467 72.22814792 -170.40605086 72.21951985 -176.70166016 72.20581055 C-183.96643267 72.19004867 -191.23115219 72.18481412 -198.49594057 72.1855461 C-206.26081686 72.18622261 -214.02567291 72.17928076 -221.79054308 72.1700995 C-224.01722701 72.16797468 -226.24390765 72.16725923 -228.4705925 72.16686058 C-232.62283554 72.16566513 -236.77501661 72.15593676 -240.92724609 72.14526367 C-242.15335602 72.14571686 -243.37946594 72.14617004 -244.64273071 72.14663696 C-250.19913114 72.12576066 -255.52889189 72.00109174 -261 71 C-261.103125 72.19625 -261.20625 73.3925 -261.3125 74.625 C-262.08814826 80.73323001 -264.71159787 85.60163884 -269 90 C-280.34944826 98.5845532 -294.44234265 101.20693744 -308.375 101.0625 C-309.20644531 101.05798828 -310.03789062 101.05347656 -310.89453125 101.04882812 C-312.92971897 101.03713164 -314.96486923 101.01919935 -317 101 C-317.33895656 99.27192682 -317.67091525 97.54248026 -318 95.8125 C-318.185625 94.84957031 -318.37125 93.88664062 -318.5625 92.89453125 C-318.96877612 90.2065794 -319.07933572 87.71228981 -319 85 C-318.41621582 84.95512451 -317.83243164 84.91024902 -317.23095703 84.86401367 C-314.52794858 84.64974755 -311.82661048 84.41870251 -309.125 84.1875 C-308.2071875 84.11724609 -307.289375 84.04699219 -306.34375 83.97460938 C-298.06761175 83.24607608 -289.03777511 82.22645558 -283 76 C-282.30351439 74.68199772 -281.63148055 73.35035349 -281 72 C-281.79921875 72.02320312 -282.5984375 72.04640625 -283.421875 72.0703125 C-295.00908916 72.26071273 -307.03777676 72.14313815 -316.125 64.125 C-324.54893287 55.4533044 -326.63274301 46.39374826 -326.46655273 34.63305664 C-326.02832793 23.98004703 -322.82391347 16.80249901 -315.36328125 9.09765625 C-308.47620883 2.98466801 -299.54677143 0.47499245 -290.41796875 0.7578125 C-281.39249034 1.66181841 -274.43018288 4.51806515 -268 11 C-261.04644569 19.65368983 -260.71630205 28.20097344 -260.875 38.9375 C-260.88402344 40.09830078 -260.89304687 41.25910156 -260.90234375 42.45507812 C-260.92578838 45.30360108 -260.95860478 48.15169078 -261 51 C-242.05021869 50.93948035 -223.1005793 50.86199099 -204.15095234 50.76428509 C-195.35235606 50.71931467 -186.55380036 50.67990289 -177.75512695 50.65356445 C-170.08642592 50.63059445 -162.41785321 50.59720764 -154.74925393 50.55129844 C-150.68856823 50.52735269 -146.62800972 50.50863281 -142.56725502 50.50238609 C-138.74473775 50.4963413 -134.92254597 50.47636369 -131.10014915 50.44572449 C-129.69773493 50.4369345 -128.29527818 50.43322368 -126.89283752 50.43499184 C-124.97652 50.43664497 -123.06021673 50.41817619 -121.14399719 50.39872742 C-120.07195195 50.39411845 -118.99990671 50.38950949 -117.89537525 50.38476086 C-113.52205766 49.80359908 -110.89117461 48.15878361 -108.21948242 44.68481445 C-106.82915106 41.62385871 -106.57424947 39.39572949 -106.48828125 36.04296875 C-106.45283203 34.93115234 -106.41738281 33.81933594 -106.38085938 32.67382812 C-106.34702148 30.9480957 -106.34702148 30.9480957 -106.3125 29.1875 C-106.27833984 28.01767578 -106.24417969 26.84785156 -106.20898438 25.64257812 C-106.12667684 22.76181446 -106.05746822 19.88134862 -106 17 C-103.77149723 16.66225668 -101.54216533 16.3299813 -99.3125 16 C-97.45044922 15.7215625 -97.45044922 15.7215625 -95.55078125 15.4375 C-92 15 -92 15 -87 15 C-87 26.22 -87 37.44 -87 49 C-77.56827505 50.69087086 -77.56827505 50.69087086 -68.625 48.3125 C-65.19115036 45.28744199 -64.20169104 42.75267355 -63.68115234 38.22924805 C-63.64973145 37.24996338 -63.61831055 36.27067871 -63.5859375 35.26171875 C-63.54726562 34.19501953 -63.50859375 33.12832031 -63.46875 32.02929688 C-63.4378125 30.92650391 -63.406875 29.82371094 -63.375 28.6875 C-63.33632812 27.56537109 -63.29765625 26.44324219 -63.2578125 25.28710938 C-63.16377989 22.52490148 -63.07812659 19.762696 -63 17 C-60.95928485 16.66089006 -58.91737379 16.32897296 -56.875 16 C-55.73804687 15.814375 -54.60109375 15.62875 -53.4296875 15.4375 C-50 15 -50 15 -44 15 C-44 26.22 -44 37.44 -44 49 C-37.4876304 50.08539493 -32.01960393 50.83877887 -25.625 49.0625 C-21.78951898 46.04890777 -20.89115596 42.63792733 -20 38 C-19.52388909 31.99440582 -19.71637001 25.95499553 -19.8125 19.9375 C-19.82757249 18.29232994 -19.84125636 16.64714655 -19.85351562 15.00195312 C-19.88632218 11.00096859 -19.93796234 7.00063369 -20 3 C-18.25142965 2.67899183 -16.5027008 2.35884698 -14.75390625 2.0390625 C-13.7801001 1.86068848 -12.80629395 1.68231445 -11.80297852 1.49853516 C-3.37757101 0 -3.37757101 0 0 0 Z M-305 25 C-308.45145005 29.69356482 -309.75700146 34.16027448 -309 40 C-307.37016641 44.15607567 -305.496542 47.2027664 -302 50 C-297.29292861 51.95086587 -293.25878934 52.24224405 -288.1875 52.1875 C-287.50751953 52.18685547 -286.82753906 52.18621094 -286.12695312 52.18554688 C-282.77857046 52.43591117 -282.77857046 52.43591117 -280 51 C-279.72082935 47.94646525 -279.76814817 44.87727295 -279.75 41.8125 C-279.729375 40.96107422 -279.70875 40.10964844 -279.6875 39.23242188 C-279.64805767 32.85755536 -280.72262324 28.63321688 -285 23.6875 C-288.32599926 20.88118812 -291.60437276 20.64411416 -295.875 20.73046875 C-299.56382866 21.19835327 -302.24620094 22.51112339 -305 25 Z " fill="#FFFFFF" transform="translate(2722,3053)"/>
<path d="M0 0 C26.52654935 -0.39298592 26.52654935 -0.39298592 37 8 C45.11855502 17.50791598 46.17568405 27.34421948 46.0625 39.4375 C46.05798828 40.35982422 46.05347656 41.28214844 46.04882812 42.23242188 C46.03713938 44.48835048 46.02075455 46.74413967 46 49 C51.82475419 50.66462967 57.02360735 51.30775423 63.06640625 51.30078125 C63.90413071 51.30506638 64.74185516 51.3093515 65.60496521 51.31376648 C67.3638316 51.31947293 69.12272157 51.32003747 70.8815918 51.31567383 C73.55884172 51.31250433 76.23499485 51.33605149 78.91210938 51.36132812 C80.63020695 51.3636007 82.34830747 51.36430481 84.06640625 51.36328125 C84.85825821 51.372491 85.65011017 51.38170074 86.46595764 51.39118958 C91.70507684 51.34793557 95.34196716 50.43999278 100 48 C103.52239941 44.24277397 104.12221144 40.69710407 104.31640625 35.67578125 C104.35830078 34.64775391 104.40019531 33.61972656 104.44335938 32.56054688 C104.48267578 31.48869141 104.52199219 30.41683594 104.5625 29.3125 C104.62727539 27.68731445 104.62727539 27.68731445 104.69335938 26.02929688 C104.79946838 23.35299209 104.90152361 20.67659474 105 18 C107.22850277 17.66225668 109.45783467 17.3299813 111.6875 17 C112.92886719 16.814375 114.17023437 16.62875 115.44921875 16.4375 C119 16 119 16 124 16 C124.33 26.23 124.66 36.46 125 47 C133.65454121 50.64190133 133.65454121 50.64190133 142.125 51.75 C143.24132813 51.80671875 144.35765625 51.8634375 145.5078125 51.921875 C146.74144531 51.96054688 146.74144531 51.96054688 148 52 C147.71125 51.17757812 147.4225 50.35515625 147.125 49.5078125 C143.45315341 38.46677379 142.59037222 29.92903437 147 19 C151.88977545 10.09362329 158.32421128 4.89340306 168 2 C177.84288013 -0.28657677 187.35309846 0.728068 196.1875 5.6875 C204.66779114 11.13066361 209.35712261 18.291584 211.75 28.0625 C212.69497259 39.16592787 211.33520764 49.56655213 205 59 C195.75845656 69.40795184 185.39488977 71.84455736 172 73 C167.08982812 73.27348193 162.18014395 73.29008752 157.26367188 73.26074219 C155.10519019 73.2499005 152.94752125 73.26078077 150.7890625 73.2734375 C133.06502757 73.29374591 133.06502757 73.29374591 125.1875 68.5 C122.49584702 66.89187217 119.82206974 65.36981363 117 64 C116.05125 64.763125 115.1025 65.52625 114.125 66.3125 C102.73910429 74.36705148 87.30595187 73.18023693 74 73.1875 C72.81921875 73.19974609 71.6384375 73.21199219 70.421875 73.22460938 C50.20748298 73.25800319 50.20748298 73.25800319 42.25 67.875 C41.43015625 67.33617188 40.6103125 66.79734375 39.765625 66.2421875 C39.18296875 65.83226563 38.6003125 65.42234375 38 65 C37.360625 65.598125 36.72125 66.19625 36.0625 66.8125 C29.16273903 71.74090069 21.99584065 72.43637414 13.71484375 72.29296875 C12.77314835 72.28872391 11.83145294 72.28447906 10.86122131 72.28010559 C7.88634282 72.26346216 4.91216986 72.22583772 1.9375 72.1875 C-0.0930891 72.1724346 -2.12368893 72.15874946 -4.15429688 72.14648438 C-9.10313181 72.11360578 -14.05144675 72.0619244 -19 72 C-20.3052109 67.11872346 -21.28009663 62.55858276 -21.625 57.5 C-21.69976563 56.4584375 -21.77453125 55.416875 -21.8515625 54.34375 C-21.90054687 53.5703125 -21.94953125 52.796875 -22 52 C-20.22955322 51.98598145 -20.22955322 51.98598145 -18.42333984 51.97167969 C-14.02843002 51.93169352 -9.63421387 51.86591085 -5.23974609 51.79248047 C-3.34074846 51.7643208 -1.4416347 51.74308142 0.45751953 51.72900391 C3.19363638 51.70750482 5.92836452 51.66081992 8.6640625 51.609375 C9.50804596 51.60814636 10.35202942 51.60691772 11.22158813 51.60565186 C16.72920097 51.46996257 19.75443627 50.57406724 24 47 C25.45500399 44.08999203 25.20897384 41.4910667 25.25 38.25 C25.28867188 36.43242187 25.28867188 36.43242187 25.328125 34.578125 C24.97034947 30.67666807 24.04248952 28.3196548 22 25 C17.01045802 21.28982776 12.33726452 20.86360852 6.25 20.4375 C4.1875 20.293125 2.125 20.14875 0 20 C0 13.4 0 6.8 0 0 Z M165.1875 25.5625 C162.08269898 29.66527278 161.61451566 33.96066839 162 39 C163.4713309 46.00679313 163.4713309 46.00679313 167 52 C174.96631917 53.01205507 181.4729113 51.77119286 188 47 C191.47263084 43.46455671 192.25185514 39.79821984 192.5 34.9375 C192.30190951 30.28237352 191.12369746 27.55754433 188 24 C184.69740076 21.09771582 182.11842552 20.08440947 177.6875 19.75 C172.15933653 20.12479074 169.24749999 21.8633889 165.1875 25.5625 Z " fill="#FFFFFF" transform="translate(2050,3052)"/>
<path d="M0 0 C0.00879936 1.35183884 0.00879936 1.35183884 0.01777649 2.73098755 C0.07574394 11.23522405 0.147844 19.73919905 0.23571491 28.24318123 C0.28039182 32.61490145 0.31965377 36.98652906 0.34643555 41.35839844 C0.37249539 45.57960838 0.41291653 49.80046143 0.46318626 54.02145004 C0.4798369 55.62969388 0.49136241 57.23799942 0.49761391 58.84631729 C0.5072749 61.10381499 0.53535629 63.36040335 0.56762695 65.61767578 C0.57873001 66.90118927 0.58983307 68.18470276 0.60127258 69.5071106 C1.04349343 73.38100652 1.83020204 75.76305819 4 79 C8.06419265 81.17760776 11.9308338 81.28552298 16.43908691 81.26069641 C17.17895419 81.26452196 17.91882146 81.26834751 18.68110895 81.27228898 C21.1553172 81.28259134 23.62929218 81.27863215 26.10351562 81.2746582 C27.87937128 81.27900616 29.65522506 81.28418959 31.43107605 81.29014587 C36.25123104 81.30353681 41.07130762 81.30411453 45.89147758 81.30158257 C49.91501004 81.30051312 53.93852662 81.30539547 57.96205568 81.310188 C67.45274321 81.3212831 76.94339116 81.32172029 86.43408203 81.31567383 C96.2276728 81.30963041 106.02112002 81.32195439 115.8146863 81.3432439 C124.2224483 81.3608494 132.63016456 81.36686299 141.03794432 81.36360615 C146.05990724 81.36179178 151.08176774 81.364445 156.10371399 81.37832069 C160.8249743 81.39087764 165.54601043 81.38897519 170.26726723 81.37590981 C172.00028369 81.37353997 173.73331582 81.37629324 175.46631432 81.38453293 C177.83144199 81.3949677 180.19581282 81.38692661 182.56091309 81.3742218 C183.59034334 81.38528323 183.59034334 81.38528323 184.64057016 81.39656812 C188.92140643 81.34816577 191.57438013 80.57732973 195 78 C198.54844009 72.85476186 198.1751102 66.00244081 198.31640625 59.9765625 C198.3475779 58.85729874 198.3475779 58.85729874 198.37937927 57.71542358 C198.4443123 55.35203492 198.50349571 52.98854336 198.5625 50.625 C198.60573884 49.01431265 198.64935477 47.40363537 198.69335938 45.79296875 C198.79993526 41.86208229 198.90135792 37.93109323 199 34 C200.47643741 33.65477873 201.95639782 33.32462513 203.4375 33 C204.26121094 32.814375 205.08492187 32.62875 205.93359375 32.4375 C209.97027287 31.86156616 213.93016569 31.91930936 218 32 C218.07652631 38.65275644 218.1287985 45.30539792 218.16479492 51.95849609 C218.17981295 54.21830487 218.20023345 56.47808484 218.22631836 58.73779297 C218.26300995 61.99974714 218.27979675 65.26131347 218.29296875 68.5234375 C218.30845261 69.52176605 218.32393646 70.5200946 218.33988953 71.54867554 C218.34199509 80.4714824 217.07206426 88.84244328 210.74609375 95.53125 C203.83148021 101.34756922 196.25630361 102.18839913 187.57446289 102.55200195 C186.57590554 102.59404157 185.57734819 102.63608118 184.54853153 102.67939472 C169.51181062 103.24024152 154.46135325 103.16494313 139.41646838 103.16725707 C136.78080273 103.16797633 134.14514202 103.17012657 131.50947762 103.17275429 C122.27967125 103.18194086 113.04987914 103.18609659 103.82006836 103.18530273 C95.26690424 103.18469982 86.71380274 103.19531063 78.16065449 103.2110464 C70.76215334 103.22416494 63.36367262 103.22948501 55.96515995 103.22884732 C51.56973707 103.22859414 47.17437037 103.23134703 42.77895927 103.24202538 C38.65253568 103.25178283 34.52622131 103.25173381 30.39979362 103.24450874 C28.89791197 103.24347321 27.3960232 103.24576344 25.89415359 103.2518692 C-3.16195282 103.36223873 -3.16195282 103.36223873 -11.96484375 95.171875 C-19.53126583 87.06388897 -20.13211572 78.09865324 -20.11352539 67.390625 C-20.11367142 66.67744614 -20.11381744 65.96426727 -20.1139679 65.22947693 C-20.11327853 62.90295224 -20.10553253 60.57651047 -20.09765625 58.25 C-20.09578859 56.6247563 -20.09436633 54.99951204 -20.09336853 53.37426758 C-20.08957073 49.11971451 -20.07976413 44.86519618 -20.06866455 40.61065674 C-20.05839127 36.25997385 -20.05385829 31.9092853 -20.04882812 27.55859375 C-20.03813913 19.03904665 -20.02109599 10.51952766 -20 2 C-17.60468244 1.66254646 -15.20885732 1.3299171 -12.8125 1 C-11.80219727 0.85691406 -11.80219727 0.85691406 -10.77148438 0.7109375 C-7.15335423 0.21675387 -3.65203599 -0.11346131 0 0 Z " fill="#FFFFFF" transform="translate(1802,3022)"/>
<path d="M0 0 C0.06972039 12.57032865 0.12292288 25.14061077 0.15543652 37.7110939 C0.17104679 43.54900222 0.19219996 49.38677756 0.22631836 55.22460938 C0.25907765 60.86563156 0.27688785 66.50652639 0.28463173 72.14763641 C0.2901456 74.29245761 0.30091234 76.43727237 0.31719017 78.58203888 C0.43569636 94.8536231 0.25491368 110.70710724 -11.3125 123.40234375 C-20.04909788 131.67379869 -30.85794663 133.51451862 -42.5 133.375 C-43.46808594 133.38660156 -44.43617188 133.39820312 -45.43359375 133.41015625 C-56.20943686 133.36676359 -66.01504126 130.70854498 -73.9453125 123.14453125 C-83.25777672 113.07226346 -83.67751996 101.8320188 -83.19677734 88.66650391 C-82.5873816 80.40866232 -81.28479252 70.2378252 -77 63 C-75.26969709 63.28484846 -73.54079286 63.57819938 -71.8125 63.875 C-70.84957031 64.03742187 -69.88664062 64.19984375 -68.89453125 64.3671875 C-66.08967396 64.98039517 -63.62775253 65.85666343 -61 67 C-61.2165625 67.81339844 -61.433125 68.62679687 -61.65625 69.46484375 C-64.12845816 79.6398116 -66.76044006 92.71429675 -62.5 102.75 C-59.53121924 107.45144996 -54.77703105 110.04996306 -49.625 111.8125 C-48.325625 111.9053125 -48.325625 111.9053125 -47 112 C-45.92298828 112.0928125 -45.92298828 112.0928125 -44.82421875 112.1875 C-38.27106133 112.51362914 -32.61552384 111.53089776 -27 108 C-17.57762695 98.42316182 -19.66057332 82.08815169 -19.5859375 69.7734375 C-19.56720295 67.81474004 -19.54762787 65.85605046 -19.5272522 63.89736938 C-19.47616647 58.77159289 -19.43641538 53.64579029 -19.39910889 48.51989746 C-19.35892068 43.27752349 -19.30789629 38.03525587 -19.2578125 32.79296875 C-19.16133255 22.5287208 -19.07683932 12.26441247 -19 2 C-16.58374679 1.66340751 -14.16707192 1.33061612 -11.75 1 C-10.72712891 0.85691406 -10.72712891 0.85691406 -9.68359375 0.7109375 C-6.40628012 0.2654774 -3.31615847 0 0 0 Z " fill="#FFFFFF" transform="translate(2383,3021)"/>
<path d="M0 0 C16 0 16 0 19.72485352 2.87060547 C20.98744202 4.77487183 20.98744202 4.77487183 22.12890625 6.8671875 C22.57797836 7.57594025 23.02705048 8.28469299 23.48973083 9.0149231 C24.90359969 11.27225731 26.23220481 13.56763679 27.5625 15.875 C28.48488053 17.38349506 29.41258529 18.88874807 30.34570312 20.390625 C32.12897626 23.27269458 33.88400866 26.16890555 35.61767578 29.08105469 C38.5060811 33.89317371 41.70192751 38.46195242 45 43 C45.31906815 42.52028748 45.63813629 42.04057495 45.96687317 41.54632568 C49.29104806 36.54899275 52.61685352 31.55274793 55.94360352 26.55712891 C57.18458141 24.69314931 58.42514471 22.82889364 59.6652832 20.96435547 C61.44893956 18.28279922 63.23408947 15.60224269 65.01953125 12.921875 C65.57276566 12.08944275 66.12600006 11.2570105 66.69599915 10.39935303 C67.2163121 9.61884583 67.73662506 8.83833862 68.27270508 8.03417969 C68.72793045 7.35023132 69.18315582 6.66628296 69.6521759 5.96160889 C71.04503151 3.93446162 72.52427164 1.96763781 74 0 C78.95 0 83.9 0 89 0 C89 27.39 89 54.78 89 83 C82 84 82 84 74 84 C73.67 65.85 73.34 47.7 73 29 C65.51298627 40.82326893 65.51298627 40.82326893 58.10400391 52.6953125 C57.1476442 54.17368192 56.1886686 55.65036381 55.2265625 57.125 C54.75951904 57.90230469 54.29247559 58.67960937 53.8112793 59.48046875 C51.68367929 62.67980362 50.33419958 64.67961733 46.49797058 65.60081482 C39.97609401 65.84388062 39.97609401 65.84388062 37.17887878 63.42555237 C35.58008467 61.40039682 34.32539324 59.31197063 33.0625 57.0625 C32.15808275 55.57389621 31.25310561 54.08563248 30.34765625 52.59765625 C29.24292969 50.75042969 28.13820313 48.90320312 27 47 C23.37 41.39 19.74 35.78 16 30 C15.67 47.49 15.34 64.98 15 83 C10.05 83 5.1 83 0 83 C0 55.61 0 28.22 0 0 Z " fill="#FFFFFF" transform="translate(2259,3206)"/>
<path d="M0 0 C9.07047159 7.14399975 14.73903202 16.42694476 16.51953125 27.97265625 C17.94913572 42.01908743 14.94526907 54.14913442 6.2421875 65.3515625 C-1.84329142 74.38363407 -13.18534159 77.65438707 -24.875 78.60546875 C-39.0166475 79.12234183 -51.14886983 75.22537837 -61.546875 65.640625 C-70.0770637 56.61068787 -72.6499194 45.6897891 -72.60083008 33.59838867 C-72.25559877 21.82641027 -68.27004463 12.04867868 -60.234375 3.390625 C-54.54790152 -1.60907632 -48.58798266 -4.8357776 -41.234375 -6.609375 C-40.48800781 -6.79113281 -39.74164062 -6.97289063 -38.97265625 -7.16015625 C-25.6266956 -9.34957918 -11.30600021 -7.88569763 0 0 Z M-50.234375 14.390625 C-56.71046515 24.21034864 -57.97664621 34.89011707 -55.62109375 46.3828125 C-53.19357602 53.24830318 -48.62361841 58.78959187 -42.3359375 62.515625 C-33.7402712 66.41933371 -25.35117479 66.21168089 -16.5546875 63.29296875 C-9.01864715 60.36228639 -4.46718616 54.85624732 -0.921875 47.765625 C2.18028076 37.04908692 1.31627939 26.98469745 -3.984375 17.140625 C-9.8729777 9.94344392 -15.77578352 6.09757893 -25.125 5.07421875 C-34.8832201 4.68639205 -43.35814779 7.19457327 -50.234375 14.390625 Z " fill="#FFFFFF" transform="translate(1962.234375,3212.609375)"/>
<path d="M0 0 C48 0 48 0 60 8 C60.86625 8.556875 61.7325 9.11375 62.625 9.6875 C71.93710498 18.75454958 75.55974114 29.04806981 76.1875 41.8125 C75.94652298 53.22604783 72.10012506 63.99941011 64.25 72.4375 C55.26333342 80.70248398 44.77278457 83.3312892 32.91015625 83.1953125 C32.07190308 83.19329834 31.2336499 83.19128418 30.36999512 83.18920898 C27.26744031 83.17882081 24.1649641 83.15089875 21.0625 83.125 C14.111875 83.08375 7.16125 83.0425 0 83 C0 55.61 0 28.22 0 0 Z M16 13 C16 32.14 16 51.28 16 71 C36.00785725 71.72661643 36.00785725 71.72661643 52.49609375 62.5859375 C58.14808949 56.31339624 60.40221409 48.60406896 60.19921875 40.296875 C59.32671048 30.23736784 55.64051366 23.6345127 48 17 C38.57905516 10.99975537 26.47536726 13 16 13 Z " fill="#FFFFFF" transform="translate(2480,3206)"/>
<path d="M0 0 C1.27037109 0.01353516 1.27037109 0.01353516 2.56640625 0.02734375 C3.18386719 0.03894531 3.80132813 0.05054687 4.4375 0.0625 C5.24739583 2.08723958 6.05729167 4.11197917 6.8671875 6.13671875 C7.12935059 6.79194519 7.39151367 7.44717163 7.66162109 8.12225342 C9.16393472 11.877275 10.66513167 15.63273761 12.16455078 19.38891602 C15.46490045 27.65293276 18.77714291 35.91183203 22.11764526 44.15971375 C23.77856938 48.26252002 25.43422203 52.36744411 27.0894165 56.4725647 C27.90445292 58.48998217 28.7219569 60.50640452 29.54193115 62.52182007 C30.69830808 65.36491474 31.84611669 68.21133206 32.9921875 71.05859375 C33.34152344 71.91128845 33.69085937 72.76398315 34.05078125 73.64251709 C34.36644043 74.43136292 34.68209961 75.22020874 35.00732422 76.03295898 C35.28486542 76.71792953 35.56240662 77.40290009 35.84835815 78.10862732 C36.4375 80.0625 36.4375 80.0625 36.4375 84.0625 C31.35663204 84.90931133 26.58921623 85.15288099 21.4375 85.0625 C18.17458961 78.98673583 16.4823647 73.87871566 14.4375 67.0625 C1.5675 67.3925 -11.3025 67.7225 -24.5625 68.0625 C-26.5425 73.0125 -28.5225 77.9625 -30.5625 83.0625 C-31.5625 84.0625 -31.5625 84.0625 -35.16015625 84.16015625 C-36.64846867 84.1534822 -38.13676432 84.14152183 -39.625 84.125 C-40.38361328 84.12048828 -41.14222656 84.11597656 -41.92382812 84.11132812 C-43.80341871 84.0995068 -45.68296899 84.08157078 -47.5625 84.0625 C-45.27974712 76.91849255 -42.58889273 70.00915721 -39.73828125 63.07421875 C-39.27318649 61.93580032 -38.80809174 60.7973819 -38.3289032 59.62446594 C-36.84698558 55.99852565 -35.36117466 52.37419726 -33.875 48.75 C-31.93242695 44.00438315 -29.99142967 39.25812292 -28.05078125 34.51171875 C-27.58205597 33.36605438 -27.11333069 32.22039001 -26.63040161 31.04000854 C-22.55485153 21.06849898 -18.54200159 11.07268156 -14.5625 1.0625 C-9.69472258 0.46801858 -4.91257249 -0.06919116 0 0 Z M-5.5625 18.0625 C-8.98710012 26.06470631 -12.19681858 34.14741796 -15.375 42.25 C-15.78419678 43.290354 -16.19339355 44.33070801 -16.61499023 45.40258789 C-16.99598877 46.37703857 -17.3769873 47.35148926 -17.76953125 48.35546875 C-18.28737183 49.67840942 -18.28737183 49.67840942 -18.81567383 51.02807617 C-19.6199348 52.85776258 -19.6199348 52.85776258 -19.5625 54.0625 C-10.3225 54.0625 -1.0825 54.0625 8.4375 54.0625 C7.56697127 49.70985637 6.33013503 45.88750757 4.71484375 41.79296875 C4.44990616 41.11196609 4.18496857 40.43096344 3.91200256 39.72932434 C3.07016351 37.56803269 2.22267493 35.40900855 1.375 33.25 C0.80105707 31.77944326 0.22748532 30.3087416 -0.34570312 28.83789062 C-1.74701048 25.24440172 -3.15338666 21.65293473 -4.5625 18.0625 C-4.8925 18.0625 -5.2225 18.0625 -5.5625 18.0625 Z " fill="#FFFFFF" transform="translate(2683.5625,3204.9375)"/>
<path d="M0 0 C19.47 0 38.94 0 59 0 C59 4.29 59 8.58 59 13 C44.81 13 30.62 13 16 13 C16 19.93 16 26.86 16 34 C28.87 34 41.74 34 55 34 C55.66 38.29 56.32 42.58 57 47 C43.47 47 29.94 47 16 47 C16 54.92 16 62.84 16 71 C30.52 71 45.04 71 60 71 C60 74.96 60 78.92 60 83 C40.2 83 20.4 83 0 83 C0 55.61 0 28.22 0 0 Z " fill="#FFFFFF" transform="translate(2386,3206)"/>
<path d="M0 0 C0.00364563 0.67936615 0.00729126 1.3587323 0.01104736 2.0586853 C0.05303702 9.16495293 0.1224979 16.27058459 0.20751953 23.37646484 C0.23564895 26.02418642 0.25690316 28.67199072 0.27099609 31.31982422 C0.29253596 35.13812364 0.33924647 38.9554368 0.390625 42.7734375 C0.39185364 43.94675629 0.39308228 45.12007507 0.39434814 46.32894897 C0.52018653 53.47905014 1.33756048 59.73176918 5 66 C11.99340693 71.8516262 19.22758317 71.68003231 28 71 C32.87574636 69.76431466 35.84638377 67.75907901 38.4375 63.4375 C40.36002074 59.20795438 41.12991672 56.22373803 41.18945312 51.62646484 C41.21452942 49.97993423 41.21452942 49.97993423 41.2401123 48.30014038 C41.25368774 47.11570343 41.26726318 45.93126648 41.28125 44.7109375 C41.29965942 43.49677155 41.31806885 42.28260559 41.33703613 41.03164673 C41.4158822 35.8242491 41.48364145 30.61672075 41.55224609 25.40917969 C41.60381545 21.61386398 41.66111518 17.81866514 41.71875 14.0234375 C41.73232544 12.83495209 41.74590088 11.64646667 41.7598877 10.42196655 C41.78496399 8.78489243 41.78496399 8.78489243 41.81054688 7.11474609 C41.82933899 5.6660463 41.82933899 5.6660463 41.84851074 4.18807983 C42 2 42 2 43 1 C45.52596259 0.76346477 48.03107207 0.57826308 50.5625 0.4375 C51.62887695 0.37272461 51.62887695 0.37272461 52.71679688 0.30664062 C54.47761912 0.20028223 56.2387832 0.09961154 58 0 C58.0509395 7.79212637 58.08583388 15.58420938 58.10986328 23.37646484 C58.11988671 26.02426763 58.13350899 28.67205944 58.15087891 31.31982422 C58.17528819 35.13772296 58.18652004 38.95547463 58.1953125 42.7734375 C58.20563507 43.94675629 58.21595764 45.12007507 58.22659302 46.32894897 C58.22823716 58.52335889 56.83697555 67.66666323 48.33203125 76.7890625 C39.21676921 85.25770412 27.83593915 85.45617473 16.07421875 85.26953125 C6.26364382 84.90215499 -1.07897132 82.01947526 -8.15625 75.16015625 C-12.96143087 69.53035748 -15.1286775 63.40858846 -15.11352539 56.05981445 C-15.11344986 54.83877518 -15.11337433 53.6177359 -15.11329651 52.35969543 C-15.10813522 51.04087875 -15.10297394 49.72206207 -15.09765625 48.36328125 C-15.0957908 46.99993441 -15.0943675 45.63658689 -15.09336853 44.27323914 C-15.08955332 40.68771509 -15.07973155 37.10223165 -15.06866455 33.51672363 C-15.05842901 29.8568578 -15.05386632 26.1969854 -15.04882812 22.53710938 C-15.03810838 15.35805442 -15.02104393 8.1790329 -15 1 C-9.92928099 0.28832014 -5.11791642 -0.10662326 0 0 Z " fill="#FFFFFF" transform="translate(2027,3205)"/>
<path d="M0 0 C-0.11382653 1.95901454 -0.24141125 3.9172338 -0.375 5.875 C-0.44460938 6.96554688 -0.51421875 8.05609375 -0.5859375 9.1796875 C-1 12 -1 12 -3 14 C-3.70125 13.66226563 -4.4025 13.32453125 -5.125 12.9765625 C-15.07959117 8.29682263 -25.14732888 4.65842317 -36.2890625 7.60546875 C-39.81930222 9.02428936 -39.81930222 9.02428936 -42 12 C-42.47240753 16.32821956 -42.47240753 16.32821956 -40.44140625 20.015625 C-37.41568198 22.47493369 -34.26533601 23.63764227 -30.625 24.875 C-29.19310936 25.38811746 -27.76213509 25.90379843 -26.33203125 26.421875 C-25.61096191 26.68162109 -24.88989258 26.94136719 -24.14697266 27.20898438 C-20.83254119 28.43013038 -17.56763214 29.75455685 -14.3125 31.125 C-13.21550781 31.58132812 -12.11851563 32.03765625 -10.98828125 32.5078125 C-3.91335416 36.04065191 -0.48981796 40.60168378 2 48 C3.18765585 55.22094754 2.32166474 61.44354852 -1.3359375 67.80859375 C-6.91442043 75.15490578 -15.18025803 77.66367546 -24 79 C-36.40434023 80.20042002 -48.93294958 77.6306046 -60 72 C-60 67.38 -60 62.76 -60 58 C-56.13365661 59.28878113 -52.36114669 60.61250859 -48.5625 62.0625 C-44.34052707 63.59517303 -40.50704423 64.66614487 -36 65 C-34.95585938 65.07734375 -34.95585938 65.07734375 -33.890625 65.15625 C-27.72329058 65.41145004 -21.21600361 64.59754138 -16.2734375 60.60546875 C-14.69667855 58.89233464 -14.69667855 58.89233464 -14.5 55.625 C-14.72565928 51.95915157 -14.72565928 51.95915157 -16.875 49.3125 C-21.00087962 46.25934908 -25.20001079 44.74092873 -30 43 C-52.13736264 34.59340659 -52.13736264 34.59340659 -58 25 C-60.04628787 18.8611364 -60.10571965 11.49983235 -57.375 5.5625 C-53.76589367 -0.54132193 -48.54773402 -3.61900581 -42 -6 C-27.89452445 -9.4958111 -12.66944714 -6.71981315 0 0 Z " fill="#FFFFFF" transform="translate(1859,3212)"/>
<path d="M0 0 C0 23.43 0 46.86 0 71 C14.19 71 28.38 71 43 71 C43.66 75.29 44.32 79.58 45 84 C24.87 84 4.74 84 -16 84 C-16.04010881 63.57570298 -16.04010881 63.57570298 -16.04882812 54.90039062 C-16.0548166 48.97012442 -16.06191703 43.03987358 -16.07543945 37.10961914 C-16.08626822 32.33101164 -16.09227681 27.55242062 -16.09487724 22.7738018 C-16.09673151 20.94646381 -16.10035216 19.11912676 -16.10573006 17.29179573 C-16.11294036 14.74146671 -16.11399095 12.19120663 -16.11352539 9.64086914 C-16.11712067 8.87770386 -16.12071594 8.11453857 -16.12442017 7.32824707 C-16.11405216 2.11405216 -16.11405216 2.11405216 -15 1 C-9.81286267 0.19509938 -5.33658427 0 0 0 Z " fill="#FFFFFF" transform="translate(2137,3205)"/>
<path d="M0 0 C0 27.72 0 55.44 0 84 C-5.28 84 -10.56 84 -16 84 C-16.02255088 73.32579925 -16.040915 62.6516142 -16.05181217 51.97739506 C-16.05704103 47.02146078 -16.06413874 42.06554358 -16.07543945 37.10961914 C-16.08626822 32.33101164 -16.09227681 27.55242062 -16.09487724 22.7738018 C-16.09673151 20.94646381 -16.10035216 19.11912676 -16.10573006 17.29179573 C-16.11294036 14.74146671 -16.11399095 12.19120663 -16.11352539 9.64086914 C-16.11712067 8.87770386 -16.12071594 8.11453857 -16.12442017 7.32824707 C-16.11405216 2.11405216 -16.11405216 2.11405216 -15 1 C-9.81286267 0.19509938 -5.33658427 0 0 0 Z " fill="#FFFFFF" transform="translate(2606,3205)"/>
<path d="M0 0 C2.39805992 1.25199916 4.20131844 2.75029711 6.1953125 4.578125 C6.90171875 5.21878906 7.608125 5.85945313 8.3359375 6.51953125 C8.86703125 7.01324219 9.398125 7.50695313 9.9453125 8.015625 C13.69168152 6.36044041 15.74726102 4.21825539 18.3828125 1.16015625 C19.9453125 0.015625 19.9453125 0.015625 21.7734375 -0.0078125 C25.02429303 1.52406547 27.25317955 4.011001 29.6953125 6.578125 C30.20191406 7.09826172 30.70851563 7.61839844 31.23046875 8.15429688 C32.47565655 9.43472584 33.71142752 10.72430054 34.9453125 12.015625 C33.33520723 16.08938531 30.40708979 18.78069569 27.3203125 21.765625 C26.8046875 22.27222656 26.2890625 22.77882813 25.7578125 23.30078125 C24.49147911 24.54366402 23.2189981 25.78027776 21.9453125 27.015625 C18.73006945 25.60717782 16.62347382 23.91217714 14.1953125 21.390625 C13.58171875 20.75898438 12.968125 20.12734375 12.3359375 19.4765625 C11.87703125 18.99445312 11.418125 18.51234375 10.9453125 18.015625 C9.8397936 18.95153004 8.73595797 19.88942358 7.6328125 20.828125 C7.01792969 21.35019531 6.40304688 21.87226563 5.76953125 22.41015625 C4.09106571 23.88734969 2.50649216 25.41601631 0.9453125 27.015625 C-3.12844781 25.40551973 -5.81975819 22.47740229 -8.8046875 19.390625 C-9.31128906 18.875 -9.81789063 18.359375 -10.33984375 17.828125 C-11.58272652 16.56179161 -12.81934026 15.2893106 -14.0546875 14.015625 C-12.46512466 10.20246022 -10.04708053 7.642841 -7.1796875 4.703125 C-6.31601563 3.79949219 -5.45234375 2.89585937 -4.5625 1.96484375 C-2.0546875 0.015625 -2.0546875 0.015625 0 0 Z " fill="#FFFFFF" transform="translate(2153.0546875,3131.984375)"/>
<path d="M0 0 C2.39805992 1.25199916 4.20131844 2.75029711 6.1953125 4.578125 C6.90171875 5.21878906 7.608125 5.85945313 8.3359375 6.51953125 C8.86703125 7.01324219 9.398125 7.50695313 9.9453125 8.015625 C13.69168152 6.36044041 15.74726102 4.21825539 18.3828125 1.16015625 C19.9453125 0.015625 19.9453125 0.015625 21.7734375 -0.0078125 C25.02429303 1.52406547 27.25317955 4.011001 29.6953125 6.578125 C30.20191406 7.09826172 30.70851563 7.61839844 31.23046875 8.15429688 C32.47565655 9.43472584 33.71142752 10.72430054 34.9453125 12.015625 C33.33520723 16.08938531 30.40708979 18.78069569 27.3203125 21.765625 C26.8046875 22.27222656 26.2890625 22.77882813 25.7578125 23.30078125 C24.49147911 24.54366402 23.2189981 25.78027776 21.9453125 27.015625 C18.73006945 25.60717782 16.62347382 23.91217714 14.1953125 21.390625 C13.58171875 20.75898438 12.968125 20.12734375 12.3359375 19.4765625 C11.87703125 18.99445312 11.418125 18.51234375 10.9453125 18.015625 C9.8397936 18.95153004 8.73595797 19.88942358 7.6328125 20.828125 C7.01792969 21.35019531 6.40304687 21.87226563 5.76953125 22.41015625 C4.09106571 23.88734969 2.50649216 25.41601631 0.9453125 27.015625 C-3.12844781 25.40551973 -5.81975819 22.47740229 -8.8046875 19.390625 C-9.31128906 18.875 -9.81789063 18.359375 -10.33984375 17.828125 C-11.58272652 16.56179161 -12.81934026 15.2893106 -14.0546875 14.015625 C-12.46512466 10.20246022 -10.04708053 7.642841 -7.1796875 4.703125 C-6.31601563 3.79949219 -5.45234375 2.89585937 -4.5625 1.96484375 C-2.0546875 0.015625 -2.0546875 0.015625 0 0 Z " fill="#FFFFFF" transform="translate(1987.0546875,3131.984375)"/>
</svg>
