<?xml version='1.0' encoding='utf-8'?>
<svg xmlns="http://www.w3.org/2000/svg" version="1.1" viewBox="1347.34 2476.82 1804.32 668.97">
<path d="M0 0 C1485 0 2970 0 4500 0 C4500 1856.25 4500 3712.5 4500 5625 C3015 5625 1530 5625 0 5625 C0 3768.75 0 1912.5 0 0 Z " fill="none" transform="translate(0,0)" />
<path d="M0 0 C4.19597292 0.01791814 8.39193872 0.01403946 12.58794212 0.01327848 C19.61735692 0.01513514 26.64659607 0.03228212 33.67595482 0.05981779 C41.75424027 0.09134926 49.83233487 0.10180956 57.91067743 0.10034668 C66.59623809 0.0989874 75.28172725 0.11290209 83.96726608 0.13123989 C86.43633239 0.13546235 88.90538684 0.13691662 91.37445641 0.13771772 C95.2752362 0.13975361 99.17586123 0.1521778 103.07658958 0.17205 C104.49173596 0.17779878 105.90690016 0.18037186 107.32205772 0.17919493 C159.43018821 0.15229789 206.10805596 21.5089135 243.24040794 57.53393888 C247.79314784 62.25030791 251.93891261 67.27393593 255.92790794 72.47143888 C256.60877464 73.35436613 256.60877464 73.35436613 257.30339622 74.25513029 C274.00949179 96.19214158 285.80591855 121.34979368 290.92790794 148.47143888 C291.15220482 149.62555265 291.15220482 149.62555265 291.38103294 150.80298185 C295.44530517 172.46012213 295.57144415 194.91108092 290.92790794 216.47143888 C290.79400658 217.13965666 290.66010521 217.80787443 290.52214622 218.49634123 C284.44683547 248.46051026 268.51536558 276.98877751 247.91618919 299.29565763 C246.32083974 301.04145262 244.82855062 302.80431991 243.36540794 304.65893888 C240.18409825 308.32968083 236.63830143 311.34852437 232.92790794 314.47143888 C232.05134544 315.23585295 231.17478294 316.00026701 230.27165794 316.78784513 C208.27158436 335.68306962 182.76135791 347.835739 154.99040794 355.72143888 C153.77816551 356.0729904 153.77816551 356.0729904 152.54143333 356.43164396 C149.68470247 357.20425036 146.8224598 357.85430431 143.92790794 358.47143888 C142.02936058 358.87749357 142.02936058 358.87749357 140.09245872 359.29175138 C121.72411836 362.78753875 102.78487553 361.93741173 84.16435814 361.97674894 C79.21896247 361.98840524 74.27389855 362.0122889 69.32864189 362.05144072 C67.05564564 362.06471659 64.78313989 362.06089918 62.5101223 362.05603361 C48.6172676 362.10778502 33.01867191 362.91045531 21.90837669 372.15112638 C13.85591754 380.32225336 12.58126348 390.08881975 12.55290794 401.09643888 C12.63626034 408.67637748 13.15123705 416.15021548 14.11479759 423.66691923 C16.20985739 440.25208408 16.13022289 456.96862532 16.11540794 473.65893888 C16.11513603 474.81164274 16.11486412 475.9643466 16.11458397 477.15198088 C16.0980064 492.52376493 15.87262388 507.86741479 15.11540794 523.22143888 C15.08047234 523.98934752 15.04553673 524.75725615 15.00954247 525.54843473 C14.10846272 544.63823469 12.55093858 565.72764093 -1.89240456 579.73706388 C-17.50724563 592.16177614 -38.06207782 592.92368141 -57.07209206 591.47143888 C-61.82641754 590.66427565 -65.89211027 588.85312635 -70.07209206 586.47143888 C-71.04017799 585.94034513 -72.00826393 585.40925138 -73.00568581 584.86206388 C-86.95928321 576.60728984 -95.41017034 564.90522516 -100.07209206 549.47143888 C-105.79738189 524.76556862 -103.22357739 497.03975484 -103.21747577 471.83535433 C-103.21726936 466.50204608 -103.22281285 461.16874304 -103.22753334 455.8354373 C-103.23578626 445.42122536 -103.23858565 435.00701909 -103.23914572 424.59280415 C-103.23962302 416.12432777 -103.24168839 407.65585324 -103.24484634 399.18737745 C-103.25363487 375.12717905 -103.25826804 351.06698507 -103.25751587 327.00678505 C-103.25747591 325.71379269 -103.25743596 324.42080033 -103.25739479 323.08862638 C-103.25735391 321.79404012 -103.25731303 320.49945386 -103.25727091 319.16563772 C-103.25686397 298.15987176 -103.26645019 277.15412368 -103.28053316 256.14836289 C-103.29491136 234.53037767 -103.30180269 212.91240118 -103.30093938 191.29441106 C-103.30060812 179.17694092 -103.30332451 167.05948957 -103.31411743 154.94202375 C-103.323241 144.63387702 -103.32538209 134.32575763 -103.31860801 124.0176086 C-103.31535344 118.76570166 -103.31524778 113.51384713 -103.32396126 108.26194525 C-103.33187328 103.44342775 -103.33034734 98.62500384 -103.32167713 93.8064885 C-103.32015254 92.07472976 -103.3219184 90.34296387 -103.3275372 88.61121358 C-103.40377834 63.4211983 -101.5776187 36.57498973 -83.07209206 17.47143888 C-61.06255184 -2.12289515 -27.55191876 -0.14309775 0 0 Z " fill="#FED01C" transform="translate(2774.0720920562744,2513.528561115265)" />
<path d="M0 0 C1.30502472 0.00273422 1.30502472 0.00273422 2.63641357 0.00552368 C61.50142463 0.21209827 117.44582146 18.79288577 159.78710938 60.51416016 C173.54742666 74.45234733 188.09060032 92.16034493 189 112.4375 C188.75506977 124.88571899 183.47593986 134.98388294 175.5625 144.3125 C174.91796875 145.10398437 174.2734375 145.89546875 173.609375 146.7109375 C164.93311904 156.41377336 151.65234095 162.51400529 138.73828125 163.6484375 C121.40844159 163.82366338 107.19745882 158.04584021 93.70361328 147.20776367 C87.15573786 142.03945987 79.94528092 138.15058154 72.5625 134.3125 C71.65242188 133.83039062 70.74234375 133.34828125 69.8046875 132.8515625 C64.03496446 130.01191824 58.00668311 128.07591434 51.875 126.1875 C51.09801758 125.94555908 50.32103516 125.70361816 49.52050781 125.4543457 C35.82037688 121.40127451 22.79006128 119.83344195 8.57177734 119.97631836 C6.06445095 119.99998159 3.558192 119.99683926 1.05078125 119.99023438 C-12.32442179 120.01245791 -25.70148446 120.76162692 -38.625 124.5 C-39.37128662 124.71285645 -40.11757324 124.92571289 -40.88647461 125.14501953 C-55.61116394 129.58657551 -68.69934076 137.7851942 -76.4375 151.3125 C-83.42369037 165.34047377 -86.10665534 180.96996393 -81.8125 196.25 C-77.09100679 209.54559371 -67.83245225 218.80353935 -55.12548828 224.86425781 C-32.79628538 234.9401282 -7.74497511 239.61092042 16.0625 244.9375 C38.89626441 250.04829859 61.31584195 256.04615772 83.5625 263.3125 C84.71621094 263.68665039 85.86992188 264.06080078 87.05859375 264.44628906 C131.8628075 279.08012846 174.20080281 304.47896646 196.72705078 347.53857422 C201.36186972 356.79864789 205.11158193 366.24294645 208 376.1875 C208.35227661 377.39708374 208.35227661 377.39708374 208.71166992 378.63110352 C212.19443692 391.43133603 213.00703339 404.31063571 213 417.5 C213.00040283 418.28119202 213.00080566 419.06238403 213.0012207 419.86724854 C212.9151998 449.06022168 205.54184205 475.74425433 191.5625 501.3125 C191.01078125 502.34246094 190.4590625 503.37242187 189.890625 504.43359375 C183.48709182 515.91421395 175.55939513 526.51437219 166.6015625 536.12109375 C164.72695723 538.13575574 162.95574148 540.20485672 161.1875 542.3125 C148.7907222 556.427922 132.81373891 568.12572131 116.46044922 577.25195312 C115.18350225 577.96549283 113.91172215 578.68835031 112.64501953 579.41992188 C100.20457426 586.59626471 87.09439278 591.57633753 73.5625 596.3125 C72.77842773 596.59311279 71.99435547 596.87372559 71.18652344 597.1628418 C65.79999419 599.04059013 60.41157514 600.30536536 54.8125 601.375 C54.008125 601.53548828 53.20375 601.69597656 52.375 601.86132812 C49.77500875 602.37028868 47.16954894 602.84113467 44.5625 603.3125 C43.65846436 603.49635254 42.75442871 603.68020508 41.82299805 603.86962891 C31.88855431 605.69569983 21.98147334 605.61540965 11.91723633 605.57324219 C8.89839298 605.5625826 5.88015273 605.57315524 2.86132812 605.5859375 C-14.59415833 605.60069103 -31.31416871 603.79752033 -48.4375 600.5 C-49.12849792 600.36833435 -49.81949585 600.2366687 -50.53143311 600.10101318 C-61.3301345 598.03431322 -71.99084601 595.78018326 -82.4375 592.3125 C-83.29988281 592.02648926 -84.16226562 591.74047852 -85.05078125 591.44580078 C-97.35459772 587.29648925 -109.02603183 582.49870158 -120.4375 576.3125 C-121.09411621 575.96606445 -121.75073242 575.61962891 -122.42724609 575.26269531 C-147.73869691 561.90098764 -170.05448123 542.83978981 -187.21191406 519.94384766 C-188.32220243 518.46596979 -189.45293797 517.00350814 -190.5859375 515.54296875 C-196.35472179 507.93866218 -200.97759731 499.7311454 -205.4375 491.3125 C-205.96102051 490.32685059 -205.96102051 490.32685059 -206.49511719 489.32128906 C-213.7152907 475.35049149 -217.08635538 459.94645951 -213.55078125 444.41796875 C-207.98574667 427.35309527 -195.929053 415.70050335 -180.4375 407.3125 C-169.59066836 402.05812571 -157.56920156 401.30038299 -146.17333984 405.11108398 C-126.80997576 412.33253407 -113.64753429 426.96429035 -99.4375 441.3125 C-71.57067343 469.34205256 -35.60372082 487.23483908 4.4375 487.625 C28.49068055 487.52907961 55.52869126 480.64304159 72.87890625 463.1640625 C80.41120457 455.16031028 86.14409766 447.4241224 90.5625 437.3125 C90.93503906 436.51714844 91.30757812 435.72179688 91.69140625 434.90234375 C94.28534499 427.19031961 93.52425205 418.26215375 90.0625 411 C86.80274939 405.29351894 82.92128516 400.21826996 78.5625 395.3125 C78.00820312 394.67570312 77.45390625 394.03890625 76.8828125 393.3828125 C57.77418531 372.8113239 23.52597084 367.60956115 -2.71990967 362.01290894 C-58.43234676 350.13168916 -112.39059904 334.57581951 -155.4375 295.3125 C-156.74074219 294.13494141 -156.74074219 294.13494141 -158.0703125 292.93359375 C-169.77440774 281.81282158 -179.15282685 268.43435153 -186.51025391 254.11474609 C-187.34200854 252.49810241 -188.20610429 250.89819474 -189.07421875 249.30078125 C-192.72423682 242.12528641 -194.97493892 234.65852379 -197.1875 226.9375 C-197.48156738 225.92179932 -197.77563477 224.90609863 -198.07861328 223.85961914 C-201.93841421 209.80498213 -202.81939091 195.97570466 -202.75 181.5 C-202.74817719 180.7078006 -202.74635437 179.9156012 -202.74447632 179.09939575 C-202.69980983 167.56452924 -202.21504134 156.55115399 -199.4375 145.3125 C-199.09313474 143.76185526 -198.74941408 142.21106726 -198.40625 140.66015625 C-193.04205271 117.53990522 -181.67372279 95.46886185 -166.4375 77.3125 C-165.94427246 76.71920898 -165.45104492 76.12591797 -164.94287109 75.51464844 C-156.16865087 64.99219168 -147.18980802 55.85812519 -136.4375 47.3125 C-135.48230469 46.52875 -134.52710938 45.745 -133.54296875 44.9375 C-108.98307909 25.26436631 -79.73757656 12.20796794 -49.25 5 C-48.23010986 4.75733398 -47.21021973 4.51466797 -46.15942383 4.26464844 C-30.82807638 0.82497763 -15.65829897 -0.06851702 0 0 Z " fill="#FED01C" transform="translate(1646.4375,2509.6875)" />
<path d="M0 0 C0.89460938 0.30035156 1.78921875 0.60070313 2.7109375 0.91015625 C23.09365252 8.33666598 39.32899764 24.97708926 49 44 C55.41825671 58.91758453 56.41362349 75.1456416 50.609375 90.40625 C45.82617436 101.08718347 39.77249344 110.20270862 32 119 C30.90171875 120.26263672 30.90171875 120.26263672 29.78125 121.55078125 C25.2326421 126.69999758 20.4782745 131.59184737 15.5546875 136.3828125 C13.57586268 138.41004894 11.73835667 140.44970494 9.90087891 142.59912109 C5.81309283 147.28592028 1.45010743 151.65851797 -2.96875 156.03125 C-4.22745911 157.28427917 -4.22745911 157.28427917 -5.51159668 158.56262207 C-9.0685452 162.10336129 -12.6314612 165.63807324 -16.19384766 169.17333984 C-18.80840164 171.7697206 -21.41988184 174.36916566 -24.03125 176.96875 C-24.82623901 177.75544067 -25.62122803 178.54213135 -26.44030762 179.35266113 C-30.54120201 183.4356772 -34.4411653 187.60612766 -38.21569824 191.99084473 C-41.56207301 195.75892178 -45.16865851 199.26959933 -48.75 202.8125 C-49.56694336 203.62565674 -50.38388672 204.43881348 -51.22558594 205.27661133 C-54.68695042 208.7217734 -58.15428591 212.1609029 -61.62109375 215.60058594 C-64.16615188 218.12746508 -66.70813131 220.65741315 -69.25 223.1875 C-70.02311523 223.95231689 -70.79623047 224.71713379 -71.59277344 225.50512695 C-75.02038787 228.91739274 -78.35763979 232.35185671 -81.51367188 236.01806641 C-85.30057484 240.4152319 -89.38984346 244.46236523 -93.53125 248.5234375 C-95.16305233 250.13772581 -96.79455355 251.75231853 -98.42578125 253.3671875 C-100.96333518 255.87383753 -103.50313141 258.37807441 -106.04833984 260.87695312 C-108.52875337 263.31469184 -110.99932663 265.76207284 -113.46875 268.2109375 C-114.21999146 268.94355804 -114.97123291 269.67617859 -115.74523926 270.43099976 C-126.61415672 281.17292484 -126.61415672 281.17292484 -131.5 295.125 C-131.31522365 302.61460127 -126.70093666 308.50981418 -121.5625 313.625 C-121.00490494 314.14159683 -120.44730988 314.65819366 -119.87281799 315.19044495 C-118.0617186 316.94036623 -116.43871208 318.75367635 -114.80834961 320.67163086 C-110.8928964 325.18387591 -106.73265044 329.41160425 -102.50390625 333.62890625 C-101.71153061 334.42223862 -100.91915497 335.21557098 -100.10276794 336.03294373 C-98.43749717 337.69889081 -96.77097971 339.36359256 -95.10327148 341.02709961 C-92.56965378 343.55536134 -90.04141833 346.08891661 -87.51367188 348.62304688 C-85.88573717 350.2503207 -84.25749225 351.87728425 -82.62890625 353.50390625 C-81.88282608 354.25201065 -81.13674591 355.00011505 -80.36805725 355.77088928 C-76.30222376 359.81886226 -72.15358933 363.70133893 -67.78843689 367.42564392 C-65.94549328 369.04798212 -64.21845962 370.74703361 -62.5 372.5 C-60.10946833 374.93389732 -57.64953738 377.21355559 -55.0625 379.4375 C-51.61578784 382.40605556 -48.40889141 385.54079104 -45.25 388.8125 C-43.30099575 390.70736524 -41.30841932 392.47702555 -39.25 394.25 C-34.24366837 398.59809173 -29.64040911 403.3080204 -25 408.0390625 C-21.10511727 411.97958838 -17.10728579 415.70420811 -12.91064453 419.32080078 C-9.96645835 421.90834391 -7.19613825 424.6547633 -4.4375 427.4375 C-3.87377686 428.00388184 -3.31005371 428.57026367 -2.72924805 429.15380859 C0.7427107 432.66538669 4.09286485 436.24184895 7.28515625 440.01171875 C9.33221009 442.38518208 11.4819149 444.65039958 13.625 446.9375 C34.92836835 470.35172039 53.48751452 497.86829793 52.44921875 530.48046875 C52.01395941 537.64335004 50.23099513 543.55519589 47 550 C46.5771875 550.88429688 46.154375 551.76859375 45.71875 552.6796875 C37.12420365 568.71950947 22.20126302 577.02695726 5.6875 582.9375 C4.86386963 583.23237305 4.04023926 583.52724609 3.19165039 583.83105469 C-2.20370876 585.65462428 -7.32216194 586.62992133 -13 587 C-14.18722656 587.07863281 -15.37445312 587.15726563 -16.59765625 587.23828125 C-53.74710739 588.03404176 -81.01670188 561.79570474 -106.13818359 537.80029297 C-109.87315036 534.1887476 -113.52558976 530.49733754 -117.15625 526.78125 C-119.22852166 524.75452277 -121.28739842 522.88027956 -123.48803711 521.00756836 C-128.90862201 516.28092549 -133.95850966 511.18598222 -139.03515625 506.09765625 C-140.08297946 505.05050864 -141.1309509 504.00350934 -142.17906189 502.95664978 C-144.36326988 500.77390674 -146.54568332 498.58938975 -148.72680664 496.40356445 C-151.50253881 493.62213576 -154.28273782 490.84522224 -157.06430912 488.06963444 C-159.22559203 485.91198979 -161.38445714 483.75193853 -163.54263115 481.59118462 C-164.56601321 480.5671423 -165.59011961 479.54382326 -166.6150074 478.52128792 C-171.77473036 473.37081566 -176.83118415 468.18037691 -181.5790863 462.64329529 C-183.28274167 460.67300754 -185.07779622 458.82307942 -186.9375 457 C-187.60523437 456.34 -188.27296875 455.68 -188.9609375 455 C-189.63382813 454.34 -190.30671875 453.68 -191 453 C-195.64895834 448.44010217 -200.09736218 443.80958178 -204.34765625 438.875 C-206.77496017 436.12061258 -209.37239537 433.56145758 -212 431 C-215.92319426 427.13016603 -219.6542679 423.19181189 -223.2265625 418.9921875 C-226.19327981 415.65953149 -229.41292191 412.57998349 -232.5859375 409.4453125 C-235.28751294 406.70876521 -237.79078735 403.85020634 -240.2890625 400.9296875 C-242.11799863 398.86691479 -244.03580458 396.9340928 -246 395 C-249.14920881 391.89286078 -252.07976967 388.67509696 -254.9609375 385.3203125 C-257.03545613 382.95965337 -259.16466961 380.66069292 -261.30957031 378.36425781 C-266.30471972 373.01387008 -271.08574691 367.57270385 -275.66796875 361.859375 C-277.82719208 359.21188508 -280.04374291 356.63260203 -282.2902832 354.05981445 C-298.50447686 335.44794854 -316.64940109 314.07920969 -315 288 C-311.1802072 261.43667023 -289.03408257 241.68195551 -270.81640625 223.87890625 C-268.69418599 221.76270007 -266.72831764 219.55205505 -264.77734375 217.27734375 C-259.63837525 211.34183162 -253.972281 205.92791859 -248.3828125 200.421875 C-244.63458062 196.70782153 -240.93586363 193.00716648 -237.5 189 C-232.47574519 183.14033045 -226.87758088 177.83463192 -221.3828125 172.421875 C-217.64500043 168.71814632 -213.9552513 165.02928694 -210.53125 161.03125 C-205.30115149 154.93150982 -199.45584983 149.41404148 -193.73828125 143.77734375 C-189.24909493 139.32702485 -184.92537376 134.83722804 -180.81445312 130.03710938 C-176.26202359 124.92603941 -171.25675326 120.22307037 -166.3828125 115.421875 C-162.63458062 111.70782153 -158.93586363 108.00716648 -155.5 104 C-150.47574519 98.14033045 -144.87758088 92.83463192 -139.3828125 87.421875 C-135.64500043 83.71814632 -131.9552513 80.02928694 -128.53125 76.03125 C-123.30115149 69.93150982 -117.45584983 64.41404148 -111.73828125 58.77734375 C-106.03629014 53.1275805 -106.03629014 53.1275805 -100.65625 47.17578125 C-95.95157829 41.69115366 -90.85000735 36.5894511 -85.76025391 31.46508789 C-84.5965193 30.28989348 -83.43724478 29.11026387 -82.28271484 27.92602539 C-59.49355907 4.5539518 -33.47923406 -11.77067962 0 0 Z " fill="#FED01C" transform="translate(2332,2519)" />
<path d="M0 0 C13.06126849 9.34736147 21.6173458 24.02030731 24.4453125 39.75 C25.73092695 50.08873187 25.59410325 60.47317114 25.59248352 70.87025452 C25.59578806 72.80160213 25.59951486 74.73294907 25.603625 76.66429514 C25.61358534 81.94784044 25.61735208 87.23137439 25.62001431 92.51492774 C25.62393497 98.22270488 25.63351173 103.93047318 25.64222717 109.63824463 C25.66193784 123.40727333 25.67204908 137.17630271 25.68095496 150.94534197 C25.68534508 157.43758053 25.69070986 163.92981828 25.69594383 170.4220562 C25.71294763 192.01509106 25.72746659 213.60812478 25.73469257 235.2011652 C25.73516732 236.59571929 25.73564321 237.99027337 25.73612024 239.38482746 C25.73635661 240.07635285 25.73659299 240.76787825 25.73683653 241.48035895 C25.73803764 244.98356939 25.73925312 248.48677981 25.74047852 251.98999023 C25.74083874 253.03279348 25.74083874 253.03279348 25.74120624 254.09666346 C25.74909719 276.6310349 25.77252916 299.16535368 25.80503446 321.69970213 C25.83938603 345.55777322 25.85904736 369.41580995 25.86233681 393.27390665 C25.86449866 406.26631272 25.8732002 419.25864129 25.89879799 432.25102425 C25.92054595 443.31446339 25.92853508 454.37780618 25.91883121 465.44126428 C25.91429897 471.08009382 25.91611023 476.71872472 25.93559265 482.35752678 C25.95331331 487.53132062 25.95215489 492.7047722 25.93669536 497.87857013 C25.9343328 499.7385683 25.93857161 501.59859074 25.95052401 503.45855201 C26.09334209 527.17423786 21.53284416 549.92456724 5.35546875 568.09765625 C-5.38134164 578.47457356 -19.15690204 583.17713509 -33.83447266 583.11572266 C-48.83877153 582.76287075 -62.54337669 577.22937408 -73.4921875 566.9453125 C-90.06328825 549.30713329 -92.87009522 527.63618255 -92.80192566 504.5375824 C-92.80351546 502.58418427 -92.80598075 500.63078669 -92.80924207 498.67739064 C-92.81563631 493.32857823 -92.80960232 487.97984188 -92.80147779 482.63103449 C-92.7948856 476.8552474 -92.79985258 471.0794686 -92.80335999 465.30368042 C-92.80839642 453.99667057 -92.80276736 442.68969002 -92.79350968 431.38268381 C-92.78311561 418.21343275 -92.78319614 405.04418799 -92.78368226 391.87493361 C-92.78438979 367.66757062 -92.77416689 343.46022192 -92.75917982 319.25286416 C-92.74555499 297.16442349 -92.73931864 275.07599366 -92.73999023 252.98754883 C-92.74003065 251.56905901 -92.74007101 250.1505692 -92.74011131 248.73207938 C-92.74013166 248.03079738 -92.74015202 247.32951538 -92.74017298 246.60698242 C-92.74027378 243.07665678 -92.74036436 239.54633115 -92.74044323 236.01600552 C-92.74045994 235.31949221 -92.74047666 234.6229789 -92.74049388 233.90535913 C-92.74093763 211.47181933 -92.73381663 189.03828171 -92.72608038 166.60474346 C-92.72306517 157.42608021 -92.72200096 148.24741789 -92.72154808 139.0687542 C-92.72086563 127.88318451 -92.7163965 116.6976234 -92.70721527 105.51205736 C-92.70260144 99.8055632 -92.69955027 94.09908 -92.70080948 88.39258385 C-92.70190655 83.16751224 -92.69837367 77.94246485 -92.69116095 72.71739829 C-92.68935164 70.82859887 -92.68921341 68.93979694 -92.69092824 67.05099743 C-92.70984656 43.61602369 -89.75229529 23.81130468 -72.9453125 6.00390625 C-66.99754246 0.39628645 -60.10713896 -4.11282785 -52.5546875 -7.25 C-51.48734375 -7.69859375 -51.48734375 -7.69859375 -50.3984375 -8.15625 C-33.46201789 -14.25336106 -14.73884504 -9.2406552 0 0 Z " fill="#FED01C" transform="translate(2567.5546875,2525.25)" />
<path d="M0 0 C13.89427271 11.52898459 25.27910983 28.98300474 27.71606445 47.12207031 C28.65979381 59.19913516 28.65445426 71.56201925 24.71606445 83.12207031 C24.22299805 84.60126953 24.22299805 84.60126953 23.7199707 86.11035156 C16.26695076 105.99366773 1.01792873 120.60692691 -18.03393555 129.37207031 C-38.47933115 137.69261216 -59.21666305 137.17068653 -79.47143555 128.80566406 C-98.64248123 119.02508698 -112.3344851 103.2223884 -119.49487305 83.01269531 C-125.32079005 61.6702271 -123.52436811 41.03246291 -113.2722168 21.45019531 C-110.12961737 16.18989136 -106.39564712 11.64791111 -102.28393555 7.12207031 C-101.7322168 6.47753906 -101.18049805 5.83300781 -100.61206055 5.16894531 C-75.10611724 -22.86233892 -28.52806071 -22.32595334 0 0 Z " fill="#C39B2E" transform="translate(2044.283935546875,2533.8779296875)" />
<path d="M0 0 C14.29221557 12.81625527 25.30624736 29.9915295 26.47167969 49.62060547 C27.45477877 72.54156049 22.15165271 92.19547769 6.66308594 109.64746094 C-6.24358062 123.63259388 -24.9169705 133.01914789 -44.09472656 133.83496094 C-67.00356695 134.33971978 -86.25413789 127.15381589 -103.01269531 111.30371094 C-116.82286198 97.04343514 -124.28246044 79.22072567 -124.08691406 59.39355469 C-124.07861572 58.30002686 -124.07031738 57.20649902 -124.06176758 56.07983398 C-123.6682579 37.08634025 -117.42469495 20.79291335 -104.64941406 6.58105469 C-104.13121094 5.97003906 -103.61300781 5.35902344 -103.07910156 4.72949219 C-76.98843723 -23.98334947 -28.65149996 -24.64809321 0 0 Z " fill="#C39B2E" transform="translate(2045.6494140625,2965.4189453125)" />
<path d="M0 0 C0.88265533 0.14171631 1.76531067 0.28343262 2.67471313 0.42944336 C20.1707319 3.28799951 37.72088564 7.80460699 49.625 22 C58.93695535 35.01429904 61.96822771 47.12888664 62.1875 62.9375 C62.20546631 63.85982422 62.22343262 64.78214844 62.24194336 65.73242188 C62.22490459 78.48196438 57.55863428 90.16868002 48.875 99.5625 C27.7121747 119.44488545 -5.06294209 124.67673396 -32.90234375 124.19140625 C-52.30457578 123.48268954 -72.75582074 116.56859265 -86.28125 102.15625 C-99.33226475 86.00838429 -100.60169221 68.87372222 -99.125 48.875 C-98.41840518 43.01202398 -97.00491022 37.46357663 -95.125 31.875 C-94.90537598 31.20903809 -94.68575195 30.54307617 -94.45947266 29.85693359 C-89.92700137 16.50330445 -83.92229757 7.5079655 -71.125 0.875 C-50.0708196 -8.21505884 -21.89855459 -3.63527738 0 0 Z " fill="#371D43" transform="translate(2884.125,2633.125)" />
</svg>